<?xml version="1.0" encoding="UTF-8"?>
<svg xmlns="http://www.w3.org/2000/svg" width="7380" height="720" viewBox="0 0 7380 720">
<title>lin105.tsp root potential ascent</title>
<desc>Configured root-ascent lower-bound trajectories; the dashed line is the Concorde optimum.</desc>
<rect width="100%" height="100%" fill="#ffffff"/>
<style>text{font-family:-apple-system,BlinkMacSystemFont,"Segoe UI",Arial,sans-serif;fill:#172033}.tick{font-size:13px;fill:#596579}.axis{stroke:#334155;stroke-width:1.4}.grid{stroke:#dbe2ea;stroke-width:1}.legend{font-size:14px}.title{font-size:23px;font-weight:600}.subtitle{font-size:13px;fill:#64748b}</style>
<text class="title" x="800.0" y="33" text-anchor="middle">lin105.tsp — root potential ascent</text>
<text class="subtitle" x="800.0" y="55" text-anchor="middle">Per-phase cap: 2000; 400 iterations per 1600px; thin = raw bound, bold = best-so-far</text>
<line class="grid" x1="110.00" y1="75.0" x2="110.00" y2="615.0"/>
<text class="tick" x="110.00" y="640.0" text-anchor="middle">0</text>
<line class="grid" x1="1555.00" y1="75.0" x2="1555.00" y2="615.0"/>
<text class="tick" x="1555.00" y="640.0" text-anchor="middle">400</text>
<line class="grid" x1="3000.00" y1="75.0" x2="3000.00" y2="615.0"/>
<text class="tick" x="3000.00" y="640.0" text-anchor="middle">800</text>
<line class="grid" x1="4445.00" y1="75.0" x2="4445.00" y2="615.0"/>
<text class="tick" x="4445.00" y="640.0" text-anchor="middle">1200</text>
<line class="grid" x1="5890.00" y1="75.0" x2="5890.00" y2="615.0"/>
<text class="tick" x="5890.00" y="640.0" text-anchor="middle">1600</text>
<line class="grid" x1="7335.00" y1="75.0" x2="7335.00" y2="615.0"/>
<text class="tick" x="7335.00" y="640.0" text-anchor="middle">2000</text>
<line class="grid" x1="110.0" y1="615.00" x2="7335.0" y2="615.00"/>
<text class="tick" x="96.0" y="619.00" text-anchor="end">11778.2</text>
<line class="grid" x1="110.0" y1="507.00" x2="7335.0" y2="507.00"/>
<text class="tick" x="96.0" y="511.00" text-anchor="end">12327.8</text>
<line class="grid" x1="110.0" y1="399.00" x2="7335.0" y2="399.00"/>
<text class="tick" x="96.0" y="403.00" text-anchor="end">12877.4</text>
<line class="grid" x1="110.0" y1="291.00" x2="7335.0" y2="291.00"/>
<text class="tick" x="96.0" y="295.00" text-anchor="end">13427</text>
<line class="grid" x1="110.0" y1="183.00" x2="7335.0" y2="183.00"/>
<text class="tick" x="96.0" y="187.00" text-anchor="end">13976.6</text>
<line class="grid" x1="110.0" y1="75.00" x2="7335.0" y2="75.00"/>
<text class="tick" x="96.0" y="79.00" text-anchor="end">14526.2</text>
<line class="axis" x1="110.0" y1="615.0" x2="7335.0" y2="615.0"/>
<line class="axis" x1="110.0" y1="75.0" x2="110.0" y2="615.0"/>
<text x="3722.50" y="686" text-anchor="middle">Iteration</text>
<text x="27" y="345.00" text-anchor="middle" transform="rotate(-90 27 345.00)">Root lower bound</text>
<g data-series="concorde">
<line x1="110.0" y1="103.93" x2="7335.0" y2="103.93" stroke="#111827" stroke-width="1.8" stroke-dasharray="8 6"/>
<text class="tick" x="7331.0" y="95.93" text-anchor="end">Concorde optimum: 14379</text>
</g>
<g data-series="polyak">
<polyline points="113.61,334.62 117.22,586.07 120.84,500.21 124.45,575.83 128.06,480.55 131.68,483.08 135.29,403.91 138.90,373.02 142.51,328.46 146.12,369.76 149.74,325.66 153.35,291.10 156.96,306.61 160.57,303.90 164.19,340.87 167.80,279.00 171.41,316.38 175.03,289.61 178.64,271.77 182.25,266.62 185.86,307.02 189.47,249.80 193.09,239.81 196.70,254.30 200.31,227.61 203.93,202.65 207.54,205.47 211.15,238.99 214.76,240.00 218.38,173.57 221.99,177.55 225.60,206.43 229.21,190.82 232.82,222.32 236.44,168.86 240.05,180.28 243.66,178.78 247.28,187.21 250.89,178.98 254.50,204.71 258.11,189.65 261.73,224.84 265.34,206.10 268.95,194.84 272.56,179.35 276.18,174.83 279.79,190.00 283.40,172.31 287.01,154.27 290.62,140.28 294.24,129.85 297.85,126.81 301.46,117.40 305.07,125.67 308.69,126.48 312.30,121.56 315.91,115.97 319.52,125.49 323.14,126.17 326.75,121.38 330.36,118.32 333.98,128.52 337.59,117.41 341.20,125.19 344.81,112.05 348.43,124.22 352.04,119.46 355.65,124.62 359.26,119.08 362.88,120.14 366.49,124.81 370.10,118.18 373.71,118.67 377.32,125.39 380.94,119.08 384.55,113.99 388.16,116.19 391.77,122.50 395.39,113.83 399.00,111.53 402.61,110.17 406.23,111.98 409.84,109.29 413.45,112.12 417.06,109.32 420.68,111.42 424.29,111.52 427.90,108.20 431.51,115.01 435.12,114.87 438.74,109.92 442.35,112.17 445.96,108.03 449.57,112.61 453.19,107.68 456.80,116.60 460.41,113.81 464.02,111.38 467.64,112.69 471.25,109.02 474.86,120.77 478.48,112.49 482.09,112.46 485.70,114.83 489.31,112.83 492.93,109.69 496.54,115.74 500.15,112.52 503.76,110.40 507.38,107.66 510.99,112.31 514.60,108.86 518.21,111.35 521.83,107.40 525.44,110.80 529.05,107.70 532.66,108.97 536.27,110.18 539.89,108.74 543.50,108.68 547.11,111.16 550.73,107.45 554.34,109.92 557.95,109.85 561.56,109.90 565.17,109.86 568.79,109.89 572.40,106.84 576.01,108.63 579.62,108.56 583.24,107.59 586.85,107.61 590.46,107.78 594.08,106.79 597.69,107.15 601.30,106.97 604.91,108.19 608.52,107.28 612.14,107.07 615.75,108.06 619.36,107.19 622.98,107.95 626.59,107.29 630.20,107.87 633.81,107.36 637.42,107.80 641.04,107.42 644.65,105.92 648.26,107.17 651.88,106.00 655.49,107.10 659.10,106.07 662.71,107.03 666.33,106.13 669.94,106.97 673.55,106.18 677.16,106.93 680.77,106.23 684.39,106.88 688.00,106.27 691.61,106.84 695.23,105.87 698.84,106.27 702.45,105.88 706.06,106.26 709.67,105.89 713.29,106.25 716.90,105.90 720.51,106.24 724.12,105.91 727.74,106.23 731.35,105.92 734.96,106.22 738.58,105.93 742.19,106.21 745.80,105.81 749.41,105.97 753.02,105.78 756.64,105.89 760.25,105.78 763.86,105.89 767.48,105.78 771.09,105.89 774.70,105.78 778.31,105.88 781.92,105.79 785.54,105.88 789.15,105.79 792.76,105.88 796.38,105.79 799.99,105.88 803.60,105.68 807.21,105.79 810.83,105.73 814.44,105.70 818.05,105.73 821.66,105.70 825.27,105.73 828.89,105.70 832.50,105.73 836.11,105.70 839.73,105.73 843.34,105.70 846.95,105.73 850.56,105.70 854.17,105.62 857.79,105.69 861.40,105.62 865.01,105.69 868.62,105.62 872.24,105.69 875.85,105.62 879.46,105.69 883.08,105.62 886.69,105.69 890.30,105.62 893.91,105.69 897.52,105.62 901.14,105.69 904.75,105.63 908.36,105.62 911.98,105.63 915.59,105.62 919.20,105.63 922.81,105.62 926.42,105.63 930.04,105.62 933.65,105.63 937.26,105.62 940.88,105.63 944.49,105.62 948.10,105.62 951.71,105.62 955.33,105.61 958.94,105.61 962.55,105.61 966.16,105.61 969.77,105.61 973.39,105.61 977.00,105.61 980.61,105.61 984.23,105.61 987.84,105.61 991.45,105.61 995.06,105.61 998.67,105.61 1002.29,105.61 1005.90,105.61 1009.51,105.60 1013.12,105.61 1016.74,105.61 1020.35,105.61 1023.96,105.61 1027.58,105.61 1031.19,105.61 1034.80,105.61 1038.41,105.61 1042.03,105.61 1045.64,105.61 1049.25,105.61 1052.86,105.61 1056.47,105.61 1060.09,105.60 1063.70,105.60 1067.31,105.60 1070.92,105.60 1074.54,105.60 1078.15,105.60 1081.76,105.60 1085.38,105.60 1088.99,105.60 1092.60,105.60 1096.21,105.60 1099.83,105.60 1103.44,105.60 1107.05,105.60 1110.66,105.60 1114.28,105.60 1117.89,105.60 1121.50,105.60 1125.11,105.60 1128.72,105.60 1132.34,105.60 1135.95,105.60 1139.56,105.60 1143.17,105.60 1146.79,105.60 1150.40,105.60 1154.01,105.60 1157.62,105.60 1161.24,105.60 1164.85,105.60 1168.46,105.60 1172.08,105.60 1175.69,105.60 1179.30,105.60 1182.91,105.60 1186.53,105.60 1190.14,105.60 1193.75,105.60 1197.36,105.60 1200.97,105.60 1204.59,105.60 1208.20,105.60 1211.81,105.60 1215.42,105.60 1219.04,105.60 1222.65,105.60 1226.26,105.60 1229.88,105.60 1233.49,105.60 1237.10,105.60 1240.71,105.60 1244.33,105.60 1247.94,105.60 1251.55,105.60 1255.16,105.60 1258.78,105.60 1262.39,105.60 1266.00,105.60 1269.61,105.60 1273.22,105.60 1276.84,105.60 1280.45,105.60 1284.06,105.60 1287.67,105.60 1291.29,105.60 1294.90,105.60 1298.51,105.60 1302.12,105.60 1305.74,105.60 1309.35,105.60 1312.96,105.60 1316.58,105.60 1320.19,105.60 1323.80,105.60 1327.41,105.60 1331.03,105.60" fill="none" stroke="#2563eb" stroke-width="1.2" stroke-opacity="0.28" stroke-linejoin="round"/>
<polyline points="113.61,334.62 117.22,334.62 120.84,334.62 124.45,334.62 128.06,334.62 131.68,334.62 135.29,334.62 138.90,334.62 142.51,328.46 146.12,328.46 149.74,325.66 153.35,291.10 156.96,291.10 160.57,291.10 164.19,291.10 167.80,279.00 171.41,279.00 175.03,279.00 178.64,271.77 182.25,266.62 185.86,266.62 189.47,249.80 193.09,239.81 196.70,239.81 200.31,227.61 203.93,202.65 207.54,202.65 211.15,202.65 214.76,202.65 218.38,173.57 221.99,173.57 225.60,173.57 229.21,173.57 232.82,173.57 236.44,168.86 240.05,168.86 243.66,168.86 247.28,168.86 250.89,168.86 254.50,168.86 258.11,168.86 261.73,168.86 265.34,168.86 268.95,168.86 272.56,168.86 276.18,168.86 279.79,168.86 283.40,168.86 287.01,154.27 290.62,140.28 294.24,129.85 297.85,126.81 301.46,117.40 305.07,117.40 308.69,117.40 312.30,117.40 315.91,115.97 319.52,115.97 323.14,115.97 326.75,115.97 330.36,115.97 333.98,115.97 337.59,115.97 341.20,115.97 344.81,112.05 348.43,112.05 352.04,112.05 355.65,112.05 359.26,112.05 362.88,112.05 366.49,112.05 370.10,112.05 373.71,112.05 377.32,112.05 380.94,112.05 384.55,112.05 388.16,112.05 391.77,112.05 395.39,112.05 399.00,111.53 402.61,110.17 406.23,110.17 409.84,109.29 413.45,109.29 417.06,109.29 420.68,109.29 424.29,109.29 427.90,108.20 431.51,108.20 435.12,108.20 438.74,108.20 442.35,108.20 445.96,108.03 449.57,108.03 453.19,107.68 456.80,107.68 460.41,107.68 464.02,107.68 467.64,107.68 471.25,107.68 474.86,107.68 478.48,107.68 482.09,107.68 485.70,107.68 489.31,107.68 492.93,107.68 496.54,107.68 500.15,107.68 503.76,107.68 507.38,107.66 510.99,107.66 514.60,107.66 518.21,107.66 521.83,107.40 525.44,107.40 529.05,107.40 532.66,107.40 536.27,107.40 539.89,107.40 543.50,107.40 547.11,107.40 550.73,107.40 554.34,107.40 557.95,107.40 561.56,107.40 565.17,107.40 568.79,107.40 572.40,106.84 576.01,106.84 579.62,106.84 583.24,106.84 586.85,106.84 590.46,106.84 594.08,106.79 597.69,106.79 601.30,106.79 604.91,106.79 608.52,106.79 612.14,106.79 615.75,106.79 619.36,106.79 622.98,106.79 626.59,106.79 630.20,106.79 633.81,106.79 637.42,106.79 641.04,106.79 644.65,105.92 648.26,105.92 651.88,105.92 655.49,105.92 659.10,105.92 662.71,105.92 666.33,105.92 669.94,105.92 673.55,105.92 677.16,105.92 680.77,105.92 684.39,105.92 688.00,105.92 691.61,105.92 695.23,105.87 698.84,105.87 702.45,105.87 706.06,105.87 709.67,105.87 713.29,105.87 716.90,105.87 720.51,105.87 724.12,105.87 727.74,105.87 731.35,105.87 734.96,105.87 738.58,105.87 742.19,105.87 745.80,105.81 749.41,105.81 753.02,105.78 756.64,105.78 760.25,105.78 763.86,105.78 767.48,105.78 771.09,105.78 774.70,105.78 778.31,105.78 781.92,105.78 785.54,105.78 789.15,105.78 792.76,105.78 796.38,105.78 799.99,105.78 803.60,105.68 807.21,105.68 810.83,105.68 814.44,105.68 818.05,105.68 821.66,105.68 825.27,105.68 828.89,105.68 832.50,105.68 836.11,105.68 839.73,105.68 843.34,105.68 846.95,105.68 850.56,105.68 854.17,105.62 857.79,105.62 861.40,105.62 865.01,105.62 868.62,105.62 872.24,105.62 875.85,105.62 879.46,105.62 883.08,105.62 886.69,105.62 890.30,105.62 893.91,105.62 897.52,105.62 901.14,105.62 904.75,105.62 908.36,105.62 911.98,105.62 915.59,105.62 919.20,105.62 922.81,105.62 926.42,105.62 930.04,105.62 933.65,105.62 937.26,105.62 940.88,105.62 944.49,105.62 948.10,105.62 951.71,105.62 955.33,105.61 958.94,105.61 962.55,105.61 966.16,105.61 969.77,105.61 973.39,105.61 977.00,105.61 980.61,105.61 984.23,105.61 987.84,105.61 991.45,105.61 995.06,105.61 998.67,105.61 1002.29,105.61 1005.90,105.61 1009.51,105.60 1013.12,105.60 1016.74,105.60 1020.35,105.60 1023.96,105.60 1027.58,105.60 1031.19,105.60 1034.80,105.60 1038.41,105.60 1042.03,105.60 1045.64,105.60 1049.25,105.60 1052.86,105.60 1056.47,105.60 1060.09,105.60 1063.70,105.60 1067.31,105.60 1070.92,105.60 1074.54,105.60 1078.15,105.60 1081.76,105.60 1085.38,105.60 1088.99,105.60 1092.60,105.60 1096.21,105.60 1099.83,105.60 1103.44,105.60 1107.05,105.60 1110.66,105.60 1114.28,105.60 1117.89,105.60 1121.50,105.60 1125.11,105.60 1128.72,105.60 1132.34,105.60 1135.95,105.60 1139.56,105.60 1143.17,105.60 1146.79,105.60 1150.40,105.60 1154.01,105.60 1157.62,105.60 1161.24,105.60 1164.85,105.60 1168.46,105.60 1172.08,105.60 1175.69,105.60 1179.30,105.60 1182.91,105.60 1186.53,105.60 1190.14,105.60 1193.75,105.60 1197.36,105.60 1200.97,105.60 1204.59,105.60 1208.20,105.60 1211.81,105.60 1215.42,105.60 1219.04,105.60 1222.65,105.60 1226.26,105.60 1229.88,105.60 1233.49,105.60 1237.10,105.60 1240.71,105.60 1244.33,105.60 1247.94,105.60 1251.55,105.60 1255.16,105.60 1258.78,105.60 1262.39,105.60 1266.00,105.60 1269.61,105.60 1273.22,105.60 1276.84,105.60 1280.45,105.60 1284.06,105.60 1287.67,105.60 1291.29,105.60 1294.90,105.60 1298.51,105.60 1302.12,105.60 1305.74,105.60 1309.35,105.60 1312.96,105.60 1316.58,105.60 1320.19,105.60 1323.80,105.60 1327.41,105.60 1331.03,105.60 7335.00,105.60" fill="none" stroke="#2563eb" stroke-width="2.5" stroke-linejoin="round" stroke-linecap="round"/>
</g>
<g data-series="helsgaun">
<polyline points="113.61,334.62 117.22,329.51 120.84,319.57 124.45,305.97 128.06,286.99 131.68,275.79 135.29,285.73 138.90,280.59 142.51,294.93 146.12,264.12 149.74,240.77 153.35,244.63 156.96,236.69 160.57,244.35 164.19,260.82 167.80,266.08 171.41,272.45 175.03,227.18 178.64,280.82 182.25,258.69 185.86,243.29 189.47,231.46 193.09,208.82 196.70,262.00 200.31,231.70 203.93,261.92 207.54,214.52 211.15,223.13 214.76,237.12 218.38,209.69 221.99,215.90 225.60,230.95 229.21,198.60 232.82,212.99 236.44,207.25 240.05,227.69 243.66,202.85 247.28,206.42 250.89,204.66 254.50,210.63 258.11,245.49 261.73,199.04 265.34,202.97 268.95,185.87 272.56,196.76 276.18,198.92 279.79,209.77 283.40,173.14 287.01,184.14 290.62,213.97 294.24,213.07 297.85,210.28 301.46,200.84 305.07,147.51 308.69,139.81 312.30,123.42 315.91,128.37 319.52,124.64 323.14,124.88 326.75,133.72 330.36,127.08 333.98,126.37 337.59,130.73 341.20,124.80 344.81,127.94 348.43,129.55 352.04,133.40 355.65,130.42 359.26,120.51 362.88,128.41 366.49,136.67 370.10,133.44 373.71,122.16 377.32,143.70 380.94,120.32 384.55,129.75 388.16,125.90 391.77,133.72 395.39,136.86 399.00,121.38 402.61,117.41 406.23,111.08 409.84,116.78 413.45,110.73 417.06,110.88 420.68,111.04 424.29,112.93 427.90,111.79 431.51,115.01 435.12,113.48 438.74,114.23 442.35,110.49 445.96,109.51 449.57,107.54 453.19,107.58 456.80,107.47 460.41,107.43 464.02,106.95 467.64,106.56 471.25,106.01 474.86,106.13 478.48,106.01 482.09,106.01 485.70,105.89 489.31,105.80 492.93,105.87 496.54,105.74" fill="none" stroke="#dc2626" stroke-width="1.2" stroke-opacity="0.28" stroke-linejoin="round"/>
<polyline points="113.61,334.62 117.22,329.51 120.84,319.57 124.45,305.97 128.06,286.99 131.68,275.79 135.29,275.79 138.90,275.79 142.51,275.79 146.12,264.12 149.74,240.77 153.35,240.77 156.96,236.69 160.57,236.69 164.19,236.69 167.80,236.69 171.41,236.69 175.03,227.18 178.64,227.18 182.25,227.18 185.86,227.18 189.47,227.18 193.09,208.82 196.70,208.82 200.31,208.82 203.93,208.82 207.54,208.82 211.15,208.82 214.76,208.82 218.38,208.82 221.99,208.82 225.60,208.82 229.21,198.60 232.82,198.60 236.44,198.60 240.05,198.60 243.66,198.60 247.28,198.60 250.89,198.60 254.50,198.60 258.11,198.60 261.73,198.60 265.34,198.60 268.95,185.87 272.56,185.87 276.18,185.87 279.79,185.87 283.40,173.14 287.01,173.14 290.62,173.14 294.24,173.14 297.85,173.14 301.46,173.14 305.07,147.51 308.69,139.81 312.30,123.42 315.91,123.42 319.52,123.42 323.14,123.42 326.75,123.42 330.36,123.42 333.98,123.42 337.59,123.42 341.20,123.42 344.81,123.42 348.43,123.42 352.04,123.42 355.65,123.42 359.26,120.51 362.88,120.51 366.49,120.51 370.10,120.51 373.71,120.51 377.32,120.51 380.94,120.32 384.55,120.32 388.16,120.32 391.77,120.32 395.39,120.32 399.00,120.32 402.61,117.41 406.23,111.08 409.84,111.08 413.45,110.73 417.06,110.73 420.68,110.73 424.29,110.73 427.90,110.73 431.51,110.73 435.12,110.73 438.74,110.73 442.35,110.49 445.96,109.51 449.57,107.54 453.19,107.54 456.80,107.47 460.41,107.43 464.02,106.95 467.64,106.56 471.25,106.01 474.86,106.01 478.48,106.01 482.09,106.01 485.70,105.89 489.31,105.80 492.93,105.80 496.54,105.74 7335.00,105.74" fill="none" stroke="#dc2626" stroke-width="2.5" stroke-linejoin="round" stroke-linecap="round"/>
</g>
<g data-series="hybrid">
<polyline points="113.61,334.62 117.22,586.07 120.84,500.21 124.45,575.83 128.06,480.55 131.68,483.08 135.29,403.91 138.90,373.02 142.51,328.46 146.12,369.76 149.74,325.66 153.35,291.10 156.96,306.61 160.57,303.90 164.19,340.87 167.80,279.00 171.41,316.38 175.03,289.61 178.64,271.77 182.25,266.62 185.86,307.02 189.47,249.80 193.09,239.81 196.70,254.30 200.31,227.61 203.93,202.65 207.54,205.47 211.15,238.99 214.76,240.00 218.38,173.57 221.99,177.55 225.60,206.43 229.21,190.82 232.82,222.32 236.44,168.86 240.05,180.28 243.66,178.78 247.28,187.21 250.89,178.98 254.50,204.71 258.11,189.65 261.73,224.84 265.34,206.10 268.95,194.84 272.56,179.35 276.18,174.83 279.79,190.00 283.40,172.31 287.01,154.27 290.62,140.28 294.24,129.85 297.85,126.81 301.46,117.40 305.07,125.67 308.69,126.48 312.30,121.56 315.91,115.97 319.52,125.49 323.14,126.17 326.75,121.38 330.36,118.32 333.98,128.52 337.59,117.41 341.20,125.19 344.81,112.05 348.43,124.22 352.04,119.46 355.65,124.62 359.26,119.08 362.88,120.14 366.49,124.81 370.10,118.18 373.71,118.67 377.32,125.39 380.94,119.08 384.55,113.99 388.16,116.19 391.77,122.50 395.39,113.83 399.00,111.53 402.61,110.17 406.23,111.98 409.84,109.29 413.45,112.12 417.06,109.32 420.68,111.42 424.29,111.52 427.90,108.20 431.51,115.01 435.12,114.87 438.74,109.92 442.35,112.17 445.96,108.03 449.57,112.61 453.19,107.68 456.80,116.60 460.41,113.81 464.02,111.38 467.64,112.69 471.25,109.02 474.86,120.77 478.48,112.49 482.09,112.46 485.70,114.83 489.31,112.83 492.93,109.69 496.54,115.74 500.15,112.52 503.76,110.40 507.38,107.66 510.99,112.31 514.60,108.86 518.21,111.35 521.83,107.40 525.44,110.80 529.05,107.70 532.66,108.97 536.27,110.18 539.89,108.74 543.50,108.68 547.11,111.16 550.73,107.45 554.34,109.92 557.95,109.85 561.56,109.90 565.17,109.86 568.79,109.89 572.40,106.84 576.01,108.63 579.62,108.56 583.24,107.59 586.85,107.61 590.46,107.78 594.08,106.79 597.69,107.15 601.30,106.97 604.91,108.19 608.52,107.28 612.14,107.07 615.75,108.06 619.36,107.19 622.98,107.95 626.59,107.29 630.20,107.87 633.81,107.36 637.42,107.80 641.04,107.42 644.65,105.92 648.26,107.17 651.88,106.00 655.49,107.10 659.10,106.07 662.71,107.03 666.33,106.13 669.94,106.97 673.55,106.18 677.16,106.93 680.77,106.23 684.39,106.88 688.00,106.27 691.61,106.84 695.23,105.87 698.84,106.27 702.45,105.88 706.06,106.26 709.67,105.89 713.29,106.25 716.90,105.90 720.51,106.24 724.12,105.91 727.74,106.23 731.35,105.92 734.96,106.22 738.58,105.93 742.19,106.21 745.80,105.81 749.41,105.97 753.02,105.78 756.64,105.89 760.25,105.78 763.86,105.89 767.48,105.78 771.09,105.89 774.70,105.78 778.31,105.88 781.92,105.79 785.54,105.88 789.15,105.79 792.76,105.88 796.38,105.79 799.99,105.88 803.60,105.68 807.21,105.79 810.83,105.73 814.44,105.70 818.05,105.73 821.66,105.70 825.27,105.73 828.89,105.70 832.50,105.73 836.11,105.70 839.73,105.73 843.34,105.70 846.95,105.73 850.56,105.70 854.17,105.62 857.79,105.69 861.40,105.62 865.01,105.69 868.62,105.62 872.24,105.69 875.85,105.62 879.46,105.69 883.08,105.62 886.69,105.69 890.30,105.62 893.91,105.69 897.52,105.62 901.14,105.69 904.75,105.63 908.36,105.62 911.98,105.63 915.59,105.62 919.20,105.63 922.81,105.62 926.42,105.63 930.04,105.62 933.65,105.63 937.26,105.62 940.88,105.63 944.49,105.62 948.10,105.62 951.71,105.62 955.33,105.61 958.94,105.61 962.55,105.61 966.16,105.61 969.77,105.61 973.39,105.61 977.00,105.61 980.61,105.61 984.23,105.61 987.84,105.61 991.45,105.61 995.06,105.61 998.67,105.61 1002.29,105.61 1005.90,105.61 1009.51,105.60 1013.12,105.61 1016.74,105.61 1020.35,105.61 1023.96,105.61 1027.58,105.61 1031.19,105.61 1034.80,105.61 1038.41,105.61 1042.03,105.61 1045.64,105.61 1049.25,105.61 1052.86,105.61 1056.47,105.61 1060.09,105.60 1063.70,105.60 1067.31,105.60 1070.92,105.60 1074.54,105.60 1078.15,105.60 1081.76,105.60 1085.38,105.60 1088.99,105.60 1092.60,105.60 1096.21,105.60 1099.83,105.60 1103.44,105.60 1107.05,105.60 1110.66,105.60 1114.28,105.60 1117.89,105.60 1121.50,105.60 1125.11,105.60 1128.72,105.60 1132.34,105.60 1135.95,105.60 1139.56,105.60 1143.17,105.60 1146.79,105.60 1150.40,105.60 1154.01,105.60 1157.62,105.60 1161.24,105.60 1164.85,105.60 1168.46,105.60 1172.08,105.60 1175.69,105.60 1179.30,105.60 1182.91,105.60 1186.53,105.60 1190.14,105.60 1193.75,105.60 1197.36,105.60 1200.97,105.60 1204.59,105.60 1208.20,105.60 1211.81,105.60 1215.42,105.60 1219.04,105.60 1222.65,105.60 1226.26,105.60 1229.88,105.60 1233.49,105.60 1237.10,105.60 1240.71,105.60 1244.33,105.60 1247.94,105.60 1251.55,105.60 1255.16,105.60 1258.78,105.60 1262.39,105.60 1266.00,105.60 1269.61,105.60 1273.22,105.60 1276.84,105.60 1280.45,105.60 1284.06,105.60 1287.67,105.60 1291.29,105.60 1294.90,105.60 1298.51,105.60 1302.12,105.60 1305.74,105.60 1309.35,105.60 1312.96,105.60 1316.58,105.60 1320.19,105.60 1323.80,105.60 1327.41,105.60 1331.03,105.60 1334.64,105.60 1338.25,106.38 1341.86,106.07 1345.47,105.91 1349.09,105.60 1352.70,106.38 1356.31,106.07 1359.92,105.91 1363.54,105.60 1367.15,106.38 1370.76,106.07 1374.38,105.91 1377.99,105.60 1381.60,106.38 1385.21,106.07 1388.83,105.91 1392.44,105.60 1396.05,106.38 1399.66,106.07 1403.28,105.91 1406.89,105.60 1410.50,106.38 1414.11,106.07 1417.72,105.91 1421.34,105.60 1424.95,106.38 1428.56,106.07 1432.17,105.91 1435.79,105.60 1439.40,106.38 1443.01,106.07 1446.62,105.91 1450.24,105.60 1453.85,106.38 1457.46,106.07 1461.08,105.91 1464.69,105.60 1468.30,106.38 1471.91,106.07 1475.53,105.91 1479.14,105.60 1482.75,106.38 1486.36,106.07 1489.97,105.91 1493.59,105.60 1497.20,106.38 1500.81,106.07 1504.42,105.91 1508.04,105.60 1511.65,106.38 1515.26,106.07 1518.88,105.91 1522.49,105.60 1526.10,105.99 1529.71,105.83 1533.33,105.76 1536.94,105.60 1540.55,105.99 1544.16,105.83 1547.78,105.76 1551.39,105.60 1555.00,105.99 1558.61,105.83 1562.22,105.76 1565.84,105.60 1569.45,105.99 1573.06,105.83 1576.67,105.76 1580.29,105.60 1583.90,105.99 1587.51,105.83 1591.12,105.76 1594.74,105.60 1598.35,105.99 1601.96,105.83 1605.58,105.76 1609.19,105.60 1612.80,105.99 1616.41,105.83 1620.03,105.64 1623.64,105.76 1627.25,105.68 1630.86,105.72 1634.47,105.64 1638.09,105.76 1641.70,105.68 1645.31,105.72 1648.92,105.64 1652.54,105.76 1656.15,105.68 1659.76,105.72 1663.38,105.64 1666.99,105.66 1670.60,105.62 1674.21,105.68 1677.83,105.64 1681.44,105.66 1685.05,105.62 1688.66,105.63 1692.28,105.61 1695.89,105.64" fill="none" stroke="#059669" stroke-width="1.2" stroke-opacity="0.28" stroke-linejoin="round"/>
<polyline points="113.61,334.62 117.22,334.62 120.84,334.62 124.45,334.62 128.06,334.62 131.68,334.62 135.29,334.62 138.90,334.62 142.51,328.46 146.12,328.46 149.74,325.66 153.35,291.10 156.96,291.10 160.57,291.10 164.19,291.10 167.80,279.00 171.41,279.00 175.03,279.00 178.64,271.77 182.25,266.62 185.86,266.62 189.47,249.80 193.09,239.81 196.70,239.81 200.31,227.61 203.93,202.65 207.54,202.65 211.15,202.65 214.76,202.65 218.38,173.57 221.99,173.57 225.60,173.57 229.21,173.57 232.82,173.57 236.44,168.86 240.05,168.86 243.66,168.86 247.28,168.86 250.89,168.86 254.50,168.86 258.11,168.86 261.73,168.86 265.34,168.86 268.95,168.86 272.56,168.86 276.18,168.86 279.79,168.86 283.40,168.86 287.01,154.27 290.62,140.28 294.24,129.85 297.85,126.81 301.46,117.40 305.07,117.40 308.69,117.40 312.30,117.40 315.91,115.97 319.52,115.97 323.14,115.97 326.75,115.97 330.36,115.97 333.98,115.97 337.59,115.97 341.20,115.97 344.81,112.05 348.43,112.05 352.04,112.05 355.65,112.05 359.26,112.05 362.88,112.05 366.49,112.05 370.10,112.05 373.71,112.05 377.32,112.05 380.94,112.05 384.55,112.05 388.16,112.05 391.77,112.05 395.39,112.05 399.00,111.53 402.61,110.17 406.23,110.17 409.84,109.29 413.45,109.29 417.06,109.29 420.68,109.29 424.29,109.29 427.90,108.20 431.51,108.20 435.12,108.20 438.74,108.20 442.35,108.20 445.96,108.03 449.57,108.03 453.19,107.68 456.80,107.68 460.41,107.68 464.02,107.68 467.64,107.68 471.25,107.68 474.86,107.68 478.48,107.68 482.09,107.68 485.70,107.68 489.31,107.68 492.93,107.68 496.54,107.68 500.15,107.68 503.76,107.68 507.38,107.66 510.99,107.66 514.60,107.66 518.21,107.66 521.83,107.40 525.44,107.40 529.05,107.40 532.66,107.40 536.27,107.40 539.89,107.40 543.50,107.40 547.11,107.40 550.73,107.40 554.34,107.40 557.95,107.40 561.56,107.40 565.17,107.40 568.79,107.40 572.40,106.84 576.01,106.84 579.62,106.84 583.24,106.84 586.85,106.84 590.46,106.84 594.08,106.79 597.69,106.79 601.30,106.79 604.91,106.79 608.52,106.79 612.14,106.79 615.75,106.79 619.36,106.79 622.98,106.79 626.59,106.79 630.20,106.79 633.81,106.79 637.42,106.79 641.04,106.79 644.65,105.92 648.26,105.92 651.88,105.92 655.49,105.92 659.10,105.92 662.71,105.92 666.33,105.92 669.94,105.92 673.55,105.92 677.16,105.92 680.77,105.92 684.39,105.92 688.00,105.92 691.61,105.92 695.23,105.87 698.84,105.87 702.45,105.87 706.06,105.87 709.67,105.87 713.29,105.87 716.90,105.87 720.51,105.87 724.12,105.87 727.74,105.87 731.35,105.87 734.96,105.87 738.58,105.87 742.19,105.87 745.80,105.81 749.41,105.81 753.02,105.78 756.64,105.78 760.25,105.78 763.86,105.78 767.48,105.78 771.09,105.78 774.70,105.78 778.31,105.78 781.92,105.78 785.54,105.78 789.15,105.78 792.76,105.78 796.38,105.78 799.99,105.78 803.60,105.68 807.21,105.68 810.83,105.68 814.44,105.68 818.05,105.68 821.66,105.68 825.27,105.68 828.89,105.68 832.50,105.68 836.11,105.68 839.73,105.68 843.34,105.68 846.95,105.68 850.56,105.68 854.17,105.62 857.79,105.62 861.40,105.62 865.01,105.62 868.62,105.62 872.24,105.62 875.85,105.62 879.46,105.62 883.08,105.62 886.69,105.62 890.30,105.62 893.91,105.62 897.52,105.62 901.14,105.62 904.75,105.62 908.36,105.62 911.98,105.62 915.59,105.62 919.20,105.62 922.81,105.62 926.42,105.62 930.04,105.62 933.65,105.62 937.26,105.62 940.88,105.62 944.49,105.62 948.10,105.62 951.71,105.62 955.33,105.61 958.94,105.61 962.55,105.61 966.16,105.61 969.77,105.61 973.39,105.61 977.00,105.61 980.61,105.61 984.23,105.61 987.84,105.61 991.45,105.61 995.06,105.61 998.67,105.61 1002.29,105.61 1005.90,105.61 1009.51,105.60 1013.12,105.60 1016.74,105.60 1020.35,105.60 1023.96,105.60 1027.58,105.60 1031.19,105.60 1034.80,105.60 1038.41,105.60 1042.03,105.60 1045.64,105.60 1049.25,105.60 1052.86,105.60 1056.47,105.60 1060.09,105.60 1063.70,105.60 1067.31,105.60 1070.92,105.60 1074.54,105.60 1078.15,105.60 1081.76,105.60 1085.38,105.60 1088.99,105.60 1092.60,105.60 1096.21,105.60 1099.83,105.60 1103.44,105.60 1107.05,105.60 1110.66,105.60 1114.28,105.60 1117.89,105.60 1121.50,105.60 1125.11,105.60 1128.72,105.60 1132.34,105.60 1135.95,105.60 1139.56,105.60 1143.17,105.60 1146.79,105.60 1150.40,105.60 1154.01,105.60 1157.62,105.60 1161.24,105.60 1164.85,105.60 1168.46,105.60 1172.08,105.60 1175.69,105.60 1179.30,105.60 1182.91,105.60 1186.53,105.60 1190.14,105.60 1193.75,105.60 1197.36,105.60 1200.97,105.60 1204.59,105.60 1208.20,105.60 1211.81,105.60 1215.42,105.60 1219.04,105.60 1222.65,105.60 1226.26,105.60 1229.88,105.60 1233.49,105.60 1237.10,105.60 1240.71,105.60 1244.33,105.60 1247.94,105.60 1251.55,105.60 1255.16,105.60 1258.78,105.60 1262.39,105.60 1266.00,105.60 1269.61,105.60 1273.22,105.60 1276.84,105.60 1280.45,105.60 1284.06,105.60 1287.67,105.60 1291.29,105.60 1294.90,105.60 1298.51,105.60 1302.12,105.60 1305.74,105.60 1309.35,105.60 1312.96,105.60 1316.58,105.60 1320.19,105.60 1323.80,105.60 1327.41,105.60 1331.03,105.60 1334.64,105.60 1338.25,105.60 1341.86,105.60 1345.47,105.60 1349.09,105.60 1352.70,105.60 1356.31,105.60 1359.92,105.60 1363.54,105.60 1367.15,105.60 1370.76,105.60 1374.38,105.60 1377.99,105.60 1381.60,105.60 1385.21,105.60 1388.83,105.60 1392.44,105.60 1396.05,105.60 1399.66,105.60 1403.28,105.60 1406.89,105.60 1410.50,105.60 1414.11,105.60 1417.72,105.60 1421.34,105.60 1424.95,105.60 1428.56,105.60 1432.17,105.60 1435.79,105.60 1439.40,105.60 1443.01,105.60 1446.62,105.60 1450.24,105.60 1453.85,105.60 1457.46,105.60 1461.08,105.60 1464.69,105.60 1468.30,105.60 1471.91,105.60 1475.53,105.60 1479.14,105.60 1482.75,105.60 1486.36,105.60 1489.97,105.60 1493.59,105.60 1497.20,105.60 1500.81,105.60 1504.42,105.60 1508.04,105.60 1511.65,105.60 1515.26,105.60 1518.88,105.60 1522.49,105.60 1526.10,105.60 1529.71,105.60 1533.33,105.60 1536.94,105.60 1540.55,105.60 1544.16,105.60 1547.78,105.60 1551.39,105.60 1555.00,105.60 1558.61,105.60 1562.22,105.60 1565.84,105.60 1569.45,105.60 1573.06,105.60 1576.67,105.60 1580.29,105.60 1583.90,105.60 1587.51,105.60 1591.12,105.60 1594.74,105.60 1598.35,105.60 1601.96,105.60 1605.58,105.60 1609.19,105.60 1612.80,105.60 1616.41,105.60 1620.03,105.60 1623.64,105.60 1627.25,105.60 1630.86,105.60 1634.47,105.60 1638.09,105.60 1641.70,105.60 1645.31,105.60 1648.92,105.60 1652.54,105.60 1656.15,105.60 1659.76,105.60 1663.38,105.60 1666.99,105.60 1670.60,105.60 1674.21,105.60 1677.83,105.60 1681.44,105.60 1685.05,105.60 1688.66,105.60 1692.28,105.60 1695.89,105.60 7335.00,105.60" fill="none" stroke="#059669" stroke-width="2.5" stroke-linejoin="round" stroke-linecap="round"/>
</g>
<g data-series="hybrid-reverse">
<polyline points="113.61,334.62 117.22,329.51 120.84,319.57 124.45,305.97 128.06,286.99 131.68,275.79 135.29,285.73 138.90,280.59 142.51,294.93 146.12,264.12 149.74,240.77 153.35,244.63 156.96,236.69 160.57,244.35 164.19,260.82 167.80,266.08 171.41,272.45 175.03,227.18 178.64,280.82 182.25,258.69 185.86,243.29 189.47,231.46 193.09,208.82 196.70,262.00 200.31,231.70 203.93,261.92 207.54,214.52 211.15,223.13 214.76,237.12 218.38,209.69 221.99,215.90 225.60,230.95 229.21,198.60 232.82,212.99 236.44,207.25 240.05,227.69 243.66,202.85 247.28,206.42 250.89,204.66 254.50,210.63 258.11,245.49 261.73,199.04 265.34,202.97 268.95,185.87 272.56,196.76 276.18,198.92 279.79,209.77 283.40,173.14 287.01,184.14 290.62,213.97 294.24,213.07 297.85,210.28 301.46,200.84 305.07,147.51 308.69,139.81 312.30,123.42 315.91,128.37 319.52,124.64 323.14,124.88 326.75,133.72 330.36,127.08 333.98,126.37 337.59,130.73 341.20,124.80 344.81,127.94 348.43,129.55 352.04,133.40 355.65,130.42 359.26,120.51 362.88,128.41 366.49,136.67 370.10,133.44 373.71,122.16 377.32,143.70 380.94,120.32 384.55,129.75 388.16,125.90 391.77,133.72 395.39,136.86 399.00,121.38 402.61,117.41 406.23,111.08 409.84,116.78 413.45,110.73 417.06,110.88 420.68,111.04 424.29,112.93 427.90,111.79 431.51,115.01 435.12,113.48 438.74,114.23 442.35,110.49 445.96,109.51 449.57,107.54 453.19,107.58 456.80,107.47 460.41,107.43 464.02,106.95 467.64,106.56 471.25,106.01 474.86,106.13 478.48,106.01 482.09,106.01 485.70,105.89 489.31,105.80 492.93,105.87 496.54,105.74 500.15,105.74 503.76,197.41 507.38,165.16 510.99,202.35 514.60,184.29 518.21,174.94 521.83,213.05 525.44,240.55 529.05,200.04 532.66,191.24 536.27,165.74 539.89,159.02 543.50,202.50 547.11,201.83 550.73,141.77 554.34,123.52 557.95,132.89 561.56,124.78 565.17,122.06 568.79,133.64 572.40,124.75 576.01,120.11 579.62,123.85 583.24,118.10 586.85,118.79 590.46,115.72 594.08,110.90 597.69,118.46 601.30,110.09 604.91,110.64 608.52,110.33 612.14,110.68 615.75,111.38 619.36,111.76 622.98,110.92 626.59,111.26 630.20,111.52 633.81,110.80 637.42,107.86 641.04,118.31 644.65,109.21 648.26,110.65 651.88,110.96 655.49,109.53 659.10,108.83 662.71,108.41 666.33,110.98 669.94,109.05 673.55,110.50 677.16,109.42 680.77,107.14 684.39,109.04 688.00,106.87 691.61,108.23 695.23,107.04 698.84,108.08 702.45,107.17 706.06,107.97 709.67,107.27 713.29,107.88 716.90,107.35 720.51,107.81 724.12,106.47 727.74,106.66 731.35,106.48 734.96,106.65 738.58,106.49 742.19,106.64 745.80,106.50 749.41,106.63 753.02,106.51 756.64,106.62 760.25,106.51 763.86,106.61 767.48,105.71 771.09,106.45 774.70,105.90 778.31,106.25 781.92,105.91 785.54,106.24 789.15,105.92 792.76,106.23 796.38,105.93 799.99,106.22 803.60,105.94 807.21,106.21 810.83,105.95 814.44,106.20 818.05,105.81 821.66,105.86 825.27,105.81 828.89,105.86 832.50,105.81 836.11,105.86 839.73,105.81 843.34,105.86 846.95,105.81 850.56,105.86 854.17,105.81 857.79,105.86 861.40,105.70 865.01,105.77 868.62,105.69 872.24,105.74 875.85,105.69 879.46,105.74 883.08,105.69 886.69,105.74 890.30,105.69 893.91,105.74 897.52,105.70 901.14,105.74 904.75,105.70 908.36,105.74 911.98,105.70 915.59,105.74 919.20,105.64 922.81,105.70 926.42,105.67 930.04,105.65 933.65,105.67 937.26,105.65 940.88,105.67 944.49,105.65 948.10,105.67 951.71,105.65 955.33,105.67 958.94,105.65 962.55,105.67 966.16,105.65 969.77,105.61 973.39,105.64 977.00,105.61 980.61,105.64 984.23,105.61 987.84,105.64 991.45,105.61 995.06,105.64 998.67,105.61 1002.29,105.64 1005.90,105.61 1009.51,105.64 1013.12,105.61 1016.74,105.64 1020.35,105.62 1023.96,105.61 1027.58,105.62 1031.19,105.61 1034.80,105.62 1038.41,105.61 1042.03,105.62 1045.64,105.61 1049.25,105.62 1052.86,105.61 1056.47,105.62 1060.09,105.61 1063.70,105.62 1067.31,105.61 1070.92,105.62 1074.54,105.61 1078.15,105.61 1081.76,105.61 1085.38,105.61 1088.99,105.61 1092.60,105.61 1096.21,105.61 1099.83,105.61 1103.44,105.61 1107.05,105.61 1110.66,105.61 1114.28,105.61 1117.89,105.60 1121.50,105.61 1125.11,105.60 1128.72,105.60 1132.34,105.60 1135.95,105.60 1139.56,105.60 1143.17,105.60 1146.79,105.60 1150.40,105.60 1154.01,105.60 1157.62,105.60 1161.24,105.60 1164.85,105.60 1168.46,105.60 1172.08,105.60 1175.69,105.60 1179.30,105.60 1182.91,105.60 1186.53,105.60 1190.14,105.60 1193.75,105.60 1197.36,105.60 1200.97,105.60 1204.59,105.60 1208.20,105.60 1211.81,105.60 1215.42,105.60 1219.04,105.60 1222.65,105.60 1226.26,105.60 1229.88,105.60 1233.49,105.60 1237.10,105.60 1240.71,105.60 1244.33,105.60 1247.94,105.60 1251.55,105.60 1255.16,105.60 1258.78,105.60 1262.39,105.60 1266.00,105.60 1269.61,105.60 1273.22,105.60 1276.84,105.60 1280.45,105.60 1284.06,105.60 1287.67,105.60 1291.29,105.60 1294.90,105.60 1298.51,105.60 1302.12,105.60 1305.74,105.60 1309.35,105.60 1312.96,105.60 1316.58,105.60 1320.19,105.60 1323.80,105.60 1327.41,105.60 1331.03,105.60 1334.64,105.60 1338.25,105.60 1341.86,105.60 1345.47,105.60 1349.09,105.60 1352.70,105.60 1356.31,105.60" fill="none" stroke="#7c3aed" stroke-width="1.2" stroke-opacity="0.28" stroke-linejoin="round"/>
<polyline points="113.61,334.62 117.22,329.51 120.84,319.57 124.45,305.97 128.06,286.99 131.68,275.79 135.29,275.79 138.90,275.79 142.51,275.79 146.12,264.12 149.74,240.77 153.35,240.77 156.96,236.69 160.57,236.69 164.19,236.69 167.80,236.69 171.41,236.69 175.03,227.18 178.64,227.18 182.25,227.18 185.86,227.18 189.47,227.18 193.09,208.82 196.70,208.82 200.31,208.82 203.93,208.82 207.54,208.82 211.15,208.82 214.76,208.82 218.38,208.82 221.99,208.82 225.60,208.82 229.21,198.60 232.82,198.60 236.44,198.60 240.05,198.60 243.66,198.60 247.28,198.60 250.89,198.60 254.50,198.60 258.11,198.60 261.73,198.60 265.34,198.60 268.95,185.87 272.56,185.87 276.18,185.87 279.79,185.87 283.40,173.14 287.01,173.14 290.62,173.14 294.24,173.14 297.85,173.14 301.46,173.14 305.07,147.51 308.69,139.81 312.30,123.42 315.91,123.42 319.52,123.42 323.14,123.42 326.75,123.42 330.36,123.42 333.98,123.42 337.59,123.42 341.20,123.42 344.81,123.42 348.43,123.42 352.04,123.42 355.65,123.42 359.26,120.51 362.88,120.51 366.49,120.51 370.10,120.51 373.71,120.51 377.32,120.51 380.94,120.32 384.55,120.32 388.16,120.32 391.77,120.32 395.39,120.32 399.00,120.32 402.61,117.41 406.23,111.08 409.84,111.08 413.45,110.73 417.06,110.73 420.68,110.73 424.29,110.73 427.90,110.73 431.51,110.73 435.12,110.73 438.74,110.73 442.35,110.49 445.96,109.51 449.57,107.54 453.19,107.54 456.80,107.47 460.41,107.43 464.02,106.95 467.64,106.56 471.25,106.01 474.86,106.01 478.48,106.01 482.09,106.01 485.70,105.89 489.31,105.80 492.93,105.80 496.54,105.74 500.15,105.74 503.76,105.74 507.38,105.74 510.99,105.74 514.60,105.74 518.21,105.74 521.83,105.74 525.44,105.74 529.05,105.74 532.66,105.74 536.27,105.74 539.89,105.74 543.50,105.74 547.11,105.74 550.73,105.74 554.34,105.74 557.95,105.74 561.56,105.74 565.17,105.74 568.79,105.74 572.40,105.74 576.01,105.74 579.62,105.74 583.24,105.74 586.85,105.74 590.46,105.74 594.08,105.74 597.69,105.74 601.30,105.74 604.91,105.74 608.52,105.74 612.14,105.74 615.75,105.74 619.36,105.74 622.98,105.74 626.59,105.74 630.20,105.74 633.81,105.74 637.42,105.74 641.04,105.74 644.65,105.74 648.26,105.74 651.88,105.74 655.49,105.74 659.10,105.74 662.71,105.74 666.33,105.74 669.94,105.74 673.55,105.74 677.16,105.74 680.77,105.74 684.39,105.74 688.00,105.74 691.61,105.74 695.23,105.74 698.84,105.74 702.45,105.74 706.06,105.74 709.67,105.74 713.29,105.74 716.90,105.74 720.51,105.74 724.12,105.74 727.74,105.74 731.35,105.74 734.96,105.74 738.58,105.74 742.19,105.74 745.80,105.74 749.41,105.74 753.02,105.74 756.64,105.74 760.25,105.74 763.86,105.74 767.48,105.71 771.09,105.71 774.70,105.71 778.31,105.71 781.92,105.71 785.54,105.71 789.15,105.71 792.76,105.71 796.38,105.71 799.99,105.71 803.60,105.71 807.21,105.71 810.83,105.71 814.44,105.71 818.05,105.71 821.66,105.71 825.27,105.71 828.89,105.71 832.50,105.71 836.11,105.71 839.73,105.71 843.34,105.71 846.95,105.71 850.56,105.71 854.17,105.71 857.79,105.71 861.40,105.70 865.01,105.70 868.62,105.69 872.24,105.69 875.85,105.69 879.46,105.69 883.08,105.69 886.69,105.69 890.30,105.69 893.91,105.69 897.52,105.69 901.14,105.69 904.75,105.69 908.36,105.69 911.98,105.69 915.59,105.69 919.20,105.64 922.81,105.64 926.42,105.64 930.04,105.64 933.65,105.64 937.26,105.64 940.88,105.64 944.49,105.64 948.10,105.64 951.71,105.64 955.33,105.64 958.94,105.64 962.55,105.64 966.16,105.64 969.77,105.61 973.39,105.61 977.00,105.61 980.61,105.61 984.23,105.61 987.84,105.61 991.45,105.61 995.06,105.61 998.67,105.61 1002.29,105.61 1005.90,105.61 1009.51,105.61 1013.12,105.61 1016.74,105.61 1020.35,105.61 1023.96,105.61 1027.58,105.61 1031.19,105.61 1034.80,105.61 1038.41,105.61 1042.03,105.61 1045.64,105.61 1049.25,105.61 1052.86,105.61 1056.47,105.61 1060.09,105.61 1063.70,105.61 1067.31,105.61 1070.92,105.61 1074.54,105.61 1078.15,105.61 1081.76,105.61 1085.38,105.61 1088.99,105.61 1092.60,105.61 1096.21,105.61 1099.83,105.61 1103.44,105.61 1107.05,105.61 1110.66,105.61 1114.28,105.61 1117.89,105.60 1121.50,105.60 1125.11,105.60 1128.72,105.60 1132.34,105.60 1135.95,105.60 1139.56,105.60 1143.17,105.60 1146.79,105.60 1150.40,105.60 1154.01,105.60 1157.62,105.60 1161.24,105.60 1164.85,105.60 1168.46,105.60 1172.08,105.60 1175.69,105.60 1179.30,105.60 1182.91,105.60 1186.53,105.60 1190.14,105.60 1193.75,105.60 1197.36,105.60 1200.97,105.60 1204.59,105.60 1208.20,105.60 1211.81,105.60 1215.42,105.60 1219.04,105.60 1222.65,105.60 1226.26,105.60 1229.88,105.60 1233.49,105.60 1237.10,105.60 1240.71,105.60 1244.33,105.60 1247.94,105.60 1251.55,105.60 1255.16,105.60 1258.78,105.60 1262.39,105.60 1266.00,105.60 1269.61,105.60 1273.22,105.60 1276.84,105.60 1280.45,105.60 1284.06,105.60 1287.67,105.60 1291.29,105.60 1294.90,105.60 1298.51,105.60 1302.12,105.60 1305.74,105.60 1309.35,105.60 1312.96,105.60 1316.58,105.60 1320.19,105.60 1323.80,105.60 1327.41,105.60 1331.03,105.60 1334.64,105.60 1338.25,105.60 1341.86,105.60 1345.47,105.60 1349.09,105.60 1352.70,105.60 1356.31,105.60 7335.00,105.60" fill="none" stroke="#7c3aed" stroke-width="2.5" stroke-linejoin="round" stroke-linecap="round"/>
</g>
<g data-series="polyak-smoothed">
<polyline points="113.61,334.62 117.22,586.07 120.84,387.35 124.45,295.55 128.06,396.17 131.68,289.86 135.29,275.28 138.90,242.57 142.51,235.20 146.12,235.55 149.74,248.02 153.35,245.60 156.96,236.97 160.57,212.91 164.19,243.14 167.80,218.91 171.41,208.16 175.03,229.35 178.64,198.79 182.25,200.16 185.86,201.04 189.47,221.95 193.09,190.37 196.70,205.14 200.31,204.08 203.93,213.85 207.54,207.49 211.15,183.93 214.76,181.55 218.38,163.68 221.99,170.03 225.60,155.68 229.21,138.01 232.82,167.09 236.44,160.10 240.05,141.70 243.66,149.05 247.28,138.01 250.89,150.29 254.50,147.74 258.11,133.56 261.73,142.76 265.34,126.45 268.95,151.18 272.56,135.40 276.18,146.36 279.79,144.07 283.40,144.31 287.01,132.01 290.62,154.55 294.24,130.94 297.85,133.96 301.46,148.42 305.07,145.94 308.69,140.69 312.30,156.04 315.91,129.86 319.52,115.99 323.14,121.49 326.75,112.61 330.36,116.64 333.98,113.23 337.59,112.40 341.20,126.71 344.81,113.07 348.43,114.44 352.04,111.70 355.65,119.52 359.26,117.38 362.88,116.99 366.49,111.03 370.10,115.96 373.71,110.33 377.32,129.45 380.94,110.92 384.55,122.63 388.16,114.89 391.77,115.01 395.39,117.46 399.00,108.93 402.61,118.24 406.23,111.80 409.84,119.41 413.45,119.48 417.06,109.62 420.68,126.30 424.29,116.43 427.90,113.76 431.51,113.99 435.12,114.28 438.74,112.92 442.35,111.29 445.96,113.24 449.57,111.61 453.19,108.89 456.80,110.39 460.41,108.83 464.02,110.24 467.64,109.11 471.25,112.70 474.86,109.71 478.48,110.62 482.09,109.61 485.70,108.39 489.31,109.19 492.93,108.07 496.54,116.25 500.15,111.15 503.76,113.76 507.38,111.46 510.99,110.60 514.60,108.07 518.21,107.26 521.83,111.33 525.44,109.31 529.05,108.94 532.66,109.99 536.27,108.30 539.89,117.68 543.50,113.29 547.11,108.85 550.73,109.20 554.34,108.75 557.95,110.43 561.56,108.50 565.17,109.30 568.79,107.68 572.40,107.15 576.01,107.23 579.62,106.95 583.24,107.25 586.85,106.91 590.46,107.52 594.08,106.14 597.69,111.68 601.30,109.20 604.91,108.03 608.52,106.48 612.14,110.74 615.75,107.82 619.36,113.33 622.98,111.69 626.59,106.82 630.20,107.88 633.81,107.56 637.42,107.98 641.04,106.45 644.65,106.16 648.26,106.85 651.88,106.43 655.49,106.59 659.10,106.20 662.71,106.81 666.33,106.46 669.94,106.57 673.55,106.24 677.16,106.78 680.77,106.48 684.39,106.55 688.00,105.93 691.61,107.03 695.23,106.36 698.84,106.76 702.45,106.05 706.06,107.69 709.67,106.65 713.29,107.13 716.90,106.09 720.51,107.62 724.12,106.61 727.74,107.19 731.35,106.13 734.96,107.57 738.58,107.02 742.19,106.42 745.80,105.97 749.41,106.28 753.02,106.11 756.64,105.74 760.25,106.48 763.86,105.95 767.48,106.31 771.09,105.98 774.70,106.13 778.31,105.89 781.92,106.30 785.54,105.97 789.15,106.13 792.76,105.89 796.38,106.30 799.99,105.97 803.60,106.14 807.21,106.00 810.83,105.75 814.44,106.02 818.05,105.76 821.66,105.94 825.27,105.80 828.89,105.87 832.50,105.72 836.11,105.94 839.73,105.80 843.34,105.87 846.95,105.72 850.56,105.94 854.17,105.80 857.79,105.87 861.40,105.73 865.01,105.94 868.62,105.80 872.24,105.88 875.85,105.73 879.46,105.93 883.08,105.85 886.69,105.65 890.30,105.87 893.91,105.74 897.52,105.73 901.14,105.72 904.75,105.73 908.36,105.69 911.98,105.73 915.59,105.72 919.20,105.73 922.81,105.69 926.42,105.73 930.04,105.72 933.65,105.73 937.26,105.68 940.88,105.66 944.49,105.70 948.10,105.67 951.71,105.66 955.33,105.64 958.94,105.66 962.55,105.66 966.16,105.66 969.77,105.64 973.39,105.66 977.00,105.66 980.61,105.66 984.23,105.64 987.84,105.66 991.45,105.66 995.06,105.66 998.67,105.64 1002.29,105.66 1005.90,105.65 1009.51,105.61 1013.12,105.63 1016.74,105.64 1020.35,105.61 1023.96,105.64 1027.58,105.62 1031.19,105.63 1034.80,105.61 1038.41,105.64 1042.03,105.62 1045.64,105.63 1049.25,105.61 1052.86,105.64 1056.47,105.62 1060.09,105.61 1063.70,105.62 1067.31,105.61 1070.92,105.61 1074.54,105.61 1078.15,105.61 1081.76,105.61 1085.38,105.61 1088.99,105.61 1092.60,105.61 1096.21,105.61 1099.83,105.61 1103.44,105.61 1107.05,105.61 1110.66,105.61 1114.28,105.61 1117.89,105.61 1121.50,105.61 1125.11,105.61 1128.72,105.61 1132.34,105.61 1135.95,105.61 1139.56,105.60 1143.17,105.60 1146.79,105.60 1150.40,105.60 1154.01,105.60 1157.62,105.60 1161.24,105.60 1164.85,105.60 1168.46,105.60 1172.08,105.60 1175.69,105.60 1179.30,105.60 1182.91,105.60 1186.53,105.60 1190.14,105.60 1193.75,105.60 1197.36,105.60 1200.97,105.60 1204.59,105.60 1208.20,105.60 1211.81,105.60 1215.42,105.60 1219.04,105.60 1222.65,105.60 1226.26,105.60 1229.88,105.60 1233.49,105.60 1237.10,105.60 1240.71,105.60 1244.33,105.60 1247.94,105.60 1251.55,105.60 1255.16,105.60 1258.78,105.60 1262.39,105.60 1266.00,105.60 1269.61,105.60 1273.22,105.60 1276.84,105.60 1280.45,105.60 1284.06,105.60 1287.67,105.60 1291.29,105.60 1294.90,105.60 1298.51,105.60 1302.12,105.60 1305.74,105.60 1309.35,105.60 1312.96,105.60 1316.58,105.60 1320.19,105.60 1323.80,105.60 1327.41,105.60 1331.03,105.60 1334.64,105.60 1338.25,105.60 1341.86,105.60 1345.47,105.60 1349.09,105.60 1352.70,105.60 1356.31,105.60 1359.92,105.60 1363.54,105.60 1367.15,105.60 1370.76,105.60 1374.38,105.60 1377.99,105.60 1381.60,105.60 1385.21,105.60 1388.83,105.60 1392.44,105.60 1396.05,105.60 1399.66,105.60 1403.28,105.60 1406.89,105.60 1410.50,105.60 1414.11,105.60 1417.72,105.60 1421.34,105.60 1424.95,105.60 1428.56,105.60 1432.17,105.60 1435.79,105.60 1439.40,105.60 1443.01,105.60 1446.62,105.60 1450.24,105.60 1453.85,105.60 1457.46,105.60 1461.08,105.60 1464.69,105.60 1468.30,105.60 1471.91,105.60 1475.53,105.60 1479.14,105.60 1482.75,105.60 1486.36,105.60 1489.97,105.60 1493.59,105.60" fill="none" stroke="#d97706" stroke-width="1.2" stroke-opacity="0.28" stroke-linejoin="round"/>
<polyline points="113.61,334.62 117.22,334.62 120.84,334.62 124.45,295.55 128.06,295.55 131.68,289.86 135.29,275.28 138.90,242.57 142.51,235.20 146.12,235.20 149.74,235.20 153.35,235.20 156.96,235.20 160.57,212.91 164.19,212.91 167.80,212.91 171.41,208.16 175.03,208.16 178.64,198.79 182.25,198.79 185.86,198.79 189.47,198.79 193.09,190.37 196.70,190.37 200.31,190.37 203.93,190.37 207.54,190.37 211.15,183.93 214.76,181.55 218.38,163.68 221.99,163.68 225.60,155.68 229.21,138.01 232.82,138.01 236.44,138.01 240.05,138.01 243.66,138.01 247.28,138.01 250.89,138.01 254.50,138.01 258.11,133.56 261.73,133.56 265.34,126.45 268.95,126.45 272.56,126.45 276.18,126.45 279.79,126.45 283.40,126.45 287.01,126.45 290.62,126.45 294.24,126.45 297.85,126.45 301.46,126.45 305.07,126.45 308.69,126.45 312.30,126.45 315.91,126.45 319.52,115.99 323.14,115.99 326.75,112.61 330.36,112.61 333.98,112.61 337.59,112.40 341.20,112.40 344.81,112.40 348.43,112.40 352.04,111.70 355.65,111.70 359.26,111.70 362.88,111.70 366.49,111.03 370.10,111.03 373.71,110.33 377.32,110.33 380.94,110.33 384.55,110.33 388.16,110.33 391.77,110.33 395.39,110.33 399.00,108.93 402.61,108.93 406.23,108.93 409.84,108.93 413.45,108.93 417.06,108.93 420.68,108.93 424.29,108.93 427.90,108.93 431.51,108.93 435.12,108.93 438.74,108.93 442.35,108.93 445.96,108.93 449.57,108.93 453.19,108.89 456.80,108.89 460.41,108.83 464.02,108.83 467.64,108.83 471.25,108.83 474.86,108.83 478.48,108.83 482.09,108.83 485.70,108.39 489.31,108.39 492.93,108.07 496.54,108.07 500.15,108.07 503.76,108.07 507.38,108.07 510.99,108.07 514.60,108.07 518.21,107.26 521.83,107.26 525.44,107.26 529.05,107.26 532.66,107.26 536.27,107.26 539.89,107.26 543.50,107.26 547.11,107.26 550.73,107.26 554.34,107.26 557.95,107.26 561.56,107.26 565.17,107.26 568.79,107.26 572.40,107.15 576.01,107.15 579.62,106.95 583.24,106.95 586.85,106.91 590.46,106.91 594.08,106.14 597.69,106.14 601.30,106.14 604.91,106.14 608.52,106.14 612.14,106.14 615.75,106.14 619.36,106.14 622.98,106.14 626.59,106.14 630.20,106.14 633.81,106.14 637.42,106.14 641.04,106.14 644.65,106.14 648.26,106.14 651.88,106.14 655.49,106.14 659.10,106.14 662.71,106.14 666.33,106.14 669.94,106.14 673.55,106.14 677.16,106.14 680.77,106.14 684.39,106.14 688.00,105.93 691.61,105.93 695.23,105.93 698.84,105.93 702.45,105.93 706.06,105.93 709.67,105.93 713.29,105.93 716.90,105.93 720.51,105.93 724.12,105.93 727.74,105.93 731.35,105.93 734.96,105.93 738.58,105.93 742.19,105.93 745.80,105.93 749.41,105.93 753.02,105.93 756.64,105.74 760.25,105.74 763.86,105.74 767.48,105.74 771.09,105.74 774.70,105.74 778.31,105.74 781.92,105.74 785.54,105.74 789.15,105.74 792.76,105.74 796.38,105.74 799.99,105.74 803.60,105.74 807.21,105.74 810.83,105.74 814.44,105.74 818.05,105.74 821.66,105.74 825.27,105.74 828.89,105.74 832.50,105.72 836.11,105.72 839.73,105.72 843.34,105.72 846.95,105.72 850.56,105.72 854.17,105.72 857.79,105.72 861.40,105.72 865.01,105.72 868.62,105.72 872.24,105.72 875.85,105.72 879.46,105.72 883.08,105.72 886.69,105.65 890.30,105.65 893.91,105.65 897.52,105.65 901.14,105.65 904.75,105.65 908.36,105.65 911.98,105.65 915.59,105.65 919.20,105.65 922.81,105.65 926.42,105.65 930.04,105.65 933.65,105.65 937.26,105.65 940.88,105.65 944.49,105.65 948.10,105.65 951.71,105.65 955.33,105.64 958.94,105.64 962.55,105.64 966.16,105.64 969.77,105.64 973.39,105.64 977.00,105.64 980.61,105.64 984.23,105.64 987.84,105.64 991.45,105.64 995.06,105.64 998.67,105.64 1002.29,105.64 1005.90,105.64 1009.51,105.61 1013.12,105.61 1016.74,105.61 1020.35,105.61 1023.96,105.61 1027.58,105.61 1031.19,105.61 1034.80,105.61 1038.41,105.61 1042.03,105.61 1045.64,105.61 1049.25,105.61 1052.86,105.61 1056.47,105.61 1060.09,105.61 1063.70,105.61 1067.31,105.61 1070.92,105.61 1074.54,105.61 1078.15,105.61 1081.76,105.61 1085.38,105.61 1088.99,105.61 1092.60,105.61 1096.21,105.61 1099.83,105.61 1103.44,105.61 1107.05,105.61 1110.66,105.61 1114.28,105.61 1117.89,105.61 1121.50,105.61 1125.11,105.61 1128.72,105.61 1132.34,105.61 1135.95,105.61 1139.56,105.60 1143.17,105.60 1146.79,105.60 1150.40,105.60 1154.01,105.60 1157.62,105.60 1161.24,105.60 1164.85,105.60 1168.46,105.60 1172.08,105.60 1175.69,105.60 1179.30,105.60 1182.91,105.60 1186.53,105.60 1190.14,105.60 1193.75,105.60 1197.36,105.60 1200.97,105.60 1204.59,105.60 1208.20,105.60 1211.81,105.60 1215.42,105.60 1219.04,105.60 1222.65,105.60 1226.26,105.60 1229.88,105.60 1233.49,105.60 1237.10,105.60 1240.71,105.60 1244.33,105.60 1247.94,105.60 1251.55,105.60 1255.16,105.60 1258.78,105.60 1262.39,105.60 1266.00,105.60 1269.61,105.60 1273.22,105.60 1276.84,105.60 1280.45,105.60 1284.06,105.60 1287.67,105.60 1291.29,105.60 1294.90,105.60 1298.51,105.60 1302.12,105.60 1305.74,105.60 1309.35,105.60 1312.96,105.60 1316.58,105.60 1320.19,105.60 1323.80,105.60 1327.41,105.60 1331.03,105.60 1334.64,105.60 1338.25,105.60 1341.86,105.60 1345.47,105.60 1349.09,105.60 1352.70,105.60 1356.31,105.60 1359.92,105.60 1363.54,105.60 1367.15,105.60 1370.76,105.60 1374.38,105.60 1377.99,105.60 1381.60,105.60 1385.21,105.60 1388.83,105.60 1392.44,105.60 1396.05,105.60 1399.66,105.60 1403.28,105.60 1406.89,105.60 1410.50,105.60 1414.11,105.60 1417.72,105.60 1421.34,105.60 1424.95,105.60 1428.56,105.60 1432.17,105.60 1435.79,105.60 1439.40,105.60 1443.01,105.60 1446.62,105.60 1450.24,105.60 1453.85,105.60 1457.46,105.60 1461.08,105.60 1464.69,105.60 1468.30,105.60 1471.91,105.60 1475.53,105.60 1479.14,105.60 1482.75,105.60 1486.36,105.60 1489.97,105.60 1493.59,105.60 7335.00,105.60" fill="none" stroke="#d97706" stroke-width="2.5" stroke-linejoin="round" stroke-linecap="round"/>
</g>
<g data-series="polyak-smoothed-dynamic">
<polyline points="113.61,334.62 117.22,586.07 120.84,399.04 124.45,349.62 128.06,411.60 131.68,341.97 135.29,275.50 138.90,248.36 142.51,275.08 146.12,227.75 149.74,264.08 153.35,231.24 156.96,252.85 160.57,239.50 164.19,263.99 167.80,230.51 171.41,243.60 175.03,244.61 178.64,222.67 182.25,212.05 185.86,199.48 189.47,174.41 193.09,190.48 196.70,191.08 200.31,185.62 203.93,172.07 207.54,169.75 211.15,155.89 214.76,210.53 218.38,176.79 221.99,174.30 225.60,169.75 229.21,177.96 232.82,168.63 236.44,160.51 240.05,154.05 243.66,163.15 247.28,155.27 250.89,170.45 254.50,148.50 258.11,150.12 261.73,148.08 265.34,153.39 268.95,153.25 272.56,153.69 276.18,143.84 279.79,175.54 283.40,154.69 287.01,130.92 290.62,153.36 294.24,167.23 297.85,167.97 301.46,138.79 305.07,140.62 308.69,145.61 312.30,144.58 315.91,131.56 319.52,129.21 323.14,137.92 326.75,142.64 330.36,149.25 333.98,143.66 337.59,143.31 341.20,165.16 344.81,149.80 348.43,145.99 352.04,154.37 355.65,150.60 359.26,139.32 362.88,137.07 366.49,132.85 370.10,126.58 373.71,118.69 377.32,119.07 380.94,117.72 384.55,113.32 388.16,118.33 391.77,114.42 395.39,122.59 399.00,112.39 402.61,126.05 406.23,117.37 409.84,114.38 413.45,116.30 417.06,113.72 420.68,123.15 424.29,116.90 427.90,118.59 431.51,117.96 435.12,119.89 438.74,117.56 442.35,119.98 445.96,120.78 449.57,109.90 453.19,108.84 456.80,111.15 460.41,108.97 464.02,107.82 467.64,107.86 471.25,108.74 474.86,111.24 478.48,106.76 482.09,111.11 485.70,108.78 489.31,109.47 492.93,107.39 496.54,113.72 500.15,109.59 503.76,112.06 507.38,111.42 510.99,111.34 514.60,110.82 518.21,110.02 521.83,110.45 525.44,110.37 529.05,109.10 532.66,108.17 536.27,108.05 539.89,108.54 543.50,107.41 547.11,109.09 550.73,108.63 554.34,107.75 557.95,107.25 561.56,108.74 565.17,107.74 568.79,109.93 572.40,109.41 576.01,107.50 579.62,107.68 583.24,107.68 586.85,107.52 590.46,107.52 594.08,107.66 597.69,107.66 601.30,107.54 604.91,107.54 608.52,107.65 612.14,107.65 615.75,105.89 619.36,106.86 622.98,106.34 626.59,106.64 630.20,106.68 633.81,106.11 637.42,107.25 641.04,106.64 644.65,106.86 648.26,106.52 651.88,105.91 655.49,106.06 659.10,107.08 662.71,106.37 666.33,106.11 669.94,106.54 673.55,106.21 677.16,105.98 680.77,106.04 684.39,106.17 688.00,106.11 691.61,105.98 695.23,106.04 698.84,106.16 702.45,106.11 706.06,105.99 709.67,105.99 713.29,105.77 716.90,105.76 720.51,105.85 724.12,105.79 727.74,105.79 731.35,105.88 734.96,105.88 738.58,105.79 742.19,105.79 745.80,105.88 749.41,105.88 753.02,105.79 756.64,105.79 760.25,105.88 763.86,105.88 767.48,105.70 771.09,105.74 774.70,105.73 778.31,105.69 781.92,105.70 785.54,105.74 789.15,105.73 792.76,105.69 796.38,105.70 799.99,105.74 803.60,105.73 807.21,105.69 810.83,105.70 814.44,105.74 818.05,105.73 821.66,105.70 825.27,105.70 828.89,105.64 832.50,105.63 836.11,105.64 839.73,105.64 843.34,105.68 846.95,105.68 850.56,105.64 854.17,105.64 857.79,105.68 861.40,105.68 865.01,105.64 868.62,105.64 872.24,105.68 875.85,105.68 879.46,105.64 883.08,105.64 886.69,105.63 890.30,105.62 893.91,105.63 897.52,105.63 901.14,105.62 904.75,105.62 908.36,105.63 911.98,105.63 915.59,105.62 919.20,105.62 922.81,105.63 926.42,105.63 930.04,105.62 933.65,105.62 937.26,105.63 940.88,105.63 944.49,105.60 948.10,105.62 951.71,105.62 955.33,105.61 958.94,105.61 962.55,105.62 966.16,105.62 969.77,105.61 973.39,105.61 977.00,105.62 980.61,105.62 984.23,105.61 987.84,105.61 991.45,105.62 995.06,105.62 998.67,105.61 1002.29,105.61 1005.90,105.61 1009.51,105.61 1013.12,105.61 1016.74,105.61 1020.35,105.61 1023.96,105.61 1027.58,105.61 1031.19,105.61 1034.80,105.61 1038.41,105.60 1042.03,105.60 1045.64,105.60 1049.25,105.60 1052.86,105.60 1056.47,105.60 1060.09,105.60 1063.70,105.60 1067.31,105.60 1070.92,105.60 1074.54,105.60 1078.15,105.60 1081.76,105.60 1085.38,105.60 1088.99,105.60 1092.60,105.60 1096.21,105.60 1099.83,105.60 1103.44,105.60 1107.05,105.60 1110.66,105.60 1114.28,105.60 1117.89,105.60 1121.50,105.60 1125.11,105.60 1128.72,105.60 1132.34,105.60 1135.95,105.60 1139.56,105.60 1143.17,105.60 1146.79,105.60 1150.40,105.60 1154.01,105.60 1157.62,105.60 1161.24,105.60 1164.85,105.60 1168.46,105.60 1172.08,105.60 1175.69,105.60 1179.30,105.60 1182.91,105.60 1186.53,105.60 1190.14,105.60 1193.75,105.60 1197.36,105.60 1200.97,105.60 1204.59,105.60 1208.20,105.60 1211.81,105.60 1215.42,105.60 1219.04,105.60 1222.65,105.60 1226.26,105.60 1229.88,105.60 1233.49,105.60 1237.10,105.60 1240.71,105.60 1244.33,105.60 1247.94,105.60 1251.55,105.60 1255.16,105.60 1258.78,105.60 1262.39,105.60 1266.00,105.60 1269.61,105.60 1273.22,105.60 1276.84,105.60 1280.45,105.60 1284.06,105.60 1287.67,105.60 1291.29,105.60 1294.90,105.60 1298.51,105.60 1302.12,105.60 1305.74,105.60 1309.35,105.60 1312.96,105.60 1316.58,105.60 1320.19,105.60 1323.80,105.60 1327.41,105.60 1331.03,105.60 1334.64,105.60 1338.25,105.60 1341.86,105.60 1345.47,105.60 1349.09,105.60 1352.70,105.60 1356.31,105.60 1359.92,105.60 1363.54,105.60" fill="none" stroke="#0891b2" stroke-width="1.2" stroke-opacity="0.28" stroke-linejoin="round"/>
<polyline points="113.61,334.62 117.22,334.62 120.84,334.62 124.45,334.62 128.06,334.62 131.68,334.62 135.29,275.50 138.90,248.36 142.51,248.36 146.12,227.75 149.74,227.75 153.35,227.75 156.96,227.75 160.57,227.75 164.19,227.75 167.80,227.75 171.41,227.75 175.03,227.75 178.64,222.67 182.25,212.05 185.86,199.48 189.47,174.41 193.09,174.41 196.70,174.41 200.31,174.41 203.93,172.07 207.54,169.75 211.15,155.89 214.76,155.89 218.38,155.89 221.99,155.89 225.60,155.89 229.21,155.89 232.82,155.89 236.44,155.89 240.05,154.05 243.66,154.05 247.28,154.05 250.89,154.05 254.50,148.50 258.11,148.50 261.73,148.08 265.34,148.08 268.95,148.08 272.56,148.08 276.18,143.84 279.79,143.84 283.40,143.84 287.01,130.92 290.62,130.92 294.24,130.92 297.85,130.92 301.46,130.92 305.07,130.92 308.69,130.92 312.30,130.92 315.91,130.92 319.52,129.21 323.14,129.21 326.75,129.21 330.36,129.21 333.98,129.21 337.59,129.21 341.20,129.21 344.81,129.21 348.43,129.21 352.04,129.21 355.65,129.21 359.26,129.21 362.88,129.21 366.49,129.21 370.10,126.58 373.71,118.69 377.32,118.69 380.94,117.72 384.55,113.32 388.16,113.32 391.77,113.32 395.39,113.32 399.00,112.39 402.61,112.39 406.23,112.39 409.84,112.39 413.45,112.39 417.06,112.39 420.68,112.39 424.29,112.39 427.90,112.39 431.51,112.39 435.12,112.39 438.74,112.39 442.35,112.39 445.96,112.39 449.57,109.90 453.19,108.84 456.80,108.84 460.41,108.84 464.02,107.82 467.64,107.82 471.25,107.82 474.86,107.82 478.48,106.76 482.09,106.76 485.70,106.76 489.31,106.76 492.93,106.76 496.54,106.76 500.15,106.76 503.76,106.76 507.38,106.76 510.99,106.76 514.60,106.76 518.21,106.76 521.83,106.76 525.44,106.76 529.05,106.76 532.66,106.76 536.27,106.76 539.89,106.76 543.50,106.76 547.11,106.76 550.73,106.76 554.34,106.76 557.95,106.76 561.56,106.76 565.17,106.76 568.79,106.76 572.40,106.76 576.01,106.76 579.62,106.76 583.24,106.76 586.85,106.76 590.46,106.76 594.08,106.76 597.69,106.76 601.30,106.76 604.91,106.76 608.52,106.76 612.14,106.76 615.75,105.89 619.36,105.89 622.98,105.89 626.59,105.89 630.20,105.89 633.81,105.89 637.42,105.89 641.04,105.89 644.65,105.89 648.26,105.89 651.88,105.89 655.49,105.89 659.10,105.89 662.71,105.89 666.33,105.89 669.94,105.89 673.55,105.89 677.16,105.89 680.77,105.89 684.39,105.89 688.00,105.89 691.61,105.89 695.23,105.89 698.84,105.89 702.45,105.89 706.06,105.89 709.67,105.89 713.29,105.77 716.90,105.76 720.51,105.76 724.12,105.76 727.74,105.76 731.35,105.76 734.96,105.76 738.58,105.76 742.19,105.76 745.80,105.76 749.41,105.76 753.02,105.76 756.64,105.76 760.25,105.76 763.86,105.76 767.48,105.70 771.09,105.70 774.70,105.70 778.31,105.69 781.92,105.69 785.54,105.69 789.15,105.69 792.76,105.69 796.38,105.69 799.99,105.69 803.60,105.69 807.21,105.69 810.83,105.69 814.44,105.69 818.05,105.69 821.66,105.69 825.27,105.69 828.89,105.64 832.50,105.63 836.11,105.63 839.73,105.63 843.34,105.63 846.95,105.63 850.56,105.63 854.17,105.63 857.79,105.63 861.40,105.63 865.01,105.63 868.62,105.63 872.24,105.63 875.85,105.63 879.46,105.63 883.08,105.63 886.69,105.63 890.30,105.62 893.91,105.62 897.52,105.62 901.14,105.62 904.75,105.62 908.36,105.62 911.98,105.62 915.59,105.62 919.20,105.62 922.81,105.62 926.42,105.62 930.04,105.62 933.65,105.62 937.26,105.62 940.88,105.62 944.49,105.60 948.10,105.60 951.71,105.60 955.33,105.60 958.94,105.60 962.55,105.60 966.16,105.60 969.77,105.60 973.39,105.60 977.00,105.60 980.61,105.60 984.23,105.60 987.84,105.60 991.45,105.60 995.06,105.60 998.67,105.60 1002.29,105.60 1005.90,105.60 1009.51,105.60 1013.12,105.60 1016.74,105.60 1020.35,105.60 1023.96,105.60 1027.58,105.60 1031.19,105.60 1034.80,105.60 1038.41,105.60 1042.03,105.60 1045.64,105.60 1049.25,105.60 1052.86,105.60 1056.47,105.60 1060.09,105.60 1063.70,105.60 1067.31,105.60 1070.92,105.60 1074.54,105.60 1078.15,105.60 1081.76,105.60 1085.38,105.60 1088.99,105.60 1092.60,105.60 1096.21,105.60 1099.83,105.60 1103.44,105.60 1107.05,105.60 1110.66,105.60 1114.28,105.60 1117.89,105.60 1121.50,105.60 1125.11,105.60 1128.72,105.60 1132.34,105.60 1135.95,105.60 1139.56,105.60 1143.17,105.60 1146.79,105.60 1150.40,105.60 1154.01,105.60 1157.62,105.60 1161.24,105.60 1164.85,105.60 1168.46,105.60 1172.08,105.60 1175.69,105.60 1179.30,105.60 1182.91,105.60 1186.53,105.60 1190.14,105.60 1193.75,105.60 1197.36,105.60 1200.97,105.60 1204.59,105.60 1208.20,105.60 1211.81,105.60 1215.42,105.60 1219.04,105.60 1222.65,105.60 1226.26,105.60 1229.88,105.60 1233.49,105.60 1237.10,105.60 1240.71,105.60 1244.33,105.60 1247.94,105.60 1251.55,105.60 1255.16,105.60 1258.78,105.60 1262.39,105.60 1266.00,105.60 1269.61,105.60 1273.22,105.60 1276.84,105.60 1280.45,105.60 1284.06,105.60 1287.67,105.60 1291.29,105.60 1294.90,105.60 1298.51,105.60 1302.12,105.60 1305.74,105.60 1309.35,105.60 1312.96,105.60 1316.58,105.60 1320.19,105.60 1323.80,105.60 1327.41,105.60 1331.03,105.60 1334.64,105.60 1338.25,105.60 1341.86,105.60 1345.47,105.60 1349.09,105.60 1352.70,105.60 1356.31,105.60 1359.92,105.60 1363.54,105.60 7335.00,105.60" fill="none" stroke="#0891b2" stroke-width="2.5" stroke-linejoin="round" stroke-linecap="round"/>
</g>
<rect x="6810.0" y="453.0" width="520" height="157" rx="6" fill="#ffffff" fill-opacity="0.9"/>
<g data-legend="polyak">
<line x1="6820.0" y1="470.0" x2="6850.0" y2="470.0" stroke="#2563eb" stroke-width="3"/>
<text class="legend" x="6859.0" y="475.0">Polyak (338 evals, best 14370.5)</text>
</g>
<g data-legend="helsgaun">
<line x1="6820.0" y1="495.0" x2="6850.0" y2="495.0" stroke="#dc2626" stroke-width="3"/>
<text class="legend" x="6859.0" y="500.0">Helsgaun (107 evals, best 14369.8)</text>
</g>
<g data-legend="hybrid">
<line x1="6820.0" y1="520.0" x2="6850.0" y2="520.0" stroke="#059669" stroke-width="3"/>
<text class="legend" x="6859.0" y="525.0">Hybrid P→H (439 evals, best 14370.5)</text>
</g>
<g data-legend="hybrid-reverse">
<line x1="6820.0" y1="545.0" x2="6850.0" y2="545.0" stroke="#7c3aed" stroke-width="3"/>
<text class="legend" x="6859.0" y="550.0">Hybrid H→P (345 evals, best 14370.5)</text>
</g>
<g data-legend="polyak-smoothed">
<line x1="6820.0" y1="570.0" x2="6850.0" y2="570.0" stroke="#d97706" stroke-width="3"/>
<text class="legend" x="6859.0" y="575.0">Polyak + H direction 0.7/0.3 (383 evals, best 14370.5)</text>
</g>
<g data-legend="polyak-smoothed-dynamic">
<line x1="6820.0" y1="595.0" x2="6850.0" y2="595.0" stroke="#0891b2" stroke-width="3"/>
<text class="legend" x="6859.0" y="600.0">Polyak + H direction dynamic (347 evals, best 14370.5)</text>
</g>
</svg>
