<?xml version="1.0" encoding="UTF-8"?>
<svg xmlns="http://www.w3.org/2000/svg" width="7380" height="720" viewBox="0 0 7380 720">
<title>swiss42.tsp root potential ascent</title>
<desc>Configured root-ascent lower-bound trajectories; the dashed line is the Concorde optimum.</desc>
<rect width="100%" height="100%" fill="#ffffff"/>
<style>text{font-family:-apple-system,BlinkMacSystemFont,"Segoe UI",Arial,sans-serif;fill:#172033}.tick{font-size:13px;fill:#596579}.axis{stroke:#334155;stroke-width:1.4}.grid{stroke:#dbe2ea;stroke-width:1}.legend{font-size:14px}.title{font-size:23px;font-weight:600}.subtitle{font-size:13px;fill:#64748b}</style>
<text class="title" x="800.0" y="33" text-anchor="middle">swiss42.tsp — root potential ascent</text>
<text class="subtitle" x="800.0" y="55" text-anchor="middle">Per-phase cap: 2000; 400 iterations per 1600px; thin = raw bound, bold = best-so-far</text>
<line class="grid" x1="110.00" y1="75.0" x2="110.00" y2="615.0"/>
<text class="tick" x="110.00" y="640.0" text-anchor="middle">0</text>
<line class="grid" x1="1555.00" y1="75.0" x2="1555.00" y2="615.0"/>
<text class="tick" x="1555.00" y="640.0" text-anchor="middle">400</text>
<line class="grid" x1="3000.00" y1="75.0" x2="3000.00" y2="615.0"/>
<text class="tick" x="3000.00" y="640.0" text-anchor="middle">800</text>
<line class="grid" x1="4445.00" y1="75.0" x2="4445.00" y2="615.0"/>
<text class="tick" x="4445.00" y="640.0" text-anchor="middle">1200</text>
<line class="grid" x1="5890.00" y1="75.0" x2="5890.00" y2="615.0"/>
<text class="tick" x="5890.00" y="640.0" text-anchor="middle">1600</text>
<line class="grid" x1="7335.00" y1="75.0" x2="7335.00" y2="615.0"/>
<text class="tick" x="7335.00" y="640.0" text-anchor="middle">2000</text>
<line class="grid" x1="110.0" y1="615.00" x2="7335.0" y2="615.00"/>
<text class="tick" x="96.0" y="619.00" text-anchor="end">976.942</text>
<line class="grid" x1="110.0" y1="507.00" x2="7335.0" y2="507.00"/>
<text class="tick" x="96.0" y="511.00" text-anchor="end">1039.51</text>
<line class="grid" x1="110.0" y1="399.00" x2="7335.0" y2="399.00"/>
<text class="tick" x="96.0" y="403.00" text-anchor="end">1102.07</text>
<line class="grid" x1="110.0" y1="291.00" x2="7335.0" y2="291.00"/>
<text class="tick" x="96.0" y="295.00" text-anchor="end">1164.63</text>
<line class="grid" x1="110.0" y1="183.00" x2="7335.0" y2="183.00"/>
<text class="tick" x="96.0" y="187.00" text-anchor="end">1227.19</text>
<line class="grid" x1="110.0" y1="75.00" x2="7335.0" y2="75.00"/>
<text class="tick" x="96.0" y="79.00" text-anchor="end">1289.76</text>
<line class="axis" x1="110.0" y1="615.0" x2="7335.0" y2="615.0"/>
<line class="axis" x1="110.0" y1="75.0" x2="110.0" y2="615.0"/>
<text x="3722.50" y="686" text-anchor="middle">Iteration</text>
<text x="27" y="345.00" text-anchor="middle" transform="rotate(-90 27 345.00)">Root lower bound</text>
<g data-series="concorde">
<line x1="110.0" y1="103.93" x2="7335.0" y2="103.93" stroke="#111827" stroke-width="1.8" stroke-dasharray="8 6"/>
<text class="tick" x="7331.0" y="95.93" text-anchor="end">Concorde optimum: 1273</text>
</g>
<g data-series="polyak">
<polyline points="113.61,390.49 117.22,586.07 120.84,435.51 124.45,309.01 128.06,262.37 131.68,216.42 135.29,187.99 138.90,163.85 142.51,143.60 146.12,132.06 149.74,128.48 153.35,138.49 156.96,122.55 160.57,125.58 164.19,119.96 167.80,119.81 171.41,118.70 175.03,119.00 178.64,126.25 182.25,127.97 185.86,130.32 189.47,130.58 193.09,127.95 196.70,122.48 200.31,122.46 203.93,121.13 207.54,122.13 211.15,129.04 214.76,135.94 218.38,142.85 221.99,111.24 225.60,107.83 229.21,109.72 232.82,109.26 236.44,109.22 240.05,109.08 243.66,109.13 247.28,108.33 250.89,109.11 254.50,109.11 258.11,109.11 261.73,109.11 265.34,109.11 268.95,109.11 272.56,109.11 276.18,107.34 279.79,106.63 283.40,106.77 287.01,106.82 290.62,106.80 294.24,106.81 297.85,106.80 301.46,106.81 305.07,106.81 308.69,106.81 312.30,106.81 315.91,106.81 319.52,106.81 323.14,106.81 326.75,106.81 330.36,105.95 333.98,106.30 337.59,106.04 341.20,106.23 344.81,106.08 348.43,106.20 352.04,106.11 355.65,106.17 359.26,106.13 362.88,106.16 366.49,106.14 370.10,106.16 373.71,106.14 377.32,106.15 380.94,105.85 384.55,106.04 388.16,105.86 391.77,105.90 395.39,105.87 399.00,105.90 402.61,105.87 406.23,105.90 409.84,105.88 413.45,105.89 417.06,105.88 420.68,105.89 424.29,105.88 427.90,105.89 431.51,105.72 435.12,105.81 438.74,105.73 442.35,105.80 445.96,105.73 449.57,105.80 453.19,105.74 456.80,105.80 460.41,105.74 464.02,105.79 467.64,105.74 471.25,105.79" fill="none" stroke="#2563eb" stroke-width="1.2" stroke-opacity="0.28" stroke-linejoin="round"/>
<polyline points="113.61,390.49 117.22,390.49 120.84,390.49 124.45,309.01 128.06,262.37 131.68,216.42 135.29,187.99 138.90,163.85 142.51,143.60 146.12,132.06 149.74,128.48 153.35,128.48 156.96,122.55 160.57,122.55 164.19,119.96 167.80,119.81 171.41,118.70 175.03,118.70 178.64,118.70 182.25,118.70 185.86,118.70 189.47,118.70 193.09,118.70 196.70,118.70 200.31,118.70 203.93,118.70 207.54,118.70 211.15,118.70 214.76,118.70 218.38,118.70 221.99,111.24 225.60,107.83 229.21,107.83 232.82,107.83 236.44,107.83 240.05,107.83 243.66,107.83 247.28,107.83 250.89,107.83 254.50,107.83 258.11,107.83 261.73,107.83 265.34,107.83 268.95,107.83 272.56,107.83 276.18,107.34 279.79,106.63 283.40,106.63 287.01,106.63 290.62,106.63 294.24,106.63 297.85,106.63 301.46,106.63 305.07,106.63 308.69,106.63 312.30,106.63 315.91,106.63 319.52,106.63 323.14,106.63 326.75,106.63 330.36,105.95 333.98,105.95 337.59,105.95 341.20,105.95 344.81,105.95 348.43,105.95 352.04,105.95 355.65,105.95 359.26,105.95 362.88,105.95 366.49,105.95 370.10,105.95 373.71,105.95 377.32,105.95 380.94,105.85 384.55,105.85 388.16,105.85 391.77,105.85 395.39,105.85 399.00,105.85 402.61,105.85 406.23,105.85 409.84,105.85 413.45,105.85 417.06,105.85 420.68,105.85 424.29,105.85 427.90,105.85 431.51,105.72 435.12,105.72 438.74,105.72 442.35,105.72 445.96,105.72 449.57,105.72 453.19,105.72 456.80,105.72 460.41,105.72 464.02,105.72 467.64,105.72 471.25,105.72 7335.00,105.72" fill="none" stroke="#2563eb" stroke-width="2.5" stroke-linejoin="round" stroke-linecap="round"/>
</g>
<g data-series="helsgaun">
<polyline points="113.61,390.49 117.22,371.50 120.84,331.79 124.45,301.41 128.06,306.94 131.68,269.65 135.29,240.30 138.90,236.85 142.51,231.33 146.12,194.38 149.74,183.68 153.35,210.61 156.96,204.05 160.57,184.37 164.19,167.11 167.80,234.43 171.41,199.56 175.03,235.47 178.64,169.87 182.25,232.02 185.86,169.18 189.47,198.18 193.09,153.64 196.70,137.07 200.31,128.44 203.93,124.99 207.54,130.51 211.15,117.74 214.76,129.82 218.38,116.01 221.99,115.67 225.60,128.79 229.21,116.01 232.82,120.50 236.44,112.21 240.05,114.98 243.66,109.45 247.28,115.32 250.89,110.49 254.50,109.80 258.11,118.08 261.73,111.52 265.34,108.07 268.95,109.80 272.56,109.28 276.18,110.49 279.79,109.28 283.40,107.38 287.01,107.81 290.62,107.21 294.24,106.52 297.85,106.67 301.46,105.96" fill="none" stroke="#dc2626" stroke-width="1.2" stroke-opacity="0.28" stroke-linejoin="round"/>
<polyline points="113.61,390.49 117.22,371.50 120.84,331.79 124.45,301.41 128.06,301.41 131.68,269.65 135.29,240.30 138.90,236.85 142.51,231.33 146.12,194.38 149.74,183.68 153.35,183.68 156.96,183.68 160.57,183.68 164.19,167.11 167.80,167.11 171.41,167.11 175.03,167.11 178.64,167.11 182.25,167.11 185.86,167.11 189.47,167.11 193.09,153.64 196.70,137.07 200.31,128.44 203.93,124.99 207.54,124.99 211.15,117.74 214.76,117.74 218.38,116.01 221.99,115.67 225.60,115.67 229.21,115.67 232.82,115.67 236.44,112.21 240.05,112.21 243.66,109.45 247.28,109.45 250.89,109.45 254.50,109.45 258.11,109.45 261.73,109.45 265.34,108.07 268.95,108.07 272.56,108.07 276.18,108.07 279.79,108.07 283.40,107.38 287.01,107.38 290.62,107.21 294.24,106.52 297.85,106.52 301.46,105.96 7335.00,105.96" fill="none" stroke="#dc2626" stroke-width="2.5" stroke-linejoin="round" stroke-linecap="round"/>
</g>
<g data-series="hybrid">
<polyline points="113.61,390.49 117.22,586.07 120.84,435.51 124.45,309.01 128.06,262.37 131.68,216.42 135.29,187.99 138.90,163.85 142.51,143.60 146.12,132.06 149.74,128.48 153.35,138.49 156.96,122.55 160.57,125.58 164.19,119.96 167.80,119.81 171.41,118.70 175.03,119.00 178.64,126.25 182.25,127.97 185.86,130.32 189.47,130.58 193.09,127.95 196.70,122.48 200.31,122.46 203.93,121.13 207.54,122.13 211.15,129.04 214.76,135.94 218.38,142.85 221.99,111.24 225.60,107.83 229.21,109.72 232.82,109.26 236.44,109.22 240.05,109.08 243.66,109.13 247.28,108.33 250.89,109.11 254.50,109.11 258.11,109.11 261.73,109.11 265.34,109.11 268.95,109.11 272.56,109.11 276.18,107.34 279.79,106.63 283.40,106.77 287.01,106.82 290.62,106.80 294.24,106.81 297.85,106.80 301.46,106.81 305.07,106.81 308.69,106.81 312.30,106.81 315.91,106.81 319.52,106.81 323.14,106.81 326.75,106.81 330.36,105.95 333.98,106.30 337.59,106.04 341.20,106.23 344.81,106.08 348.43,106.20 352.04,106.11 355.65,106.17 359.26,106.13 362.88,106.16 366.49,106.14 370.10,106.16 373.71,106.14 377.32,106.15 380.94,105.85 384.55,106.04 388.16,105.86 391.77,105.90 395.39,105.87 399.00,105.90 402.61,105.87 406.23,105.90 409.84,105.88 413.45,105.89 417.06,105.88 420.68,105.89 424.29,105.88 427.90,105.89 431.51,105.72 435.12,105.81 438.74,105.73 442.35,105.80 445.96,105.73 449.57,105.80 453.19,105.74 456.80,105.80 460.41,105.74 464.02,105.79 467.64,105.74 471.25,105.79 474.86,105.72 478.48,115.95 482.09,111.80 485.70,109.86 489.31,105.72 492.93,115.95 496.54,111.80 500.15,109.86 503.76,105.72 507.38,115.95 510.99,111.80 514.60,109.86 518.21,105.72 521.83,115.95 525.44,111.80 529.05,109.86 532.66,105.72 536.27,115.95 539.89,111.80 543.50,109.86 547.11,105.72 550.73,115.95 554.34,113.88 557.95,108.70 561.56,107.79 565.17,105.72 568.79,110.77 572.40,108.70 576.01,107.79 579.62,105.72 583.24,110.77 586.85,108.70 590.46,106.11 594.08,107.79 597.69,106.76 601.30,107.14 604.91,106.11 608.52,106.50 612.14,105.98" fill="none" stroke="#059669" stroke-width="1.2" stroke-opacity="0.28" stroke-linejoin="round"/>
<polyline points="113.61,390.49 117.22,390.49 120.84,390.49 124.45,309.01 128.06,262.37 131.68,216.42 135.29,187.99 138.90,163.85 142.51,143.60 146.12,132.06 149.74,128.48 153.35,128.48 156.96,122.55 160.57,122.55 164.19,119.96 167.80,119.81 171.41,118.70 175.03,118.70 178.64,118.70 182.25,118.70 185.86,118.70 189.47,118.70 193.09,118.70 196.70,118.70 200.31,118.70 203.93,118.70 207.54,118.70 211.15,118.70 214.76,118.70 218.38,118.70 221.99,111.24 225.60,107.83 229.21,107.83 232.82,107.83 236.44,107.83 240.05,107.83 243.66,107.83 247.28,107.83 250.89,107.83 254.50,107.83 258.11,107.83 261.73,107.83 265.34,107.83 268.95,107.83 272.56,107.83 276.18,107.34 279.79,106.63 283.40,106.63 287.01,106.63 290.62,106.63 294.24,106.63 297.85,106.63 301.46,106.63 305.07,106.63 308.69,106.63 312.30,106.63 315.91,106.63 319.52,106.63 323.14,106.63 326.75,106.63 330.36,105.95 333.98,105.95 337.59,105.95 341.20,105.95 344.81,105.95 348.43,105.95 352.04,105.95 355.65,105.95 359.26,105.95 362.88,105.95 366.49,105.95 370.10,105.95 373.71,105.95 377.32,105.95 380.94,105.85 384.55,105.85 388.16,105.85 391.77,105.85 395.39,105.85 399.00,105.85 402.61,105.85 406.23,105.85 409.84,105.85 413.45,105.85 417.06,105.85 420.68,105.85 424.29,105.85 427.90,105.85 431.51,105.72 435.12,105.72 438.74,105.72 442.35,105.72 445.96,105.72 449.57,105.72 453.19,105.72 456.80,105.72 460.41,105.72 464.02,105.72 467.64,105.72 471.25,105.72 474.86,105.72 478.48,105.72 482.09,105.72 485.70,105.72 489.31,105.72 492.93,105.72 496.54,105.72 500.15,105.72 503.76,105.72 507.38,105.72 510.99,105.72 514.60,105.72 518.21,105.72 521.83,105.72 525.44,105.72 529.05,105.72 532.66,105.72 536.27,105.72 539.89,105.72 543.50,105.72 547.11,105.72 550.73,105.72 554.34,105.72 557.95,105.72 561.56,105.72 565.17,105.72 568.79,105.72 572.40,105.72 576.01,105.72 579.62,105.72 583.24,105.72 586.85,105.72 590.46,105.72 594.08,105.72 597.69,105.72 601.30,105.72 604.91,105.72 608.52,105.72 612.14,105.72 7335.00,105.72" fill="none" stroke="#059669" stroke-width="2.5" stroke-linejoin="round" stroke-linecap="round"/>
</g>
<g data-series="hybrid-reverse">
<polyline points="113.61,390.49 117.22,371.50 120.84,331.79 124.45,301.41 128.06,306.94 131.68,269.65 135.29,240.30 138.90,236.85 142.51,231.33 146.12,194.38 149.74,183.68 153.35,210.61 156.96,204.05 160.57,184.37 164.19,167.11 167.80,234.43 171.41,199.56 175.03,235.47 178.64,169.87 182.25,232.02 185.86,169.18 189.47,198.18 193.09,153.64 196.70,137.07 200.31,128.44 203.93,124.99 207.54,130.51 211.15,117.74 214.76,129.82 218.38,116.01 221.99,115.67 225.60,128.79 229.21,116.01 232.82,120.50 236.44,112.21 240.05,114.98 243.66,109.45 247.28,115.32 250.89,110.49 254.50,109.80 258.11,118.08 261.73,111.52 265.34,108.07 268.95,109.80 272.56,109.28 276.18,110.49 279.79,109.28 283.40,107.38 287.01,107.81 290.62,107.21 294.24,106.52 297.85,106.67 301.46,105.96 305.07,105.96 308.69,112.86 312.30,119.77 315.91,126.67 319.52,133.58 323.14,140.48 326.75,147.39 330.36,154.29 333.98,161.20 337.59,169.89 341.20,143.56 344.81,144.34 348.43,130.03 352.04,125.72 355.65,110.57 359.26,110.14 362.88,109.11 366.49,109.11 370.10,109.11 373.71,109.11 377.32,109.11 380.94,109.11 384.55,109.11 388.16,109.11 391.77,109.11 395.39,109.11 399.00,107.61 402.61,106.56 406.23,106.93 409.84,106.74 413.45,106.84 417.06,106.79 420.68,106.81 424.29,106.80 427.90,106.81 431.51,106.80 435.12,106.81 438.74,106.81 442.35,106.10 445.96,106.18 449.57,106.12 453.19,106.17 456.80,106.13 460.41,106.16 464.02,106.14 467.64,106.15 471.25,106.14 474.86,106.15 478.48,106.15 482.09,106.15 485.70,105.80 489.31,105.96 492.93,105.82 496.54,105.94 500.15,105.84 503.76,105.93 507.38,105.85 510.99,105.92 514.60,105.86 518.21,105.91 521.83,105.86 525.44,105.90 529.05,105.87 532.66,105.90 536.27,105.71 539.89,105.82 543.50,105.74 547.11,105.79 550.73,105.75 554.34,105.78 557.95,105.75 561.56,105.78 565.17,105.75 568.79,105.78 572.40,105.75 576.01,105.78 579.62,105.75 583.24,105.78 586.85,105.73 590.46,105.70 594.08,105.73 597.69,105.69 601.30,105.73 604.91,105.69 608.52,105.73 612.14,105.69 615.75,105.73 619.36,105.69 622.98,105.72 626.59,105.69 630.20,105.72 633.81,105.70 637.42,105.72 641.04,105.70 644.65,105.72 648.26,105.67 651.88,105.69 655.49,105.67 659.10,105.69 662.71,105.67" fill="none" stroke="#7c3aed" stroke-width="1.2" stroke-opacity="0.28" stroke-linejoin="round"/>
<polyline points="113.61,390.49 117.22,371.50 120.84,331.79 124.45,301.41 128.06,301.41 131.68,269.65 135.29,240.30 138.90,236.85 142.51,231.33 146.12,194.38 149.74,183.68 153.35,183.68 156.96,183.68 160.57,183.68 164.19,167.11 167.80,167.11 171.41,167.11 175.03,167.11 178.64,167.11 182.25,167.11 185.86,167.11 189.47,167.11 193.09,153.64 196.70,137.07 200.31,128.44 203.93,124.99 207.54,124.99 211.15,117.74 214.76,117.74 218.38,116.01 221.99,115.67 225.60,115.67 229.21,115.67 232.82,115.67 236.44,112.21 240.05,112.21 243.66,109.45 247.28,109.45 250.89,109.45 254.50,109.45 258.11,109.45 261.73,109.45 265.34,108.07 268.95,108.07 272.56,108.07 276.18,108.07 279.79,108.07 283.40,107.38 287.01,107.38 290.62,107.21 294.24,106.52 297.85,106.52 301.46,105.96 305.07,105.96 308.69,105.96 312.30,105.96 315.91,105.96 319.52,105.96 323.14,105.96 326.75,105.96 330.36,105.96 333.98,105.96 337.59,105.96 341.20,105.96 344.81,105.96 348.43,105.96 352.04,105.96 355.65,105.96 359.26,105.96 362.88,105.96 366.49,105.96 370.10,105.96 373.71,105.96 377.32,105.96 380.94,105.96 384.55,105.96 388.16,105.96 391.77,105.96 395.39,105.96 399.00,105.96 402.61,105.96 406.23,105.96 409.84,105.96 413.45,105.96 417.06,105.96 420.68,105.96 424.29,105.96 427.90,105.96 431.51,105.96 435.12,105.96 438.74,105.96 442.35,105.96 445.96,105.96 449.57,105.96 453.19,105.96 456.80,105.96 460.41,105.96 464.02,105.96 467.64,105.96 471.25,105.96 474.86,105.96 478.48,105.96 482.09,105.96 485.70,105.80 489.31,105.80 492.93,105.80 496.54,105.80 500.15,105.80 503.76,105.80 507.38,105.80 510.99,105.80 514.60,105.80 518.21,105.80 521.83,105.80 525.44,105.80 529.05,105.80 532.66,105.80 536.27,105.71 539.89,105.71 543.50,105.71 547.11,105.71 550.73,105.71 554.34,105.71 557.95,105.71 561.56,105.71 565.17,105.71 568.79,105.71 572.40,105.71 576.01,105.71 579.62,105.71 583.24,105.71 586.85,105.71 590.46,105.70 594.08,105.70 597.69,105.69 601.30,105.69 604.91,105.69 608.52,105.69 612.14,105.69 615.75,105.69 619.36,105.69 622.98,105.69 626.59,105.69 630.20,105.69 633.81,105.69 637.42,105.69 641.04,105.69 644.65,105.69 648.26,105.67 651.88,105.67 655.49,105.67 659.10,105.67 662.71,105.67 7335.00,105.67" fill="none" stroke="#7c3aed" stroke-width="2.5" stroke-linejoin="round" stroke-linecap="round"/>
</g>
<g data-series="polyak-smoothed">
<polyline points="113.61,390.49 117.22,586.07 120.84,365.25 124.45,291.67 128.06,200.98 131.68,192.89 135.29,142.29 138.90,135.60 142.51,128.92 146.12,124.89 149.74,116.50 153.35,116.37 156.96,113.68 160.57,114.48 164.19,111.61 167.80,110.85 171.41,114.88 175.03,110.72 178.64,109.70 182.25,109.15 185.86,108.06 189.47,109.25 193.09,108.89 196.70,110.06 200.31,108.60 203.93,107.17 207.54,110.74 211.15,109.89 214.76,109.89 218.38,109.88 221.99,109.65 225.60,109.16 229.21,109.17 232.82,110.01 236.44,110.91 240.05,110.04 243.66,109.20 247.28,111.35 250.89,107.24 254.50,108.65 258.11,106.83 261.73,107.97 265.34,107.64 268.95,107.85 272.56,108.08 276.18,108.60 279.79,108.08 283.40,108.20 287.01,108.08 290.62,108.33 294.24,108.14 297.85,108.25 301.46,108.13 305.07,108.26 308.69,107.61 312.30,106.68 315.91,106.68 319.52,106.66 323.14,106.41 326.75,106.41 330.36,106.60 333.98,106.38 337.59,106.20 341.20,106.29 344.81,106.42 348.43,106.35 352.04,106.24 355.65,106.31 359.26,106.39 362.88,106.34 366.49,106.26 370.10,106.32 373.71,106.38 377.32,106.33 380.94,106.28 384.55,106.32 388.16,106.07 391.77,106.07 395.39,106.19 399.00,106.18 402.61,106.05 406.23,106.07 409.84,106.16 413.45,106.17 417.06,106.07 420.68,106.08 424.29,106.14 427.90,106.17 431.51,106.09 435.12,106.09 438.74,106.13 442.35,106.16 445.96,106.10 449.57,106.10 453.19,106.00 456.80,105.81 460.41,105.91 464.02,105.82 467.64,105.86 471.25,105.80" fill="none" stroke="#d97706" stroke-width="1.2" stroke-opacity="0.28" stroke-linejoin="round"/>
<polyline points="113.61,390.49 117.22,390.49 120.84,365.25 124.45,291.67 128.06,200.98 131.68,192.89 135.29,142.29 138.90,135.60 142.51,128.92 146.12,124.89 149.74,116.50 153.35,116.37 156.96,113.68 160.57,113.68 164.19,111.61 167.80,110.85 171.41,110.85 175.03,110.72 178.64,109.70 182.25,109.15 185.86,108.06 189.47,108.06 193.09,108.06 196.70,108.06 200.31,108.06 203.93,107.17 207.54,107.17 211.15,107.17 214.76,107.17 218.38,107.17 221.99,107.17 225.60,107.17 229.21,107.17 232.82,107.17 236.44,107.17 240.05,107.17 243.66,107.17 247.28,107.17 250.89,107.17 254.50,107.17 258.11,106.83 261.73,106.83 265.34,106.83 268.95,106.83 272.56,106.83 276.18,106.83 279.79,106.83 283.40,106.83 287.01,106.83 290.62,106.83 294.24,106.83 297.85,106.83 301.46,106.83 305.07,106.83 308.69,106.83 312.30,106.68 315.91,106.68 319.52,106.66 323.14,106.41 326.75,106.41 330.36,106.41 333.98,106.38 337.59,106.20 341.20,106.20 344.81,106.20 348.43,106.20 352.04,106.20 355.65,106.20 359.26,106.20 362.88,106.20 366.49,106.20 370.10,106.20 373.71,106.20 377.32,106.20 380.94,106.20 384.55,106.20 388.16,106.07 391.77,106.07 395.39,106.07 399.00,106.07 402.61,106.05 406.23,106.05 409.84,106.05 413.45,106.05 417.06,106.05 420.68,106.05 424.29,106.05 427.90,106.05 431.51,106.05 435.12,106.05 438.74,106.05 442.35,106.05 445.96,106.05 449.57,106.05 453.19,106.00 456.80,105.81 460.41,105.81 464.02,105.81 467.64,105.81 471.25,105.80 7335.00,105.80" fill="none" stroke="#d97706" stroke-width="2.5" stroke-linejoin="round" stroke-linecap="round"/>
</g>
<g data-series="polyak-smoothed-dynamic">
<polyline points="113.61,390.49 117.22,586.07 120.84,393.33 124.45,416.09 128.06,272.57 131.68,220.88 135.29,176.91 138.90,156.65 142.51,130.91 146.12,114.47 149.74,112.79 153.35,110.77 156.96,111.10 160.57,110.39 164.19,108.58 167.80,113.02 171.41,109.02 175.03,109.74 178.64,112.66 182.25,115.08 185.86,112.06 189.47,113.56 193.09,112.34 196.70,113.52 200.31,115.28 203.93,122.17 207.54,115.38 211.15,113.36 214.76,108.99 218.38,106.86 221.99,107.68 225.60,107.18 229.21,108.00 232.82,108.00 236.44,109.11 240.05,109.11 243.66,109.11 247.28,109.11 250.89,109.11 254.50,109.11 258.11,109.11 261.73,109.11 265.34,109.11 268.95,109.11 272.56,106.35 276.18,106.78 279.79,106.63 283.40,106.85 287.01,106.85 290.62,106.79 294.24,106.79 297.85,106.82 301.46,106.82 305.07,106.80 308.69,106.80 312.30,106.81 315.91,106.81 319.52,106.80 323.14,106.80 326.75,106.20 330.36,106.05 333.98,105.89 337.59,106.20 341.20,106.20 344.81,106.11 348.43,106.11 352.04,106.18 355.65,106.18 359.26,106.13 362.88,106.13 366.49,106.16 370.10,106.16 373.71,106.14 377.32,106.14 380.94,106.16 384.55,106.16 388.16,105.82 391.77,105.87 395.39,105.88 399.00,105.84 402.61,105.85 406.23,105.92 409.84,105.92 413.45,105.85 417.06,105.86 420.68,105.92 424.29,105.91 427.90,105.86 431.51,105.86 435.12,105.91 438.74,105.90 442.35,105.74 445.96,105.76 449.57,105.76 453.19,105.77 456.80,105.77 460.41,105.76 464.02,105.76 467.64,105.77 471.25,105.77" fill="none" stroke="#0891b2" stroke-width="1.2" stroke-opacity="0.28" stroke-linejoin="round"/>
<polyline points="113.61,390.49 117.22,390.49 120.84,390.49 124.45,390.49 128.06,272.57 131.68,220.88 135.29,176.91 138.90,156.65 142.51,130.91 146.12,114.47 149.74,112.79 153.35,110.77 156.96,110.77 160.57,110.39 164.19,108.58 167.80,108.58 171.41,108.58 175.03,108.58 178.64,108.58 182.25,108.58 185.86,108.58 189.47,108.58 193.09,108.58 196.70,108.58 200.31,108.58 203.93,108.58 207.54,108.58 211.15,108.58 214.76,108.58 218.38,106.86 221.99,106.86 225.60,106.86 229.21,106.86 232.82,106.86 236.44,106.86 240.05,106.86 243.66,106.86 247.28,106.86 250.89,106.86 254.50,106.86 258.11,106.86 261.73,106.86 265.34,106.86 268.95,106.86 272.56,106.35 276.18,106.35 279.79,106.35 283.40,106.35 287.01,106.35 290.62,106.35 294.24,106.35 297.85,106.35 301.46,106.35 305.07,106.35 308.69,106.35 312.30,106.35 315.91,106.35 319.52,106.35 323.14,106.35 326.75,106.20 330.36,106.05 333.98,105.89 337.59,105.89 341.20,105.89 344.81,105.89 348.43,105.89 352.04,105.89 355.65,105.89 359.26,105.89 362.88,105.89 366.49,105.89 370.10,105.89 373.71,105.89 377.32,105.89 380.94,105.89 384.55,105.89 388.16,105.82 391.77,105.82 395.39,105.82 399.00,105.82 402.61,105.82 406.23,105.82 409.84,105.82 413.45,105.82 417.06,105.82 420.68,105.82 424.29,105.82 427.90,105.82 431.51,105.82 435.12,105.82 438.74,105.82 442.35,105.74 445.96,105.74 449.57,105.74 453.19,105.74 456.80,105.74 460.41,105.74 464.02,105.74 467.64,105.74 471.25,105.74 7335.00,105.74" fill="none" stroke="#0891b2" stroke-width="2.5" stroke-linejoin="round" stroke-linecap="round"/>
</g>
<rect x="6810.0" y="453.0" width="520" height="157" rx="6" fill="#ffffff" fill-opacity="0.9"/>
<g data-legend="polyak">
<line x1="6820.0" y1="470.0" x2="6850.0" y2="470.0" stroke="#2563eb" stroke-width="3"/>
<text class="legend" x="6859.0" y="475.0">Polyak (100 evals, best 1271.96)</text>
</g>
<g data-legend="helsgaun">
<line x1="6820.0" y1="495.0" x2="6850.0" y2="495.0" stroke="#dc2626" stroke-width="3"/>
<text class="legend" x="6859.0" y="500.0">Helsgaun (53 evals, best 1271.83)</text>
</g>
<g data-legend="hybrid">
<line x1="6820.0" y1="520.0" x2="6850.0" y2="520.0" stroke="#059669" stroke-width="3"/>
<text class="legend" x="6859.0" y="525.0">Hybrid P→H (139 evals, best 1271.96)</text>
</g>
<g data-legend="hybrid-reverse">
<line x1="6820.0" y1="545.0" x2="6850.0" y2="545.0" stroke="#7c3aed" stroke-width="3"/>
<text class="legend" x="6859.0" y="550.0">Hybrid H→P (153 evals, best 1271.99)</text>
</g>
<g data-legend="polyak-smoothed">
<line x1="6820.0" y1="570.0" x2="6850.0" y2="570.0" stroke="#d97706" stroke-width="3"/>
<text class="legend" x="6859.0" y="575.0">Polyak + H direction 0.7/0.3 (100 evals, best 1271.92)</text>
</g>
<g data-legend="polyak-smoothed-dynamic">
<line x1="6820.0" y1="595.0" x2="6850.0" y2="595.0" stroke="#0891b2" stroke-width="3"/>
<text class="legend" x="6859.0" y="600.0">Polyak + H direction dynamic (100 evals, best 1271.95)</text>
</g>
</svg>
