<?xml version="1.0" encoding="UTF-8"?>
<svg xmlns="http://www.w3.org/2000/svg" width="7380" height="720" viewBox="0 0 7380 720">
<title>rd100.tsp root potential ascent</title>
<desc>Configured root-ascent lower-bound trajectories; the dashed line is the Concorde optimum.</desc>
<rect width="100%" height="100%" fill="#ffffff"/>
<style>text{font-family:-apple-system,BlinkMacSystemFont,"Segoe UI",Arial,sans-serif;fill:#172033}.tick{font-size:13px;fill:#596579}.axis{stroke:#334155;stroke-width:1.4}.grid{stroke:#dbe2ea;stroke-width:1}.legend{font-size:14px}.title{font-size:23px;font-weight:600}.subtitle{font-size:13px;fill:#64748b}</style>
<text class="title" x="800.0" y="33" text-anchor="middle">rd100.tsp — root potential ascent</text>
<text class="subtitle" x="800.0" y="55" text-anchor="middle">Per-phase cap: 2000; 400 iterations per 1600px; thin = raw bound, bold = best-so-far</text>
<line class="grid" x1="110.00" y1="75.0" x2="110.00" y2="615.0"/>
<text class="tick" x="110.00" y="640.0" text-anchor="middle">0</text>
<line class="grid" x1="1555.00" y1="75.0" x2="1555.00" y2="615.0"/>
<text class="tick" x="1555.00" y="640.0" text-anchor="middle">400</text>
<line class="grid" x1="3000.00" y1="75.0" x2="3000.00" y2="615.0"/>
<text class="tick" x="3000.00" y="640.0" text-anchor="middle">800</text>
<line class="grid" x1="4445.00" y1="75.0" x2="4445.00" y2="615.0"/>
<text class="tick" x="4445.00" y="640.0" text-anchor="middle">1200</text>
<line class="grid" x1="5890.00" y1="75.0" x2="5890.00" y2="615.0"/>
<text class="tick" x="5890.00" y="640.0" text-anchor="middle">1600</text>
<line class="grid" x1="7335.00" y1="75.0" x2="7335.00" y2="615.0"/>
<text class="tick" x="7335.00" y="640.0" text-anchor="middle">2000</text>
<line class="grid" x1="110.0" y1="615.00" x2="7335.0" y2="615.00"/>
<text class="tick" x="96.0" y="619.00" text-anchor="end">6555.36</text>
<line class="grid" x1="110.0" y1="507.00" x2="7335.0" y2="507.00"/>
<text class="tick" x="96.0" y="511.00" text-anchor="end">6841.62</text>
<line class="grid" x1="110.0" y1="399.00" x2="7335.0" y2="399.00"/>
<text class="tick" x="96.0" y="403.00" text-anchor="end">7127.89</text>
<line class="grid" x1="110.0" y1="291.00" x2="7335.0" y2="291.00"/>
<text class="tick" x="96.0" y="295.00" text-anchor="end">7414.15</text>
<line class="grid" x1="110.0" y1="183.00" x2="7335.0" y2="183.00"/>
<text class="tick" x="96.0" y="187.00" text-anchor="end">7700.41</text>
<line class="grid" x1="110.0" y1="75.00" x2="7335.0" y2="75.00"/>
<text class="tick" x="96.0" y="79.00" text-anchor="end">7986.68</text>
<line class="axis" x1="110.0" y1="615.0" x2="7335.0" y2="615.0"/>
<line class="axis" x1="110.0" y1="75.0" x2="110.0" y2="615.0"/>
<text x="3722.50" y="686" text-anchor="middle">Iteration</text>
<text x="27" y="345.00" text-anchor="middle" transform="rotate(-90 27 345.00)">Root lower bound</text>
<g data-series="concorde">
<line x1="110.0" y1="103.93" x2="7335.0" y2="103.93" stroke="#111827" stroke-width="1.8" stroke-dasharray="8 6"/>
<text class="tick" x="7331.0" y="95.93" text-anchor="end">Concorde optimum: 7910</text>
</g>
<g data-series="polyak">
<polyline points="113.61,432.91 117.22,586.07 120.84,442.15 124.45,461.19 128.06,469.43 131.68,437.17 135.29,451.79 138.90,302.73 142.51,358.54 146.12,357.94 149.74,332.80 153.35,325.62 156.96,386.10 160.57,357.08 164.19,349.47 167.80,384.81 171.41,436.71 175.03,375.64 178.64,353.12 182.25,338.46 185.86,348.87 189.47,237.89 193.09,195.66 196.70,191.07 200.31,170.99 203.93,175.18 207.54,173.28 211.15,167.73 214.76,159.69 218.38,160.03 221.99,160.55 225.60,155.43 229.21,160.98 232.82,161.69 236.44,165.56 240.05,160.17 243.66,161.72 247.28,159.45 250.89,174.53 254.50,162.67 258.11,169.88 261.73,157.23 265.34,160.16 268.95,160.44 272.56,166.30 276.18,128.73 279.79,138.62 283.40,126.80 287.01,134.31 290.62,126.46 294.24,140.38 297.85,124.04 301.46,138.08 305.07,125.20 308.69,135.37 312.30,130.83 315.91,126.22 319.52,130.56 323.14,128.58 326.75,131.77 330.36,127.13 333.98,131.43 337.59,125.60 341.20,126.27 344.81,124.69 348.43,118.43 352.04,122.69 355.65,118.99 359.26,121.07 362.88,120.64 366.49,121.19 370.10,117.51 373.71,119.66 377.32,118.63 380.94,119.17 384.55,116.72 388.16,121.38 391.77,116.04 395.39,117.59 399.00,118.70 402.61,118.30 406.23,116.54 409.84,120.03 413.45,117.13 417.06,118.43 420.68,118.90 424.29,119.07 427.90,116.24 431.51,120.04 435.12,116.79 438.74,117.04 442.35,115.54 445.96,114.73 449.57,114.31 453.19,113.90 456.80,113.95 460.41,113.47 464.02,115.82 467.64,112.90 471.25,117.37 474.86,113.16 478.48,113.83 482.09,112.12 485.70,119.20 489.31,116.29 492.93,113.87 496.54,113.22 500.15,114.04 503.76,112.58 507.38,113.24 510.99,112.35 514.60,114.12 518.21,112.24 521.83,114.57 525.44,112.02 529.05,115.03 532.66,113.17 536.27,113.69 539.89,110.94 543.50,117.16 547.11,114.22 550.73,112.06 554.34,113.18 557.95,111.96 561.56,115.32 565.17,112.37 568.79,112.82 572.40,111.66 576.01,114.26 579.62,110.96 583.24,114.17 586.85,111.81 590.46,110.49 594.08,111.72 597.69,110.64 601.30,111.19 604.91,111.08 608.52,109.92 612.14,110.53 615.75,110.43 619.36,110.73 622.98,110.46 626.59,110.42 630.20,110.51 633.81,111.03 637.42,110.34 641.04,110.45 644.65,110.11 648.26,110.92 651.88,109.80 655.49,111.47 659.10,109.55 662.71,111.62 666.33,109.69 669.94,110.22 673.55,109.83 677.16,110.04 680.77,109.54 684.39,110.81 688.00,109.97 691.61,110.01 695.23,109.87 698.84,110.08 702.45,111.21 706.06,109.54 709.67,110.60 713.29,109.54 716.90,110.83 720.51,109.77 724.12,111.43 727.74,109.78 731.35,111.07 734.96,109.78 738.58,110.03 742.19,110.25 745.80,109.90 749.41,109.79 753.02,109.58 756.64,110.96 760.25,109.68 763.86,109.33 767.48,109.87 771.09,108.85 774.70,110.60 778.31,109.58 781.92,108.84 785.54,109.35 789.15,108.92 792.76,109.11 796.38,108.87 799.99,109.11 803.60,108.74 807.21,109.50 810.83,108.67 814.44,109.77 818.05,108.92 821.66,109.40 825.27,108.84 828.89,108.94 832.50,108.74 836.11,109.48 839.73,108.89 843.34,109.03 846.95,109.24 850.56,109.01 854.17,108.91 857.79,108.80 861.40,108.63 865.01,108.78 868.62,108.66 872.24,108.60 875.85,108.68 879.46,108.60 883.08,108.56 886.69,108.74 890.30,108.50 893.91,108.74 897.52,108.68 901.14,108.38 904.75,108.53 908.36,108.74 911.98,108.38 915.59,108.55 919.20,108.44 922.81,108.66 926.42,108.34 930.04,108.56 933.65,108.33 937.26,108.49 940.88,108.60 944.49,108.49 948.10,108.72 951.71,108.43 955.33,108.43 958.94,108.53 962.55,108.43 966.16,108.52 969.77,108.30 973.39,108.79 977.00,108.42 980.61,108.75 984.23,108.67 987.84,108.32 991.45,108.59 995.06,108.50 998.67,108.33 1002.29,108.88 1005.90,108.51 1009.51,108.62 1013.12,108.27 1016.74,108.83 1020.35,108.28 1023.96,108.57 1027.58,108.59 1031.19,108.46 1034.80,108.53 1038.41,108.43 1042.03,108.60 1045.64,108.30 1049.25,108.54 1052.86,108.32 1056.47,108.58 1060.09,108.37 1063.70,108.33 1067.31,108.28 1070.92,108.24 1074.54,108.24 1078.15,108.19 1081.76,108.36 1085.38,108.17 1088.99,108.39 1092.60,108.18 1096.21,108.22 1099.83,108.19 1103.44,108.24 1107.05,108.20 1110.66,108.26 1114.28,108.23 1117.89,108.27 1121.50,108.23 1125.11,108.27 1128.72,108.20 1132.34,108.23 1135.95,108.08 1139.56,108.13 1143.17,108.09 1146.79,108.08 1150.40,108.14 1154.01,108.09 1157.62,108.08 1161.24,108.12 1164.85,108.07 1168.46,108.13 1172.08,108.07 1175.69,108.11 1179.30,108.09 1182.91,108.08 1186.53,108.07 1190.14,108.13 1193.75,108.06 1197.36,108.14 1200.97,108.06 1204.59,108.13 1208.20,108.05 1211.81,108.12 1215.42,108.05 1219.04,108.15 1222.65,108.05 1226.26,108.15 1229.88,108.02 1233.49,108.16 1237.10,108.04 1240.71,108.15 1244.33,108.06 1247.94,108.09 1251.55,108.05 1255.16,108.12 1258.78,108.06 1262.39,108.10 1266.00,108.07 1269.61,108.10 1273.22,108.06 1276.84,108.10 1280.45,108.04 1284.06,108.01 1287.67,108.03 1291.29,108.04 1294.90,108.01 1298.51,108.02 1302.12,108.03 1305.74,108.01 1309.35,108.02 1312.96,108.00 1316.58,108.02 1320.19,108.04 1323.80,108.00 1327.41,108.06 1331.03,108.00 1334.64,108.05 1338.25,108.02 1341.86,108.05 1345.47,107.99 1349.09,108.08 1352.70,108.00 1356.31,108.05 1359.92,108.02 1363.54,108.01 1367.15,108.01 1370.76,108.02 1374.38,108.00 1377.99,108.04 1381.60,108.03 1385.21,108.01 1388.83,108.04 1392.44,108.00 1396.05,107.99 1399.66,108.00 1403.28,107.99 1406.89,107.98 1410.50,108.00 1414.11,107.98 1417.72,107.99 1421.34,107.98 1424.95,108.01 1428.56,107.98 1432.17,107.97 1435.79,108.01 1439.40,107.98 1443.01,107.99 1446.62,107.98 1450.24,107.99 1453.85,107.99 1457.46,107.99 1461.08,107.98 1464.69,107.99 1468.30,107.98 1471.91,107.99 1475.53,107.98 1479.14,108.00 1482.75,107.98 1486.36,107.98 1489.97,107.97 1493.59,107.97 1497.20,107.97 1500.81,107.97 1504.42,107.97 1508.04,107.97 1511.65,107.97 1515.26,107.97 1518.88,107.97 1522.49,107.97 1526.10,107.98 1529.71,107.97 1533.33,107.97 1536.94,107.96 1540.55,107.97 1544.16,107.97 1547.78,107.98 1551.39,107.96 1555.00,107.98 1558.61,107.96 1562.22,107.98 1565.84,107.97 1569.45,107.97 1573.06,107.97 1576.67,107.97 1580.29,107.97 1583.90,107.97 1587.51,107.97 1591.12,107.97 1594.74,107.97 1598.35,107.97 1601.96,107.97 1605.58,107.97 1609.19,107.96 1612.80,107.97 1616.41,107.96 1620.03,107.96 1623.64,107.96 1627.25,107.96 1630.86,107.96 1634.47,107.96 1638.09,107.97 1641.70,107.96 1645.31,107.96 1648.92,107.96 1652.54,107.96 1656.15,107.96 1659.76,107.96 1663.38,107.97 1666.99,107.96 1670.60,107.96 1674.21,107.96 1677.83,107.96 1681.44,107.96 1685.05,107.96 1688.66,107.96 1692.28,107.96 1695.89,107.96 1699.50,107.96 1703.11,107.96 1706.72,107.96 1710.34,107.96 1713.95,107.96 1717.56,107.96 1721.17,107.96 1724.79,107.96 1728.40,107.96 1732.01,107.96 1735.62,107.96 1739.24,107.96 1742.85,107.96 1746.46,107.96 1750.08,107.96 1753.69,107.96 1757.30,107.96 1760.91,107.96 1764.53,107.96 1768.14,107.96 1771.75,107.96 1775.36,107.96 1778.97,107.96 1782.59,107.96 1786.20,107.96 1789.81,107.96 1793.42,107.96 1797.04,107.96 1800.65,107.96 1804.26,107.96 1807.88,107.96 1811.49,107.96 1815.10,107.96 1818.71,107.96 1822.33,107.96 1825.94,107.96 1829.55,107.96 1833.16,107.96 1836.78,107.96 1840.39,107.96 1844.00,107.96 1847.61,107.96 1851.22,107.96 1854.84,107.96 1858.45,107.96 1862.06,107.96 1865.67,107.96 1869.29,107.96 1872.90,107.95 1876.51,107.96 1880.12,107.95 1883.74,107.96 1887.35,107.95 1890.96,107.96 1894.58,107.95 1898.19,107.95 1901.80,107.95 1905.41,107.95 1909.03,107.96 1912.64,107.96 1916.25,107.95 1919.86,107.95 1923.47,107.95 1927.09,107.95 1930.70,107.95 1934.31,107.95 1937.92,107.95 1941.54,107.95 1945.15,107.95 1948.76,107.95 1952.38,107.95 1955.99,107.95 1959.60,107.95 1963.21,107.95 1966.83,107.95 1970.44,107.95 1974.05,107.95 1977.66,107.95 1981.28,107.95 1984.89,107.95 1988.50,107.95 1992.11,107.95 1995.72,107.95 1999.34,107.95 2002.95,107.95 2006.56,107.95 2010.17,107.95 2013.79,107.95 2017.40,107.95 2021.01,107.95 2024.62,107.95 2028.24,107.95 2031.85,107.95 2035.46,107.95 2039.08,107.95 2042.69,107.95 2046.30,107.95 2049.91,107.95 2053.53,107.95 2057.14,107.95 2060.75,107.95 2064.36,107.95 2067.97,107.95 2071.59,107.95 2075.20,107.95 2078.81,107.95 2082.43,107.95 2086.04,107.95 2089.65,107.95 2093.26,107.95 2096.88,107.95 2100.49,107.95 2104.10,107.95 2107.71,107.95 2111.32,107.95 2114.94,107.95 2118.55,107.95 2122.16,107.95" fill="none" stroke="#2563eb" stroke-width="1.2" stroke-opacity="0.28" stroke-linejoin="round"/>
<polyline points="113.61,432.91 117.22,432.91 120.84,432.91 124.45,432.91 128.06,432.91 131.68,432.91 135.29,432.91 138.90,302.73 142.51,302.73 146.12,302.73 149.74,302.73 153.35,302.73 156.96,302.73 160.57,302.73 164.19,302.73 167.80,302.73 171.41,302.73 175.03,302.73 178.64,302.73 182.25,302.73 185.86,302.73 189.47,237.89 193.09,195.66 196.70,191.07 200.31,170.99 203.93,170.99 207.54,170.99 211.15,167.73 214.76,159.69 218.38,159.69 221.99,159.69 225.60,155.43 229.21,155.43 232.82,155.43 236.44,155.43 240.05,155.43 243.66,155.43 247.28,155.43 250.89,155.43 254.50,155.43 258.11,155.43 261.73,155.43 265.34,155.43 268.95,155.43 272.56,155.43 276.18,128.73 279.79,128.73 283.40,126.80 287.01,126.80 290.62,126.46 294.24,126.46 297.85,124.04 301.46,124.04 305.07,124.04 308.69,124.04 312.30,124.04 315.91,124.04 319.52,124.04 323.14,124.04 326.75,124.04 330.36,124.04 333.98,124.04 337.59,124.04 341.20,124.04 344.81,124.04 348.43,118.43 352.04,118.43 355.65,118.43 359.26,118.43 362.88,118.43 366.49,118.43 370.10,117.51 373.71,117.51 377.32,117.51 380.94,117.51 384.55,116.72 388.16,116.72 391.77,116.04 395.39,116.04 399.00,116.04 402.61,116.04 406.23,116.04 409.84,116.04 413.45,116.04 417.06,116.04 420.68,116.04 424.29,116.04 427.90,116.04 431.51,116.04 435.12,116.04 438.74,116.04 442.35,115.54 445.96,114.73 449.57,114.31 453.19,113.90 456.80,113.90 460.41,113.47 464.02,113.47 467.64,112.90 471.25,112.90 474.86,112.90 478.48,112.90 482.09,112.12 485.70,112.12 489.31,112.12 492.93,112.12 496.54,112.12 500.15,112.12 503.76,112.12 507.38,112.12 510.99,112.12 514.60,112.12 518.21,112.12 521.83,112.12 525.44,112.02 529.05,112.02 532.66,112.02 536.27,112.02 539.89,110.94 543.50,110.94 547.11,110.94 550.73,110.94 554.34,110.94 557.95,110.94 561.56,110.94 565.17,110.94 568.79,110.94 572.40,110.94 576.01,110.94 579.62,110.94 583.24,110.94 586.85,110.94 590.46,110.49 594.08,110.49 597.69,110.49 601.30,110.49 604.91,110.49 608.52,109.92 612.14,109.92 615.75,109.92 619.36,109.92 622.98,109.92 626.59,109.92 630.20,109.92 633.81,109.92 637.42,109.92 641.04,109.92 644.65,109.92 648.26,109.92 651.88,109.80 655.49,109.80 659.10,109.55 662.71,109.55 666.33,109.55 669.94,109.55 673.55,109.55 677.16,109.55 680.77,109.54 684.39,109.54 688.00,109.54 691.61,109.54 695.23,109.54 698.84,109.54 702.45,109.54 706.06,109.54 709.67,109.54 713.29,109.54 716.90,109.54 720.51,109.54 724.12,109.54 727.74,109.54 731.35,109.54 734.96,109.54 738.58,109.54 742.19,109.54 745.80,109.54 749.41,109.54 753.02,109.54 756.64,109.54 760.25,109.54 763.86,109.33 767.48,109.33 771.09,108.85 774.70,108.85 778.31,108.85 781.92,108.84 785.54,108.84 789.15,108.84 792.76,108.84 796.38,108.84 799.99,108.84 803.60,108.74 807.21,108.74 810.83,108.67 814.44,108.67 818.05,108.67 821.66,108.67 825.27,108.67 828.89,108.67 832.50,108.67 836.11,108.67 839.73,108.67 843.34,108.67 846.95,108.67 850.56,108.67 854.17,108.67 857.79,108.67 861.40,108.63 865.01,108.63 868.62,108.63 872.24,108.60 875.85,108.60 879.46,108.60 883.08,108.56 886.69,108.56 890.30,108.50 893.91,108.50 897.52,108.50 901.14,108.38 904.75,108.38 908.36,108.38 911.98,108.38 915.59,108.38 919.20,108.38 922.81,108.38 926.42,108.34 930.04,108.34 933.65,108.33 937.26,108.33 940.88,108.33 944.49,108.33 948.10,108.33 951.71,108.33 955.33,108.33 958.94,108.33 962.55,108.33 966.16,108.33 969.77,108.30 973.39,108.30 977.00,108.30 980.61,108.30 984.23,108.30 987.84,108.30 991.45,108.30 995.06,108.30 998.67,108.30 1002.29,108.30 1005.90,108.30 1009.51,108.30 1013.12,108.27 1016.74,108.27 1020.35,108.27 1023.96,108.27 1027.58,108.27 1031.19,108.27 1034.80,108.27 1038.41,108.27 1042.03,108.27 1045.64,108.27 1049.25,108.27 1052.86,108.27 1056.47,108.27 1060.09,108.27 1063.70,108.27 1067.31,108.27 1070.92,108.24 1074.54,108.24 1078.15,108.19 1081.76,108.19 1085.38,108.17 1088.99,108.17 1092.60,108.17 1096.21,108.17 1099.83,108.17 1103.44,108.17 1107.05,108.17 1110.66,108.17 1114.28,108.17 1117.89,108.17 1121.50,108.17 1125.11,108.17 1128.72,108.17 1132.34,108.17 1135.95,108.08 1139.56,108.08 1143.17,108.08 1146.79,108.08 1150.40,108.08 1154.01,108.08 1157.62,108.08 1161.24,108.08 1164.85,108.07 1168.46,108.07 1172.08,108.07 1175.69,108.07 1179.30,108.07 1182.91,108.07 1186.53,108.07 1190.14,108.07 1193.75,108.06 1197.36,108.06 1200.97,108.06 1204.59,108.06 1208.20,108.05 1211.81,108.05 1215.42,108.05 1219.04,108.05 1222.65,108.05 1226.26,108.05 1229.88,108.02 1233.49,108.02 1237.10,108.02 1240.71,108.02 1244.33,108.02 1247.94,108.02 1251.55,108.02 1255.16,108.02 1258.78,108.02 1262.39,108.02 1266.00,108.02 1269.61,108.02 1273.22,108.02 1276.84,108.02 1280.45,108.02 1284.06,108.01 1287.67,108.01 1291.29,108.01 1294.90,108.01 1298.51,108.01 1302.12,108.01 1305.74,108.01 1309.35,108.01 1312.96,108.00 1316.58,108.00 1320.19,108.00 1323.80,108.00 1327.41,108.00 1331.03,108.00 1334.64,108.00 1338.25,108.00 1341.86,108.00 1345.47,107.99 1349.09,107.99 1352.70,107.99 1356.31,107.99 1359.92,107.99 1363.54,107.99 1367.15,107.99 1370.76,107.99 1374.38,107.99 1377.99,107.99 1381.60,107.99 1385.21,107.99 1388.83,107.99 1392.44,107.99 1396.05,107.99 1399.66,107.99 1403.28,107.99 1406.89,107.98 1410.50,107.98 1414.11,107.98 1417.72,107.98 1421.34,107.98 1424.95,107.98 1428.56,107.98 1432.17,107.97 1435.79,107.97 1439.40,107.97 1443.01,107.97 1446.62,107.97 1450.24,107.97 1453.85,107.97 1457.46,107.97 1461.08,107.97 1464.69,107.97 1468.30,107.97 1471.91,107.97 1475.53,107.97 1479.14,107.97 1482.75,107.97 1486.36,107.97 1489.97,107.97 1493.59,107.97 1497.20,107.97 1500.81,107.97 1504.42,107.97 1508.04,107.97 1511.65,107.97 1515.26,107.97 1518.88,107.97 1522.49,107.97 1526.10,107.97 1529.71,107.97 1533.33,107.97 1536.94,107.96 1540.55,107.96 1544.16,107.96 1547.78,107.96 1551.39,107.96 1555.00,107.96 1558.61,107.96 1562.22,107.96 1565.84,107.96 1569.45,107.96 1573.06,107.96 1576.67,107.96 1580.29,107.96 1583.90,107.96 1587.51,107.96 1591.12,107.96 1594.74,107.96 1598.35,107.96 1601.96,107.96 1605.58,107.96 1609.19,107.96 1612.80,107.96 1616.41,107.96 1620.03,107.96 1623.64,107.96 1627.25,107.96 1630.86,107.96 1634.47,107.96 1638.09,107.96 1641.70,107.96 1645.31,107.96 1648.92,107.96 1652.54,107.96 1656.15,107.96 1659.76,107.96 1663.38,107.96 1666.99,107.96 1670.60,107.96 1674.21,107.96 1677.83,107.96 1681.44,107.96 1685.05,107.96 1688.66,107.96 1692.28,107.96 1695.89,107.96 1699.50,107.96 1703.11,107.96 1706.72,107.96 1710.34,107.96 1713.95,107.96 1717.56,107.96 1721.17,107.96 1724.79,107.96 1728.40,107.96 1732.01,107.96 1735.62,107.96 1739.24,107.96 1742.85,107.96 1746.46,107.96 1750.08,107.96 1753.69,107.96 1757.30,107.96 1760.91,107.96 1764.53,107.96 1768.14,107.96 1771.75,107.96 1775.36,107.96 1778.97,107.96 1782.59,107.96 1786.20,107.96 1789.81,107.96 1793.42,107.96 1797.04,107.96 1800.65,107.96 1804.26,107.96 1807.88,107.96 1811.49,107.96 1815.10,107.96 1818.71,107.96 1822.33,107.96 1825.94,107.96 1829.55,107.96 1833.16,107.96 1836.78,107.96 1840.39,107.96 1844.00,107.96 1847.61,107.96 1851.22,107.96 1854.84,107.96 1858.45,107.96 1862.06,107.96 1865.67,107.96 1869.29,107.96 1872.90,107.95 1876.51,107.95 1880.12,107.95 1883.74,107.95 1887.35,107.95 1890.96,107.95 1894.58,107.95 1898.19,107.95 1901.80,107.95 1905.41,107.95 1909.03,107.95 1912.64,107.95 1916.25,107.95 1919.86,107.95 1923.47,107.95 1927.09,107.95 1930.70,107.95 1934.31,107.95 1937.92,107.95 1941.54,107.95 1945.15,107.95 1948.76,107.95 1952.38,107.95 1955.99,107.95 1959.60,107.95 1963.21,107.95 1966.83,107.95 1970.44,107.95 1974.05,107.95 1977.66,107.95 1981.28,107.95 1984.89,107.95 1988.50,107.95 1992.11,107.95 1995.72,107.95 1999.34,107.95 2002.95,107.95 2006.56,107.95 2010.17,107.95 2013.79,107.95 2017.40,107.95 2021.01,107.95 2024.62,107.95 2028.24,107.95 2031.85,107.95 2035.46,107.95 2039.08,107.95 2042.69,107.95 2046.30,107.95 2049.91,107.95 2053.53,107.95 2057.14,107.95 2060.75,107.95 2064.36,107.95 2067.97,107.95 2071.59,107.95 2075.20,107.95 2078.81,107.95 2082.43,107.95 2086.04,107.95 2089.65,107.95 2093.26,107.95 2096.88,107.95 2100.49,107.95 2104.10,107.95 2107.71,107.95 2111.32,107.95 2114.94,107.95 2118.55,107.95 2122.16,107.95 7335.00,107.95" fill="none" stroke="#2563eb" stroke-width="2.5" stroke-linejoin="round" stroke-linecap="round"/>
</g>
<g data-series="helsgaun">
<polyline points="113.61,432.91 117.22,412.54 120.84,379.57 124.45,334.82 128.06,301.39 131.68,287.06 135.29,366.81 138.90,402.13 142.51,428.38 146.12,466.41 149.74,426.57 153.35,468.22 156.96,453.36 160.57,383.26 164.19,458.72 167.80,455.17 171.41,486.33 175.03,399.26 178.64,510.71 182.25,386.05 185.86,434.87 189.47,457.36 193.09,470.04 196.70,415.26 200.31,475.62 203.93,415.26 207.54,429.52 211.15,468.38 214.76,486.18 218.38,470.64 221.99,369.76 225.60,410.43 229.21,444.83 232.82,456.38 236.44,421.74 240.05,409.90 243.66,453.21 247.28,497.20 250.89,404.24 254.50,408.69 258.11,461.51 261.73,414.12 265.34,415.48 268.95,455.17 272.56,384.17 276.18,360.17 279.79,408.54 283.40,405.22 287.01,529.87 290.62,568.13 294.24,418.58 297.85,343.20 301.46,253.93 305.07,220.13 308.69,206.85 312.30,185.50 315.91,203.38 319.52,209.72 323.14,202.85 326.75,197.79 330.36,214.32 333.98,216.96 337.59,193.19 341.20,192.59 344.81,184.29 348.43,199.30 352.04,191.23 355.65,236.50 359.26,205.11 362.88,200.66 366.49,214.70 370.10,226.17 373.71,205.79 377.32,228.66 380.94,216.51 384.55,200.89 388.16,170.03 391.77,157.50 395.39,154.03 399.00,147.69 402.61,147.84 406.23,142.11 409.84,140.60 413.45,136.90 417.06,138.49 420.68,140.22 424.29,141.05 427.90,135.39 431.51,132.07 435.12,125.36 438.74,124.91 442.35,124.83 445.96,123.55 449.57,124.45 453.19,120.68 456.80,117.66 460.41,118.34 464.02,117.59 467.64,116.45 471.25,117.13 474.86,116.04 478.48,115.59 482.09,116.00 485.70,115.32 489.31,114.64 492.93,114.38 496.54,113.93 500.15,113.81 503.76,113.66 507.38,113.68 510.99,113.70 514.60,114.04 518.21,113.65 521.83,113.29 525.44,113.21 529.05,113.13 532.66,113.08 536.27,113.06 539.89,113.04 543.50,113.03 547.11,113.02 550.73,113.03 554.34,113.01" fill="none" stroke="#dc2626" stroke-width="1.2" stroke-opacity="0.28" stroke-linejoin="round"/>
<polyline points="113.61,432.91 117.22,412.54 120.84,379.57 124.45,334.82 128.06,301.39 131.68,287.06 135.29,287.06 138.90,287.06 142.51,287.06 146.12,287.06 149.74,287.06 153.35,287.06 156.96,287.06 160.57,287.06 164.19,287.06 167.80,287.06 171.41,287.06 175.03,287.06 178.64,287.06 182.25,287.06 185.86,287.06 189.47,287.06 193.09,287.06 196.70,287.06 200.31,287.06 203.93,287.06 207.54,287.06 211.15,287.06 214.76,287.06 218.38,287.06 221.99,287.06 225.60,287.06 229.21,287.06 232.82,287.06 236.44,287.06 240.05,287.06 243.66,287.06 247.28,287.06 250.89,287.06 254.50,287.06 258.11,287.06 261.73,287.06 265.34,287.06 268.95,287.06 272.56,287.06 276.18,287.06 279.79,287.06 283.40,287.06 287.01,287.06 290.62,287.06 294.24,287.06 297.85,287.06 301.46,253.93 305.07,220.13 308.69,206.85 312.30,185.50 315.91,185.50 319.52,185.50 323.14,185.50 326.75,185.50 330.36,185.50 333.98,185.50 337.59,185.50 341.20,185.50 344.81,184.29 348.43,184.29 352.04,184.29 355.65,184.29 359.26,184.29 362.88,184.29 366.49,184.29 370.10,184.29 373.71,184.29 377.32,184.29 380.94,184.29 384.55,184.29 388.16,170.03 391.77,157.50 395.39,154.03 399.00,147.69 402.61,147.69 406.23,142.11 409.84,140.60 413.45,136.90 417.06,136.90 420.68,136.90 424.29,136.90 427.90,135.39 431.51,132.07 435.12,125.36 438.74,124.91 442.35,124.83 445.96,123.55 449.57,123.55 453.19,120.68 456.80,117.66 460.41,117.66 464.02,117.59 467.64,116.45 471.25,116.45 474.86,116.04 478.48,115.59 482.09,115.59 485.70,115.32 489.31,114.64 492.93,114.38 496.54,113.93 500.15,113.81 503.76,113.66 507.38,113.66 510.99,113.66 514.60,113.66 518.21,113.65 521.83,113.29 525.44,113.21 529.05,113.13 532.66,113.08 536.27,113.06 539.89,113.04 543.50,113.03 547.11,113.02 550.73,113.02 554.34,113.01 7335.00,113.01" fill="none" stroke="#dc2626" stroke-width="2.5" stroke-linejoin="round" stroke-linecap="round"/>
</g>
<g data-series="hybrid">
<polyline points="113.61,432.91 117.22,586.07 120.84,442.15 124.45,461.19 128.06,469.43 131.68,437.17 135.29,451.79 138.90,302.73 142.51,358.54 146.12,357.94 149.74,332.80 153.35,325.62 156.96,386.10 160.57,357.08 164.19,349.47 167.80,384.81 171.41,436.71 175.03,375.64 178.64,353.12 182.25,338.46 185.86,348.87 189.47,237.89 193.09,195.66 196.70,191.07 200.31,170.99 203.93,175.18 207.54,173.28 211.15,167.73 214.76,159.69 218.38,160.03 221.99,160.55 225.60,155.43 229.21,160.98 232.82,161.69 236.44,165.56 240.05,160.17 243.66,161.72 247.28,159.45 250.89,174.53 254.50,162.67 258.11,169.88 261.73,157.23 265.34,160.16 268.95,160.44 272.56,166.30 276.18,128.73 279.79,138.62 283.40,126.80 287.01,134.31 290.62,126.46 294.24,140.38 297.85,124.04 301.46,138.08 305.07,125.20 308.69,135.37 312.30,130.83 315.91,126.22 319.52,130.56 323.14,128.58 326.75,131.77 330.36,127.13 333.98,131.43 337.59,125.60 341.20,126.27 344.81,124.69 348.43,118.43 352.04,122.69 355.65,118.99 359.26,121.07 362.88,120.64 366.49,121.19 370.10,117.51 373.71,119.66 377.32,118.63 380.94,119.17 384.55,116.72 388.16,121.38 391.77,116.04 395.39,117.59 399.00,118.70 402.61,118.30 406.23,116.54 409.84,120.03 413.45,117.13 417.06,118.43 420.68,118.90 424.29,119.07 427.90,116.24 431.51,120.04 435.12,116.79 438.74,117.04 442.35,115.54 445.96,114.73 449.57,114.31 453.19,113.90 456.80,113.95 460.41,113.47 464.02,115.82 467.64,112.90 471.25,117.37 474.86,113.16 478.48,113.83 482.09,112.12 485.70,119.20 489.31,116.29 492.93,113.87 496.54,113.22 500.15,114.04 503.76,112.58 507.38,113.24 510.99,112.35 514.60,114.12 518.21,112.24 521.83,114.57 525.44,112.02 529.05,115.03 532.66,113.17 536.27,113.69 539.89,110.94 543.50,117.16 547.11,114.22 550.73,112.06 554.34,113.18 557.95,111.96 561.56,115.32 565.17,112.37 568.79,112.82 572.40,111.66 576.01,114.26 579.62,110.96 583.24,114.17 586.85,111.81 590.46,110.49 594.08,111.72 597.69,110.64 601.30,111.19 604.91,111.08 608.52,109.92 612.14,110.53 615.75,110.43 619.36,110.73 622.98,110.46 626.59,110.42 630.20,110.51 633.81,111.03 637.42,110.34 641.04,110.45 644.65,110.11 648.26,110.92 651.88,109.80 655.49,111.47 659.10,109.55 662.71,111.62 666.33,109.69 669.94,110.22 673.55,109.83 677.16,110.04 680.77,109.54 684.39,110.81 688.00,109.97 691.61,110.01 695.23,109.87 698.84,110.08 702.45,111.21 706.06,109.54 709.67,110.60 713.29,109.54 716.90,110.83 720.51,109.77 724.12,111.43 727.74,109.78 731.35,111.07 734.96,109.78 738.58,110.03 742.19,110.25 745.80,109.90 749.41,109.79 753.02,109.58 756.64,110.96 760.25,109.68 763.86,109.33 767.48,109.87 771.09,108.85 774.70,110.60 778.31,109.58 781.92,108.84 785.54,109.35 789.15,108.92 792.76,109.11 796.38,108.87 799.99,109.11 803.60,108.74 807.21,109.50 810.83,108.67 814.44,109.77 818.05,108.92 821.66,109.40 825.27,108.84 828.89,108.94 832.50,108.74 836.11,109.48 839.73,108.89 843.34,109.03 846.95,109.24 850.56,109.01 854.17,108.91 857.79,108.80 861.40,108.63 865.01,108.78 868.62,108.66 872.24,108.60 875.85,108.68 879.46,108.60 883.08,108.56 886.69,108.74 890.30,108.50 893.91,108.74 897.52,108.68 901.14,108.38 904.75,108.53 908.36,108.74 911.98,108.38 915.59,108.55 919.20,108.44 922.81,108.66 926.42,108.34 930.04,108.56 933.65,108.33 937.26,108.49 940.88,108.60 944.49,108.49 948.10,108.72 951.71,108.43 955.33,108.43 958.94,108.53 962.55,108.43 966.16,108.52 969.77,108.30 973.39,108.79 977.00,108.42 980.61,108.75 984.23,108.67 987.84,108.32 991.45,108.59 995.06,108.50 998.67,108.33 1002.29,108.88 1005.90,108.51 1009.51,108.62 1013.12,108.27 1016.74,108.83 1020.35,108.28 1023.96,108.57 1027.58,108.59 1031.19,108.46 1034.80,108.53 1038.41,108.43 1042.03,108.60 1045.64,108.30 1049.25,108.54 1052.86,108.32 1056.47,108.58 1060.09,108.37 1063.70,108.33 1067.31,108.28 1070.92,108.24 1074.54,108.24 1078.15,108.19 1081.76,108.36 1085.38,108.17 1088.99,108.39 1092.60,108.18 1096.21,108.22 1099.83,108.19 1103.44,108.24 1107.05,108.20 1110.66,108.26 1114.28,108.23 1117.89,108.27 1121.50,108.23 1125.11,108.27 1128.72,108.20 1132.34,108.23 1135.95,108.08 1139.56,108.13 1143.17,108.09 1146.79,108.08 1150.40,108.14 1154.01,108.09 1157.62,108.08 1161.24,108.12 1164.85,108.07 1168.46,108.13 1172.08,108.07 1175.69,108.11 1179.30,108.09 1182.91,108.08 1186.53,108.07 1190.14,108.13 1193.75,108.06 1197.36,108.14 1200.97,108.06 1204.59,108.13 1208.20,108.05 1211.81,108.12 1215.42,108.05 1219.04,108.15 1222.65,108.05 1226.26,108.15 1229.88,108.02 1233.49,108.16 1237.10,108.04 1240.71,108.15 1244.33,108.06 1247.94,108.09 1251.55,108.05 1255.16,108.12 1258.78,108.06 1262.39,108.10 1266.00,108.07 1269.61,108.10 1273.22,108.06 1276.84,108.10 1280.45,108.04 1284.06,108.01 1287.67,108.03 1291.29,108.04 1294.90,108.01 1298.51,108.02 1302.12,108.03 1305.74,108.01 1309.35,108.02 1312.96,108.00 1316.58,108.02 1320.19,108.04 1323.80,108.00 1327.41,108.06 1331.03,108.00 1334.64,108.05 1338.25,108.02 1341.86,108.05 1345.47,107.99 1349.09,108.08 1352.70,108.00 1356.31,108.05 1359.92,108.02 1363.54,108.01 1367.15,108.01 1370.76,108.02 1374.38,108.00 1377.99,108.04 1381.60,108.03 1385.21,108.01 1388.83,108.04 1392.44,108.00 1396.05,107.99 1399.66,108.00 1403.28,107.99 1406.89,107.98 1410.50,108.00 1414.11,107.98 1417.72,107.99 1421.34,107.98 1424.95,108.01 1428.56,107.98 1432.17,107.97 1435.79,108.01 1439.40,107.98 1443.01,107.99 1446.62,107.98 1450.24,107.99 1453.85,107.99 1457.46,107.99 1461.08,107.98 1464.69,107.99 1468.30,107.98 1471.91,107.99 1475.53,107.98 1479.14,108.00 1482.75,107.98 1486.36,107.98 1489.97,107.97 1493.59,107.97 1497.20,107.97 1500.81,107.97 1504.42,107.97 1508.04,107.97 1511.65,107.97 1515.26,107.97 1518.88,107.97 1522.49,107.97 1526.10,107.98 1529.71,107.97 1533.33,107.97 1536.94,107.96 1540.55,107.97 1544.16,107.97 1547.78,107.98 1551.39,107.96 1555.00,107.98 1558.61,107.96 1562.22,107.98 1565.84,107.97 1569.45,107.97 1573.06,107.97 1576.67,107.97 1580.29,107.97 1583.90,107.97 1587.51,107.97 1591.12,107.97 1594.74,107.97 1598.35,107.97 1601.96,107.97 1605.58,107.97 1609.19,107.96 1612.80,107.97 1616.41,107.96 1620.03,107.96 1623.64,107.96 1627.25,107.96 1630.86,107.96 1634.47,107.96 1638.09,107.97 1641.70,107.96 1645.31,107.96 1648.92,107.96 1652.54,107.96 1656.15,107.96 1659.76,107.96 1663.38,107.97 1666.99,107.96 1670.60,107.96 1674.21,107.96 1677.83,107.96 1681.44,107.96 1685.05,107.96 1688.66,107.96 1692.28,107.96 1695.89,107.96 1699.50,107.96 1703.11,107.96 1706.72,107.96 1710.34,107.96 1713.95,107.96 1717.56,107.96 1721.17,107.96 1724.79,107.96 1728.40,107.96 1732.01,107.96 1735.62,107.96 1739.24,107.96 1742.85,107.96 1746.46,107.96 1750.08,107.96 1753.69,107.96 1757.30,107.96 1760.91,107.96 1764.53,107.96 1768.14,107.96 1771.75,107.96 1775.36,107.96 1778.97,107.96 1782.59,107.96 1786.20,107.96 1789.81,107.96 1793.42,107.96 1797.04,107.96 1800.65,107.96 1804.26,107.96 1807.88,107.96 1811.49,107.96 1815.10,107.96 1818.71,107.96 1822.33,107.96 1825.94,107.96 1829.55,107.96 1833.16,107.96 1836.78,107.96 1840.39,107.96 1844.00,107.96 1847.61,107.96 1851.22,107.96 1854.84,107.96 1858.45,107.96 1862.06,107.96 1865.67,107.96 1869.29,107.96 1872.90,107.95 1876.51,107.96 1880.12,107.95 1883.74,107.96 1887.35,107.95 1890.96,107.96 1894.58,107.95 1898.19,107.95 1901.80,107.95 1905.41,107.95 1909.03,107.96 1912.64,107.96 1916.25,107.95 1919.86,107.95 1923.47,107.95 1927.09,107.95 1930.70,107.95 1934.31,107.95 1937.92,107.95 1941.54,107.95 1945.15,107.95 1948.76,107.95 1952.38,107.95 1955.99,107.95 1959.60,107.95 1963.21,107.95 1966.83,107.95 1970.44,107.95 1974.05,107.95 1977.66,107.95 1981.28,107.95 1984.89,107.95 1988.50,107.95 1992.11,107.95 1995.72,107.95 1999.34,107.95 2002.95,107.95 2006.56,107.95 2010.17,107.95 2013.79,107.95 2017.40,107.95 2021.01,107.95 2024.62,107.95 2028.24,107.95 2031.85,107.95 2035.46,107.95 2039.08,107.95 2042.69,107.95 2046.30,107.95 2049.91,107.95 2053.53,107.95 2057.14,107.95 2060.75,107.95 2064.36,107.95 2067.97,107.95 2071.59,107.95 2075.20,107.95 2078.81,107.95 2082.43,107.95 2086.04,107.95 2089.65,107.95 2093.26,107.95 2096.88,107.95 2100.49,107.95 2104.10,107.95 2107.71,107.95 2111.32,107.95 2114.94,107.95 2118.55,107.95 2122.16,107.95 2125.78,107.95 2129.39,112.10 2133.00,111.23 2136.61,110.07 2140.22,109.91 2143.84,110.18 2147.45,110.24 2151.06,109.95 2154.68,109.11 2158.29,110.18 2161.90,111.11 2165.51,110.03 2169.12,111.08 2172.74,110.55 2176.35,111.41 2179.96,110.14 2183.57,111.24 2187.19,109.90 2190.80,109.89 2194.41,110.77 2198.03,110.79 2201.64,110.37 2205.25,110.41 2208.86,110.17 2212.47,110.31 2216.09,109.77 2219.70,110.19 2223.31,110.25 2226.93,110.30 2230.54,109.52 2234.15,109.42 2237.76,111.02 2241.38,110.47 2244.99,111.14 2248.60,110.21 2252.21,111.61 2255.82,109.83 2259.44,110.62 2263.05,110.27 2266.66,110.49 2270.28,110.29 2273.89,110.54 2277.50,110.22 2281.11,110.38 2284.72,110.03 2288.34,110.04 2291.95,109.09 2295.56,111.28 2299.18,110.00 2302.79,110.42 2306.40,110.10 2310.01,109.66 2313.62,108.90 2317.24,109.23 2320.85,109.30 2324.46,108.85 2328.07,108.86 2331.69,109.17 2335.30,108.82 2338.91,108.85 2342.53,108.74 2346.14,108.77 2349.75,109.25 2353.36,109.02 2356.97,108.97 2360.59,109.03 2364.20,108.95 2367.81,108.78 2371.43,108.78 2375.04,108.80 2378.65,108.83 2382.26,108.78 2385.88,108.84 2389.49,109.03 2393.10,109.09 2396.71,109.16 2400.32,108.55 2403.94,108.62 2407.55,108.42 2411.16,108.41 2414.78,108.51 2418.39,108.48 2422.00,108.27 2425.61,108.37 2429.22,108.22 2432.84,108.45 2436.45,108.41 2440.06,108.48 2443.68,108.36 2447.29,108.19 2450.90,108.21 2454.51,108.21 2458.12,108.16 2461.74,108.18 2465.35,108.10 2468.96,108.11 2472.57,108.11" fill="none" stroke="#059669" stroke-width="1.2" stroke-opacity="0.28" stroke-linejoin="round"/>
<polyline points="113.61,432.91 117.22,432.91 120.84,432.91 124.45,432.91 128.06,432.91 131.68,432.91 135.29,432.91 138.90,302.73 142.51,302.73 146.12,302.73 149.74,302.73 153.35,302.73 156.96,302.73 160.57,302.73 164.19,302.73 167.80,302.73 171.41,302.73 175.03,302.73 178.64,302.73 182.25,302.73 185.86,302.73 189.47,237.89 193.09,195.66 196.70,191.07 200.31,170.99 203.93,170.99 207.54,170.99 211.15,167.73 214.76,159.69 218.38,159.69 221.99,159.69 225.60,155.43 229.21,155.43 232.82,155.43 236.44,155.43 240.05,155.43 243.66,155.43 247.28,155.43 250.89,155.43 254.50,155.43 258.11,155.43 261.73,155.43 265.34,155.43 268.95,155.43 272.56,155.43 276.18,128.73 279.79,128.73 283.40,126.80 287.01,126.80 290.62,126.46 294.24,126.46 297.85,124.04 301.46,124.04 305.07,124.04 308.69,124.04 312.30,124.04 315.91,124.04 319.52,124.04 323.14,124.04 326.75,124.04 330.36,124.04 333.98,124.04 337.59,124.04 341.20,124.04 344.81,124.04 348.43,118.43 352.04,118.43 355.65,118.43 359.26,118.43 362.88,118.43 366.49,118.43 370.10,117.51 373.71,117.51 377.32,117.51 380.94,117.51 384.55,116.72 388.16,116.72 391.77,116.04 395.39,116.04 399.00,116.04 402.61,116.04 406.23,116.04 409.84,116.04 413.45,116.04 417.06,116.04 420.68,116.04 424.29,116.04 427.90,116.04 431.51,116.04 435.12,116.04 438.74,116.04 442.35,115.54 445.96,114.73 449.57,114.31 453.19,113.90 456.80,113.90 460.41,113.47 464.02,113.47 467.64,112.90 471.25,112.90 474.86,112.90 478.48,112.90 482.09,112.12 485.70,112.12 489.31,112.12 492.93,112.12 496.54,112.12 500.15,112.12 503.76,112.12 507.38,112.12 510.99,112.12 514.60,112.12 518.21,112.12 521.83,112.12 525.44,112.02 529.05,112.02 532.66,112.02 536.27,112.02 539.89,110.94 543.50,110.94 547.11,110.94 550.73,110.94 554.34,110.94 557.95,110.94 561.56,110.94 565.17,110.94 568.79,110.94 572.40,110.94 576.01,110.94 579.62,110.94 583.24,110.94 586.85,110.94 590.46,110.49 594.08,110.49 597.69,110.49 601.30,110.49 604.91,110.49 608.52,109.92 612.14,109.92 615.75,109.92 619.36,109.92 622.98,109.92 626.59,109.92 630.20,109.92 633.81,109.92 637.42,109.92 641.04,109.92 644.65,109.92 648.26,109.92 651.88,109.80 655.49,109.80 659.10,109.55 662.71,109.55 666.33,109.55 669.94,109.55 673.55,109.55 677.16,109.55 680.77,109.54 684.39,109.54 688.00,109.54 691.61,109.54 695.23,109.54 698.84,109.54 702.45,109.54 706.06,109.54 709.67,109.54 713.29,109.54 716.90,109.54 720.51,109.54 724.12,109.54 727.74,109.54 731.35,109.54 734.96,109.54 738.58,109.54 742.19,109.54 745.80,109.54 749.41,109.54 753.02,109.54 756.64,109.54 760.25,109.54 763.86,109.33 767.48,109.33 771.09,108.85 774.70,108.85 778.31,108.85 781.92,108.84 785.54,108.84 789.15,108.84 792.76,108.84 796.38,108.84 799.99,108.84 803.60,108.74 807.21,108.74 810.83,108.67 814.44,108.67 818.05,108.67 821.66,108.67 825.27,108.67 828.89,108.67 832.50,108.67 836.11,108.67 839.73,108.67 843.34,108.67 846.95,108.67 850.56,108.67 854.17,108.67 857.79,108.67 861.40,108.63 865.01,108.63 868.62,108.63 872.24,108.60 875.85,108.60 879.46,108.60 883.08,108.56 886.69,108.56 890.30,108.50 893.91,108.50 897.52,108.50 901.14,108.38 904.75,108.38 908.36,108.38 911.98,108.38 915.59,108.38 919.20,108.38 922.81,108.38 926.42,108.34 930.04,108.34 933.65,108.33 937.26,108.33 940.88,108.33 944.49,108.33 948.10,108.33 951.71,108.33 955.33,108.33 958.94,108.33 962.55,108.33 966.16,108.33 969.77,108.30 973.39,108.30 977.00,108.30 980.61,108.30 984.23,108.30 987.84,108.30 991.45,108.30 995.06,108.30 998.67,108.30 1002.29,108.30 1005.90,108.30 1009.51,108.30 1013.12,108.27 1016.74,108.27 1020.35,108.27 1023.96,108.27 1027.58,108.27 1031.19,108.27 1034.80,108.27 1038.41,108.27 1042.03,108.27 1045.64,108.27 1049.25,108.27 1052.86,108.27 1056.47,108.27 1060.09,108.27 1063.70,108.27 1067.31,108.27 1070.92,108.24 1074.54,108.24 1078.15,108.19 1081.76,108.19 1085.38,108.17 1088.99,108.17 1092.60,108.17 1096.21,108.17 1099.83,108.17 1103.44,108.17 1107.05,108.17 1110.66,108.17 1114.28,108.17 1117.89,108.17 1121.50,108.17 1125.11,108.17 1128.72,108.17 1132.34,108.17 1135.95,108.08 1139.56,108.08 1143.17,108.08 1146.79,108.08 1150.40,108.08 1154.01,108.08 1157.62,108.08 1161.24,108.08 1164.85,108.07 1168.46,108.07 1172.08,108.07 1175.69,108.07 1179.30,108.07 1182.91,108.07 1186.53,108.07 1190.14,108.07 1193.75,108.06 1197.36,108.06 1200.97,108.06 1204.59,108.06 1208.20,108.05 1211.81,108.05 1215.42,108.05 1219.04,108.05 1222.65,108.05 1226.26,108.05 1229.88,108.02 1233.49,108.02 1237.10,108.02 1240.71,108.02 1244.33,108.02 1247.94,108.02 1251.55,108.02 1255.16,108.02 1258.78,108.02 1262.39,108.02 1266.00,108.02 1269.61,108.02 1273.22,108.02 1276.84,108.02 1280.45,108.02 1284.06,108.01 1287.67,108.01 1291.29,108.01 1294.90,108.01 1298.51,108.01 1302.12,108.01 1305.74,108.01 1309.35,108.01 1312.96,108.00 1316.58,108.00 1320.19,108.00 1323.80,108.00 1327.41,108.00 1331.03,108.00 1334.64,108.00 1338.25,108.00 1341.86,108.00 1345.47,107.99 1349.09,107.99 1352.70,107.99 1356.31,107.99 1359.92,107.99 1363.54,107.99 1367.15,107.99 1370.76,107.99 1374.38,107.99 1377.99,107.99 1381.60,107.99 1385.21,107.99 1388.83,107.99 1392.44,107.99 1396.05,107.99 1399.66,107.99 1403.28,107.99 1406.89,107.98 1410.50,107.98 1414.11,107.98 1417.72,107.98 1421.34,107.98 1424.95,107.98 1428.56,107.98 1432.17,107.97 1435.79,107.97 1439.40,107.97 1443.01,107.97 1446.62,107.97 1450.24,107.97 1453.85,107.97 1457.46,107.97 1461.08,107.97 1464.69,107.97 1468.30,107.97 1471.91,107.97 1475.53,107.97 1479.14,107.97 1482.75,107.97 1486.36,107.97 1489.97,107.97 1493.59,107.97 1497.20,107.97 1500.81,107.97 1504.42,107.97 1508.04,107.97 1511.65,107.97 1515.26,107.97 1518.88,107.97 1522.49,107.97 1526.10,107.97 1529.71,107.97 1533.33,107.97 1536.94,107.96 1540.55,107.96 1544.16,107.96 1547.78,107.96 1551.39,107.96 1555.00,107.96 1558.61,107.96 1562.22,107.96 1565.84,107.96 1569.45,107.96 1573.06,107.96 1576.67,107.96 1580.29,107.96 1583.90,107.96 1587.51,107.96 1591.12,107.96 1594.74,107.96 1598.35,107.96 1601.96,107.96 1605.58,107.96 1609.19,107.96 1612.80,107.96 1616.41,107.96 1620.03,107.96 1623.64,107.96 1627.25,107.96 1630.86,107.96 1634.47,107.96 1638.09,107.96 1641.70,107.96 1645.31,107.96 1648.92,107.96 1652.54,107.96 1656.15,107.96 1659.76,107.96 1663.38,107.96 1666.99,107.96 1670.60,107.96 1674.21,107.96 1677.83,107.96 1681.44,107.96 1685.05,107.96 1688.66,107.96 1692.28,107.96 1695.89,107.96 1699.50,107.96 1703.11,107.96 1706.72,107.96 1710.34,107.96 1713.95,107.96 1717.56,107.96 1721.17,107.96 1724.79,107.96 1728.40,107.96 1732.01,107.96 1735.62,107.96 1739.24,107.96 1742.85,107.96 1746.46,107.96 1750.08,107.96 1753.69,107.96 1757.30,107.96 1760.91,107.96 1764.53,107.96 1768.14,107.96 1771.75,107.96 1775.36,107.96 1778.97,107.96 1782.59,107.96 1786.20,107.96 1789.81,107.96 1793.42,107.96 1797.04,107.96 1800.65,107.96 1804.26,107.96 1807.88,107.96 1811.49,107.96 1815.10,107.96 1818.71,107.96 1822.33,107.96 1825.94,107.96 1829.55,107.96 1833.16,107.96 1836.78,107.96 1840.39,107.96 1844.00,107.96 1847.61,107.96 1851.22,107.96 1854.84,107.96 1858.45,107.96 1862.06,107.96 1865.67,107.96 1869.29,107.96 1872.90,107.95 1876.51,107.95 1880.12,107.95 1883.74,107.95 1887.35,107.95 1890.96,107.95 1894.58,107.95 1898.19,107.95 1901.80,107.95 1905.41,107.95 1909.03,107.95 1912.64,107.95 1916.25,107.95 1919.86,107.95 1923.47,107.95 1927.09,107.95 1930.70,107.95 1934.31,107.95 1937.92,107.95 1941.54,107.95 1945.15,107.95 1948.76,107.95 1952.38,107.95 1955.99,107.95 1959.60,107.95 1963.21,107.95 1966.83,107.95 1970.44,107.95 1974.05,107.95 1977.66,107.95 1981.28,107.95 1984.89,107.95 1988.50,107.95 1992.11,107.95 1995.72,107.95 1999.34,107.95 2002.95,107.95 2006.56,107.95 2010.17,107.95 2013.79,107.95 2017.40,107.95 2021.01,107.95 2024.62,107.95 2028.24,107.95 2031.85,107.95 2035.46,107.95 2039.08,107.95 2042.69,107.95 2046.30,107.95 2049.91,107.95 2053.53,107.95 2057.14,107.95 2060.75,107.95 2064.36,107.95 2067.97,107.95 2071.59,107.95 2075.20,107.95 2078.81,107.95 2082.43,107.95 2086.04,107.95 2089.65,107.95 2093.26,107.95 2096.88,107.95 2100.49,107.95 2104.10,107.95 2107.71,107.95 2111.32,107.95 2114.94,107.95 2118.55,107.95 2122.16,107.95 2125.78,107.95 2129.39,107.95 2133.00,107.95 2136.61,107.95 2140.22,107.95 2143.84,107.95 2147.45,107.95 2151.06,107.95 2154.68,107.95 2158.29,107.95 2161.90,107.95 2165.51,107.95 2169.12,107.95 2172.74,107.95 2176.35,107.95 2179.96,107.95 2183.57,107.95 2187.19,107.95 2190.80,107.95 2194.41,107.95 2198.03,107.95 2201.64,107.95 2205.25,107.95 2208.86,107.95 2212.47,107.95 2216.09,107.95 2219.70,107.95 2223.31,107.95 2226.93,107.95 2230.54,107.95 2234.15,107.95 2237.76,107.95 2241.38,107.95 2244.99,107.95 2248.60,107.95 2252.21,107.95 2255.82,107.95 2259.44,107.95 2263.05,107.95 2266.66,107.95 2270.28,107.95 2273.89,107.95 2277.50,107.95 2281.11,107.95 2284.72,107.95 2288.34,107.95 2291.95,107.95 2295.56,107.95 2299.18,107.95 2302.79,107.95 2306.40,107.95 2310.01,107.95 2313.62,107.95 2317.24,107.95 2320.85,107.95 2324.46,107.95 2328.07,107.95 2331.69,107.95 2335.30,107.95 2338.91,107.95 2342.53,107.95 2346.14,107.95 2349.75,107.95 2353.36,107.95 2356.97,107.95 2360.59,107.95 2364.20,107.95 2367.81,107.95 2371.43,107.95 2375.04,107.95 2378.65,107.95 2382.26,107.95 2385.88,107.95 2389.49,107.95 2393.10,107.95 2396.71,107.95 2400.32,107.95 2403.94,107.95 2407.55,107.95 2411.16,107.95 2414.78,107.95 2418.39,107.95 2422.00,107.95 2425.61,107.95 2429.22,107.95 2432.84,107.95 2436.45,107.95 2440.06,107.95 2443.68,107.95 2447.29,107.95 2450.90,107.95 2454.51,107.95 2458.12,107.95 2461.74,107.95 2465.35,107.95 2468.96,107.95 2472.57,107.95 7335.00,107.95" fill="none" stroke="#059669" stroke-width="2.5" stroke-linejoin="round" stroke-linecap="round"/>
</g>
<g data-series="hybrid-reverse">
<polyline points="113.61,432.91 117.22,412.54 120.84,379.57 124.45,334.82 128.06,301.39 131.68,287.06 135.29,366.81 138.90,402.13 142.51,428.38 146.12,466.41 149.74,426.57 153.35,468.22 156.96,453.36 160.57,383.26 164.19,458.72 167.80,455.17 171.41,486.33 175.03,399.26 178.64,510.71 182.25,386.05 185.86,434.87 189.47,457.36 193.09,470.04 196.70,415.26 200.31,475.62 203.93,415.26 207.54,429.52 211.15,468.38 214.76,486.18 218.38,470.64 221.99,369.76 225.60,410.43 229.21,444.83 232.82,456.38 236.44,421.74 240.05,409.90 243.66,453.21 247.28,497.20 250.89,404.24 254.50,408.69 258.11,461.51 261.73,414.12 265.34,415.48 268.95,455.17 272.56,384.17 276.18,360.17 279.79,408.54 283.40,405.22 287.01,529.87 290.62,568.13 294.24,418.58 297.85,343.20 301.46,253.93 305.07,220.13 308.69,206.85 312.30,185.50 315.91,203.38 319.52,209.72 323.14,202.85 326.75,197.79 330.36,214.32 333.98,216.96 337.59,193.19 341.20,192.59 344.81,184.29 348.43,199.30 352.04,191.23 355.65,236.50 359.26,205.11 362.88,200.66 366.49,214.70 370.10,226.17 373.71,205.79 377.32,228.66 380.94,216.51 384.55,200.89 388.16,170.03 391.77,157.50 395.39,154.03 399.00,147.69 402.61,147.84 406.23,142.11 409.84,140.60 413.45,136.90 417.06,138.49 420.68,140.22 424.29,141.05 427.90,135.39 431.51,132.07 435.12,125.36 438.74,124.91 442.35,124.83 445.96,123.55 449.57,124.45 453.19,120.68 456.80,117.66 460.41,118.34 464.02,117.59 467.64,116.45 471.25,117.13 474.86,116.04 478.48,115.59 482.09,116.00 485.70,115.32 489.31,114.64 492.93,114.38 496.54,113.93 500.15,113.81 503.76,113.66 507.38,113.68 510.99,113.70 514.60,114.04 518.21,113.65 521.83,113.29 525.44,113.21 529.05,113.13 532.66,113.08 536.27,113.06 539.89,113.04 543.50,113.03 547.11,113.02 550.73,113.03 554.34,113.01 557.95,113.01 561.56,486.15 565.17,267.25 568.79,353.49 572.40,315.37 576.01,331.17 579.62,288.59 583.24,315.49 586.85,328.17 590.46,308.35 594.08,294.76 597.69,334.23 601.30,351.28 604.91,315.21 608.52,209.39 612.14,189.36 615.75,160.80 619.36,190.10 622.98,178.17 626.59,160.45 630.20,178.70 633.81,170.62 637.42,161.97 641.04,171.89 644.65,166.84 648.26,159.89 651.88,129.82 655.49,136.78 659.10,136.90 662.71,131.68 666.33,136.46 669.94,126.22 673.55,138.43 677.16,123.77 680.77,134.30 684.39,127.06 688.00,129.37 691.61,129.49 695.23,120.65 698.84,122.48 702.45,119.70 706.06,119.13 709.67,121.86 713.29,117.43 716.90,119.95 720.51,117.34 724.12,122.96 727.74,117.22 731.35,121.78 734.96,117.26 738.58,114.16 742.19,116.78 745.80,114.41 749.41,117.75 753.02,113.42 756.64,114.70 760.25,113.93 763.86,114.77 767.48,113.95 771.09,112.52 774.70,117.26 778.31,113.41 781.92,113.78 785.54,112.98 789.15,115.62 792.76,112.59 796.38,119.12 799.99,113.17 803.60,113.08 807.21,111.96 810.83,115.99 814.44,112.67 818.05,115.03 821.66,112.11 825.27,114.14 828.89,112.40 832.50,113.42 836.11,113.96 839.73,111.42 843.34,113.48 846.95,112.58 850.56,112.48 854.17,111.69 857.79,112.41 861.40,112.17 865.01,112.52 868.62,113.47 872.24,111.11 875.85,114.85 879.46,111.50 883.08,111.47 886.69,113.02 890.30,112.62 893.91,112.81 897.52,110.98 901.14,112.92 904.75,111.96 908.36,111.50 911.98,113.53 915.59,111.59 919.20,114.92 922.81,110.84 926.42,115.16 930.04,112.29 933.65,112.65 937.26,112.47 940.88,112.27 944.49,112.36 948.10,112.50 951.71,111.91 955.33,112.28 958.94,111.21 962.55,113.63 966.16,111.54 969.77,115.07 973.39,112.71 977.00,110.85 980.61,110.41 984.23,110.63 987.84,109.79 991.45,110.99 995.06,109.44 998.67,111.32 1002.29,110.54 1005.90,109.78 1009.51,112.72 1013.12,110.26 1016.74,111.97 1020.35,109.34 1023.96,111.69 1027.58,110.28 1031.19,109.79 1034.80,109.92 1038.41,110.44 1042.03,109.74 1045.64,111.42 1049.25,109.41 1052.86,110.98 1056.47,110.22 1060.09,110.71 1063.70,109.23 1067.31,110.31 1070.92,109.70 1074.54,109.96 1078.15,109.92 1081.76,110.00 1085.38,109.64 1088.99,109.85 1092.60,110.31 1096.21,109.63 1099.83,109.80 1103.44,109.86 1107.05,110.80 1110.66,109.39 1114.28,109.04 1117.89,109.24 1121.50,108.99 1125.11,110.09 1128.72,109.45 1132.34,109.23 1135.95,108.99 1139.56,109.54 1143.17,108.65 1146.79,110.19 1150.40,109.27 1154.01,109.10 1157.62,109.20 1161.24,108.71 1164.85,109.39 1168.46,108.86 1172.08,109.35 1175.69,109.13 1179.30,109.12 1182.91,109.44 1186.53,108.75 1190.14,109.53 1193.75,108.90 1197.36,108.59 1200.97,108.64 1204.59,108.48 1208.20,108.67 1211.81,108.47 1215.42,108.79 1219.04,108.42 1222.65,108.96 1226.26,108.44 1229.88,108.58 1233.49,108.60 1237.10,108.61 1240.71,108.38 1244.33,108.73 1247.94,108.55 1251.55,108.52 1255.16,108.77 1258.78,108.42 1262.39,108.74 1266.00,108.40 1269.61,108.71 1273.22,108.39 1276.84,108.86 1280.45,108.42 1284.06,108.81 1287.67,108.43 1291.29,108.24 1294.90,108.44 1298.51,108.22 1302.12,108.44 1305.74,108.33 1309.35,108.36 1312.96,108.24 1316.58,108.49 1320.19,108.22 1323.80,108.41 1327.41,108.31 1331.03,108.31 1334.64,108.25 1338.25,108.30 1341.86,108.29 1345.47,108.32 1349.09,108.27 1352.70,108.29 1356.31,108.23 1359.92,108.25 1363.54,108.39 1367.15,108.16 1370.76,108.18 1374.38,108.22 1377.99,108.16 1381.60,108.21 1385.21,108.20 1388.83,108.12 1392.44,108.20 1396.05,108.16 1399.66,108.18 1403.28,108.10 1406.89,108.27 1410.50,108.13 1414.11,108.19 1417.72,108.13 1421.34,108.18 1424.95,108.15 1428.56,108.21 1432.17,108.15 1435.79,108.14 1439.40,108.16 1443.01,108.18 1446.62,108.13 1450.24,108.16 1453.85,108.11 1457.46,108.12 1461.08,108.07 1464.69,108.12 1468.30,108.07 1471.91,108.11 1475.53,108.06 1479.14,108.10 1482.75,108.06 1486.36,108.11 1489.97,108.07 1493.59,108.08 1497.20,108.07 1500.81,108.07 1504.42,108.09 1508.04,108.09 1511.65,108.07 1515.26,108.08 1518.88,108.05 1522.49,108.11 1526.10,108.05 1529.71,108.10 1533.33,108.04 1536.94,108.09 1540.55,108.09 1544.16,108.07 1547.78,108.09 1551.39,108.06 1555.00,108.10 1558.61,108.08 1562.22,108.08 1565.84,108.06 1569.45,108.10 1573.06,108.06 1576.67,108.08 1580.29,108.05 1583.90,108.04 1587.51,108.06 1591.12,108.05 1594.74,108.04 1598.35,108.05 1601.96,108.03 1605.58,108.05 1609.19,108.03 1612.80,108.06 1616.41,108.04 1620.03,108.05 1623.64,108.04 1627.25,108.04 1630.86,108.04 1634.47,108.05 1638.09,108.04 1641.70,108.05 1645.31,108.03 1648.92,108.04 1652.54,108.05 1656.15,108.06 1659.76,108.03 1663.38,108.02 1666.99,108.03 1670.60,108.02 1674.21,108.03 1677.83,108.03 1681.44,108.03 1685.05,108.02 1688.66,108.04 1692.28,108.02 1695.89,108.03 1699.50,108.03 1703.11,108.02 1706.72,108.02 1710.34,108.03 1713.95,108.02 1717.56,108.03 1721.17,108.02 1724.79,108.01 1728.40,108.02 1732.01,108.02 1735.62,108.02 1739.24,108.01 1742.85,108.02 1746.46,108.02 1750.08,108.01 1753.69,108.02 1757.30,108.01 1760.91,108.02 1764.53,108.02 1768.14,108.01 1771.75,108.02 1775.36,108.02 1778.97,108.01 1782.59,108.02 1786.20,108.01 1789.81,108.02 1793.42,108.02 1797.04,108.01 1800.65,108.02 1804.26,108.01 1807.88,108.02 1811.49,108.01 1815.10,108.02 1818.71,108.01 1822.33,108.02 1825.94,108.01 1829.55,108.02 1833.16,108.01 1836.78,108.02 1840.39,108.01 1844.00,108.01 1847.61,108.01 1851.22,108.02 1854.84,108.01 1858.45,108.02 1862.06,108.01 1865.67,108.01 1869.29,108.02 1872.90,108.01 1876.51,108.01 1880.12,108.02 1883.74,108.01 1887.35,108.02 1890.96,108.01 1894.58,108.01 1898.19,108.01 1901.80,108.01 1905.41,108.01 1909.03,108.01 1912.64,108.01 1916.25,108.01 1919.86,108.01 1923.47,108.01 1927.09,108.01 1930.70,108.01 1934.31,108.01 1937.92,108.01 1941.54,108.01 1945.15,108.01 1948.76,108.01 1952.38,108.01 1955.99,108.01 1959.60,108.01 1963.21,108.01 1966.83,108.01 1970.44,108.01 1974.05,108.01 1977.66,108.01 1981.28,108.01 1984.89,108.01 1988.50,108.01 1992.11,108.01 1995.72,108.01 1999.34,108.01 2002.95,108.01 2006.56,108.01 2010.17,108.01 2013.79,108.01 2017.40,108.01 2021.01,108.01 2024.62,108.01 2028.24,108.01 2031.85,108.01 2035.46,108.01 2039.08,108.01 2042.69,108.01 2046.30,108.01 2049.91,108.01 2053.53,108.01 2057.14,108.01 2060.75,108.01 2064.36,108.01 2067.97,108.01 2071.59,108.01 2075.20,108.01 2078.81,108.01 2082.43,108.01 2086.04,108.01 2089.65,108.01 2093.26,108.01 2096.88,108.01 2100.49,108.01 2104.10,108.01 2107.71,108.01 2111.32,108.01 2114.94,108.01 2118.55,108.01 2122.16,108.01 2125.78,108.01 2129.39,108.01 2133.00,108.01 2136.61,108.01 2140.22,108.01 2143.84,108.01 2147.45,108.01 2151.06,108.01 2154.68,108.01 2158.29,108.01 2161.90,108.01 2165.51,108.01 2169.12,108.01 2172.74,108.01 2176.35,108.01 2179.96,108.01 2183.57,108.01 2187.19,108.01 2190.80,108.01 2194.41,108.01 2198.03,108.01 2201.64,108.01 2205.25,108.01 2208.86,108.01 2212.47,108.01 2216.09,108.01 2219.70,108.01 2223.31,108.01 2226.93,108.01 2230.54,108.01 2234.15,108.01 2237.76,108.01 2241.38,108.01 2244.99,108.01 2248.60,108.01 2252.21,108.01 2255.82,108.01 2259.44,108.01" fill="none" stroke="#7c3aed" stroke-width="1.2" stroke-opacity="0.28" stroke-linejoin="round"/>
<polyline points="113.61,432.91 117.22,412.54 120.84,379.57 124.45,334.82 128.06,301.39 131.68,287.06 135.29,287.06 138.90,287.06 142.51,287.06 146.12,287.06 149.74,287.06 153.35,287.06 156.96,287.06 160.57,287.06 164.19,287.06 167.80,287.06 171.41,287.06 175.03,287.06 178.64,287.06 182.25,287.06 185.86,287.06 189.47,287.06 193.09,287.06 196.70,287.06 200.31,287.06 203.93,287.06 207.54,287.06 211.15,287.06 214.76,287.06 218.38,287.06 221.99,287.06 225.60,287.06 229.21,287.06 232.82,287.06 236.44,287.06 240.05,287.06 243.66,287.06 247.28,287.06 250.89,287.06 254.50,287.06 258.11,287.06 261.73,287.06 265.34,287.06 268.95,287.06 272.56,287.06 276.18,287.06 279.79,287.06 283.40,287.06 287.01,287.06 290.62,287.06 294.24,287.06 297.85,287.06 301.46,253.93 305.07,220.13 308.69,206.85 312.30,185.50 315.91,185.50 319.52,185.50 323.14,185.50 326.75,185.50 330.36,185.50 333.98,185.50 337.59,185.50 341.20,185.50 344.81,184.29 348.43,184.29 352.04,184.29 355.65,184.29 359.26,184.29 362.88,184.29 366.49,184.29 370.10,184.29 373.71,184.29 377.32,184.29 380.94,184.29 384.55,184.29 388.16,170.03 391.77,157.50 395.39,154.03 399.00,147.69 402.61,147.69 406.23,142.11 409.84,140.60 413.45,136.90 417.06,136.90 420.68,136.90 424.29,136.90 427.90,135.39 431.51,132.07 435.12,125.36 438.74,124.91 442.35,124.83 445.96,123.55 449.57,123.55 453.19,120.68 456.80,117.66 460.41,117.66 464.02,117.59 467.64,116.45 471.25,116.45 474.86,116.04 478.48,115.59 482.09,115.59 485.70,115.32 489.31,114.64 492.93,114.38 496.54,113.93 500.15,113.81 503.76,113.66 507.38,113.66 510.99,113.66 514.60,113.66 518.21,113.65 521.83,113.29 525.44,113.21 529.05,113.13 532.66,113.08 536.27,113.06 539.89,113.04 543.50,113.03 547.11,113.02 550.73,113.02 554.34,113.01 557.95,113.01 561.56,113.01 565.17,113.01 568.79,113.01 572.40,113.01 576.01,113.01 579.62,113.01 583.24,113.01 586.85,113.01 590.46,113.01 594.08,113.01 597.69,113.01 601.30,113.01 604.91,113.01 608.52,113.01 612.14,113.01 615.75,113.01 619.36,113.01 622.98,113.01 626.59,113.01 630.20,113.01 633.81,113.01 637.42,113.01 641.04,113.01 644.65,113.01 648.26,113.01 651.88,113.01 655.49,113.01 659.10,113.01 662.71,113.01 666.33,113.01 669.94,113.01 673.55,113.01 677.16,113.01 680.77,113.01 684.39,113.01 688.00,113.01 691.61,113.01 695.23,113.01 698.84,113.01 702.45,113.01 706.06,113.01 709.67,113.01 713.29,113.01 716.90,113.01 720.51,113.01 724.12,113.01 727.74,113.01 731.35,113.01 734.96,113.01 738.58,113.01 742.19,113.01 745.80,113.01 749.41,113.01 753.02,113.01 756.64,113.01 760.25,113.01 763.86,113.01 767.48,113.01 771.09,112.52 774.70,112.52 778.31,112.52 781.92,112.52 785.54,112.52 789.15,112.52 792.76,112.52 796.38,112.52 799.99,112.52 803.60,112.52 807.21,111.96 810.83,111.96 814.44,111.96 818.05,111.96 821.66,111.96 825.27,111.96 828.89,111.96 832.50,111.96 836.11,111.96 839.73,111.42 843.34,111.42 846.95,111.42 850.56,111.42 854.17,111.42 857.79,111.42 861.40,111.42 865.01,111.42 868.62,111.42 872.24,111.11 875.85,111.11 879.46,111.11 883.08,111.11 886.69,111.11 890.30,111.11 893.91,111.11 897.52,110.98 901.14,110.98 904.75,110.98 908.36,110.98 911.98,110.98 915.59,110.98 919.20,110.98 922.81,110.84 926.42,110.84 930.04,110.84 933.65,110.84 937.26,110.84 940.88,110.84 944.49,110.84 948.10,110.84 951.71,110.84 955.33,110.84 958.94,110.84 962.55,110.84 966.16,110.84 969.77,110.84 973.39,110.84 977.00,110.84 980.61,110.41 984.23,110.41 987.84,109.79 991.45,109.79 995.06,109.44 998.67,109.44 1002.29,109.44 1005.90,109.44 1009.51,109.44 1013.12,109.44 1016.74,109.44 1020.35,109.34 1023.96,109.34 1027.58,109.34 1031.19,109.34 1034.80,109.34 1038.41,109.34 1042.03,109.34 1045.64,109.34 1049.25,109.34 1052.86,109.34 1056.47,109.34 1060.09,109.34 1063.70,109.23 1067.31,109.23 1070.92,109.23 1074.54,109.23 1078.15,109.23 1081.76,109.23 1085.38,109.23 1088.99,109.23 1092.60,109.23 1096.21,109.23 1099.83,109.23 1103.44,109.23 1107.05,109.23 1110.66,109.23 1114.28,109.04 1117.89,109.04 1121.50,108.99 1125.11,108.99 1128.72,108.99 1132.34,108.99 1135.95,108.99 1139.56,108.99 1143.17,108.65 1146.79,108.65 1150.40,108.65 1154.01,108.65 1157.62,108.65 1161.24,108.65 1164.85,108.65 1168.46,108.65 1172.08,108.65 1175.69,108.65 1179.30,108.65 1182.91,108.65 1186.53,108.65 1190.14,108.65 1193.75,108.65 1197.36,108.59 1200.97,108.59 1204.59,108.48 1208.20,108.48 1211.81,108.47 1215.42,108.47 1219.04,108.42 1222.65,108.42 1226.26,108.42 1229.88,108.42 1233.49,108.42 1237.10,108.42 1240.71,108.38 1244.33,108.38 1247.94,108.38 1251.55,108.38 1255.16,108.38 1258.78,108.38 1262.39,108.38 1266.00,108.38 1269.61,108.38 1273.22,108.38 1276.84,108.38 1280.45,108.38 1284.06,108.38 1287.67,108.38 1291.29,108.24 1294.90,108.24 1298.51,108.22 1302.12,108.22 1305.74,108.22 1309.35,108.22 1312.96,108.22 1316.58,108.22 1320.19,108.22 1323.80,108.22 1327.41,108.22 1331.03,108.22 1334.64,108.22 1338.25,108.22 1341.86,108.22 1345.47,108.22 1349.09,108.22 1352.70,108.22 1356.31,108.22 1359.92,108.22 1363.54,108.22 1367.15,108.16 1370.76,108.16 1374.38,108.16 1377.99,108.16 1381.60,108.16 1385.21,108.16 1388.83,108.12 1392.44,108.12 1396.05,108.12 1399.66,108.12 1403.28,108.10 1406.89,108.10 1410.50,108.10 1414.11,108.10 1417.72,108.10 1421.34,108.10 1424.95,108.10 1428.56,108.10 1432.17,108.10 1435.79,108.10 1439.40,108.10 1443.01,108.10 1446.62,108.10 1450.24,108.10 1453.85,108.10 1457.46,108.10 1461.08,108.07 1464.69,108.07 1468.30,108.07 1471.91,108.07 1475.53,108.06 1479.14,108.06 1482.75,108.06 1486.36,108.06 1489.97,108.06 1493.59,108.06 1497.20,108.06 1500.81,108.06 1504.42,108.06 1508.04,108.06 1511.65,108.06 1515.26,108.06 1518.88,108.05 1522.49,108.05 1526.10,108.05 1529.71,108.05 1533.33,108.04 1536.94,108.04 1540.55,108.04 1544.16,108.04 1547.78,108.04 1551.39,108.04 1555.00,108.04 1558.61,108.04 1562.22,108.04 1565.84,108.04 1569.45,108.04 1573.06,108.04 1576.67,108.04 1580.29,108.04 1583.90,108.04 1587.51,108.04 1591.12,108.04 1594.74,108.04 1598.35,108.04 1601.96,108.03 1605.58,108.03 1609.19,108.03 1612.80,108.03 1616.41,108.03 1620.03,108.03 1623.64,108.03 1627.25,108.03 1630.86,108.03 1634.47,108.03 1638.09,108.03 1641.70,108.03 1645.31,108.03 1648.92,108.03 1652.54,108.03 1656.15,108.03 1659.76,108.03 1663.38,108.02 1666.99,108.02 1670.60,108.02 1674.21,108.02 1677.83,108.02 1681.44,108.02 1685.05,108.02 1688.66,108.02 1692.28,108.02 1695.89,108.02 1699.50,108.02 1703.11,108.02 1706.72,108.02 1710.34,108.02 1713.95,108.02 1717.56,108.02 1721.17,108.02 1724.79,108.01 1728.40,108.01 1732.01,108.01 1735.62,108.01 1739.24,108.01 1742.85,108.01 1746.46,108.01 1750.08,108.01 1753.69,108.01 1757.30,108.01 1760.91,108.01 1764.53,108.01 1768.14,108.01 1771.75,108.01 1775.36,108.01 1778.97,108.01 1782.59,108.01 1786.20,108.01 1789.81,108.01 1793.42,108.01 1797.04,108.01 1800.65,108.01 1804.26,108.01 1807.88,108.01 1811.49,108.01 1815.10,108.01 1818.71,108.01 1822.33,108.01 1825.94,108.01 1829.55,108.01 1833.16,108.01 1836.78,108.01 1840.39,108.01 1844.00,108.01 1847.61,108.01 1851.22,108.01 1854.84,108.01 1858.45,108.01 1862.06,108.01 1865.67,108.01 1869.29,108.01 1872.90,108.01 1876.51,108.01 1880.12,108.01 1883.74,108.01 1887.35,108.01 1890.96,108.01 1894.58,108.01 1898.19,108.01 1901.80,108.01 1905.41,108.01 1909.03,108.01 1912.64,108.01 1916.25,108.01 1919.86,108.01 1923.47,108.01 1927.09,108.01 1930.70,108.01 1934.31,108.01 1937.92,108.01 1941.54,108.01 1945.15,108.01 1948.76,108.01 1952.38,108.01 1955.99,108.01 1959.60,108.01 1963.21,108.01 1966.83,108.01 1970.44,108.01 1974.05,108.01 1977.66,108.01 1981.28,108.01 1984.89,108.01 1988.50,108.01 1992.11,108.01 1995.72,108.01 1999.34,108.01 2002.95,108.01 2006.56,108.01 2010.17,108.01 2013.79,108.01 2017.40,108.01 2021.01,108.01 2024.62,108.01 2028.24,108.01 2031.85,108.01 2035.46,108.01 2039.08,108.01 2042.69,108.01 2046.30,108.01 2049.91,108.01 2053.53,108.01 2057.14,108.01 2060.75,108.01 2064.36,108.01 2067.97,108.01 2071.59,108.01 2075.20,108.01 2078.81,108.01 2082.43,108.01 2086.04,108.01 2089.65,108.01 2093.26,108.01 2096.88,108.01 2100.49,108.01 2104.10,108.01 2107.71,108.01 2111.32,108.01 2114.94,108.01 2118.55,108.01 2122.16,108.01 2125.78,108.01 2129.39,108.01 2133.00,108.01 2136.61,108.01 2140.22,108.01 2143.84,108.01 2147.45,108.01 2151.06,108.01 2154.68,108.01 2158.29,108.01 2161.90,108.01 2165.51,108.01 2169.12,108.01 2172.74,108.01 2176.35,108.01 2179.96,108.01 2183.57,108.01 2187.19,108.01 2190.80,108.01 2194.41,108.01 2198.03,108.01 2201.64,108.01 2205.25,108.01 2208.86,108.01 2212.47,108.01 2216.09,108.01 2219.70,108.01 2223.31,108.01 2226.93,108.01 2230.54,108.01 2234.15,108.01 2237.76,108.01 2241.38,108.01 2244.99,108.01 2248.60,108.01 2252.21,108.01 2255.82,108.01 2259.44,108.01 7335.00,108.01" fill="none" stroke="#7c3aed" stroke-width="2.5" stroke-linejoin="round" stroke-linecap="round"/>
</g>
<g data-series="polyak-smoothed">
<polyline points="113.61,432.91 117.22,586.07 120.84,411.58 124.45,377.70 128.06,333.56 131.68,256.11 135.29,256.32 138.90,274.51 142.51,221.19 146.12,232.70 149.74,198.12 153.35,253.71 156.96,217.47 160.57,215.98 164.19,226.49 167.80,228.72 171.41,199.40 175.03,205.67 178.64,195.04 182.25,210.07 185.86,181.99 189.47,255.15 193.09,224.78 196.70,233.85 200.31,200.37 203.93,184.14 207.54,212.62 211.15,196.54 214.76,200.14 218.38,212.09 221.99,182.69 225.60,206.18 229.21,234.39 232.82,188.30 236.44,161.98 240.05,152.68 243.66,151.76 247.28,147.43 250.89,149.17 254.50,157.06 258.11,132.97 261.73,164.01 265.34,147.91 268.95,149.65 272.56,143.79 276.18,149.04 279.79,134.16 283.40,149.16 287.01,137.61 290.62,142.98 294.24,137.77 297.85,136.99 301.46,132.50 305.07,159.59 308.69,143.67 312.30,139.84 315.91,139.41 319.52,137.05 323.14,131.09 326.75,152.19 330.36,140.80 333.98,136.79 337.59,143.87 341.20,136.21 344.81,145.65 348.43,132.48 352.04,143.29 355.65,142.43 359.26,137.00 362.88,149.15 366.49,144.33 370.10,133.29 373.71,129.58 377.32,122.20 380.94,129.89 384.55,122.39 388.16,123.29 391.77,124.30 395.39,123.57 399.00,123.18 402.61,123.14 406.23,127.27 409.84,120.69 413.45,126.86 417.06,119.32 420.68,118.67 424.29,125.05 427.90,119.21 431.51,125.76 435.12,125.22 438.74,120.47 442.35,125.50 445.96,121.12 449.57,130.34 453.19,121.41 456.80,120.95 460.41,119.78 464.02,122.38 467.64,118.57 471.25,114.32 474.86,118.56 478.48,113.39 482.09,114.59 485.70,112.62 489.31,117.06 492.93,113.82 496.54,117.17 500.15,114.29 503.76,120.60 507.38,114.36 510.99,120.26 514.60,115.52 518.21,119.47 521.83,116.14 525.44,116.47 529.05,114.69 532.66,113.46 536.27,111.62 539.89,111.60 543.50,112.21 547.11,112.26 550.73,112.37 554.34,111.83 557.95,111.86 561.56,111.26 565.17,111.28 568.79,113.00 572.40,110.86 576.01,110.85 579.62,113.76 583.24,111.35 586.85,111.49 590.46,110.92 594.08,111.51 597.69,111.54 601.30,110.87 604.91,114.89 608.52,111.25 612.14,110.76 615.75,111.31 619.36,111.40 622.98,110.79 626.59,112.14 630.20,110.53 633.81,112.50 637.42,110.86 641.04,118.35 644.65,113.46 648.26,111.82 651.88,112.02 655.49,112.14 659.10,110.42 662.71,112.46 666.33,110.51 669.94,111.33 673.55,111.62 677.16,111.18 680.77,110.93 684.39,111.00 688.00,111.11 691.61,111.29 695.23,112.24 698.84,110.62 702.45,110.77 706.06,111.35 709.67,109.93 713.29,110.07 716.90,109.80 720.51,110.95 724.12,109.70 727.74,109.78 731.35,109.65 734.96,109.35 738.58,110.24 742.19,109.84 745.80,109.20 749.41,110.81 753.02,109.55 756.64,110.46 760.25,109.49 763.86,110.01 767.48,109.75 771.09,109.35 774.70,110.26 778.31,109.40 781.92,109.56 785.54,109.54 789.15,110.03 792.76,109.87 796.38,109.16 799.99,109.02 803.60,109.79 807.21,109.11 810.83,109.05 814.44,108.92 818.05,109.16 821.66,109.04 825.27,109.00 828.89,108.73 832.50,109.45 836.11,109.01 839.73,108.76 843.34,109.22 846.95,108.60 850.56,110.27 854.17,109.59 857.79,109.20 861.40,108.90 865.01,108.90 868.62,108.68 872.24,108.88 875.85,108.74 879.46,109.11 883.08,109.21 886.69,108.76 890.30,109.31 893.91,108.86 897.52,108.59 901.14,108.87 904.75,108.54 908.36,108.35 911.98,108.83 915.59,108.54 919.20,109.12 922.81,108.67 926.42,108.56 930.04,108.45 933.65,108.63 937.26,108.46 940.88,108.63 944.49,108.52 948.10,108.65 951.71,108.42 955.33,108.40 958.94,108.32 962.55,108.24 966.16,108.34 969.77,108.30 973.39,108.37 977.00,108.29 980.61,108.34 984.23,108.25 987.84,108.28 991.45,108.34 995.06,108.21 998.67,108.45 1002.29,108.24 1005.90,108.27 1009.51,108.21 1013.12,108.16 1016.74,108.36 1020.35,108.23 1023.96,108.24 1027.58,108.18 1031.19,108.36 1034.80,108.23 1038.41,108.28 1042.03,108.19 1045.64,108.25 1049.25,108.17 1052.86,108.21 1056.47,108.21 1060.09,108.24 1063.70,108.18 1067.31,108.16 1070.92,108.12 1074.54,108.10 1078.15,108.14 1081.76,108.12 1085.38,108.09 1088.99,108.11 1092.60,108.07 1096.21,108.08 1099.83,108.07 1103.44,108.05 1107.05,108.13 1110.66,108.07 1114.28,108.08 1117.89,108.11 1121.50,108.10 1125.11,108.12 1128.72,108.07 1132.34,108.18 1135.95,108.09 1139.56,108.22 1143.17,108.15 1146.79,108.08 1150.40,108.05 1154.01,108.04 1157.62,108.03 1161.24,108.05 1164.85,108.03 1168.46,108.02 1172.08,108.03 1175.69,108.03 1179.30,108.03 1182.91,108.02 1186.53,108.02 1190.14,108.01 1193.75,108.02 1197.36,108.01 1200.97,108.04 1204.59,108.02 1208.20,108.03 1211.81,108.02 1215.42,108.01 1219.04,108.04 1222.65,108.02 1226.26,108.03 1229.88,108.03 1233.49,108.00 1237.10,108.09 1240.71,108.04 1244.33,108.05 1247.94,108.00 1251.55,108.04 1255.16,108.01 1258.78,108.02 1262.39,107.99 1266.00,108.04 1269.61,108.00 1273.22,108.03 1276.84,108.01 1280.45,108.02 1284.06,108.01 1287.67,108.01 1291.29,108.00 1294.90,108.02 1298.51,108.00 1302.12,108.00 1305.74,108.03 1309.35,107.99 1312.96,107.99 1316.58,108.00 1320.19,107.99 1323.80,107.99 1327.41,107.98 1331.03,108.00 1334.64,107.98 1338.25,108.00 1341.86,107.99 1345.47,108.00 1349.09,107.99 1352.70,107.98 1356.31,107.98 1359.92,107.98 1363.54,107.98 1367.15,107.98 1370.76,107.99 1374.38,107.98 1377.99,107.99 1381.60,107.98 1385.21,107.99 1388.83,107.99 1392.44,107.98 1396.05,107.99 1399.66,107.99 1403.28,107.99 1406.89,108.00 1410.50,107.98 1414.11,107.99 1417.72,107.98 1421.34,107.97 1424.95,107.98 1428.56,107.97 1432.17,107.97 1435.79,107.97 1439.40,107.98 1443.01,107.97 1446.62,107.99 1450.24,107.98 1453.85,107.97 1457.46,107.97 1461.08,107.97 1464.69,107.97 1468.30,107.97 1471.91,107.98 1475.53,107.97 1479.14,107.97 1482.75,107.96 1486.36,107.99 1489.97,107.97 1493.59,107.97 1497.20,107.97 1500.81,107.97 1504.42,107.97 1508.04,107.96 1511.65,107.97 1515.26,107.97 1518.88,107.96 1522.49,107.98 1526.10,107.97 1529.71,107.97 1533.33,107.97 1536.94,107.96 1540.55,107.96 1544.16,107.96 1547.78,107.96 1551.39,107.96 1555.00,107.96 1558.61,107.96 1562.22,107.96 1565.84,107.96 1569.45,107.96 1573.06,107.96 1576.67,107.96 1580.29,107.96 1583.90,107.96 1587.51,107.96 1591.12,107.97 1594.74,107.96 1598.35,107.96 1601.96,107.96 1605.58,107.96 1609.19,107.97 1612.80,107.96 1616.41,107.96 1620.03,107.96 1623.64,107.96 1627.25,107.96 1630.86,107.96 1634.47,107.96 1638.09,107.96 1641.70,107.96 1645.31,107.96 1648.92,107.96 1652.54,107.96 1656.15,107.96 1659.76,107.96 1663.38,107.96 1666.99,107.96 1670.60,107.96 1674.21,107.96 1677.83,107.96 1681.44,107.96 1685.05,107.96 1688.66,107.96 1692.28,107.96 1695.89,107.96 1699.50,107.96 1703.11,107.96 1706.72,107.96 1710.34,107.96 1713.95,107.96 1717.56,107.96 1721.17,107.96 1724.79,107.96 1728.40,107.96 1732.01,107.96 1735.62,107.96 1739.24,107.96 1742.85,107.96 1746.46,107.96 1750.08,107.96 1753.69,107.96 1757.30,107.96 1760.91,107.96 1764.53,107.96 1768.14,107.96 1771.75,107.96 1775.36,107.96 1778.97,107.96 1782.59,107.96 1786.20,107.96 1789.81,107.95 1793.42,107.95 1797.04,107.96 1800.65,107.95 1804.26,107.95 1807.88,107.95 1811.49,107.95 1815.10,107.96 1818.71,107.95 1822.33,107.96 1825.94,107.95 1829.55,107.95 1833.16,107.96 1836.78,107.95 1840.39,107.96 1844.00,107.95 1847.61,107.95 1851.22,107.95 1854.84,107.95 1858.45,107.95 1862.06,107.96 1865.67,107.96 1869.29,107.95 1872.90,107.96 1876.51,107.95 1880.12,107.95 1883.74,107.95 1887.35,107.95 1890.96,107.95 1894.58,107.96 1898.19,107.95 1901.80,107.95 1905.41,107.96 1909.03,107.96 1912.64,107.95 1916.25,107.95 1919.86,107.96 1923.47,107.95 1927.09,107.96 1930.70,107.95 1934.31,107.95 1937.92,107.95 1941.54,107.95 1945.15,107.96 1948.76,107.95 1952.38,107.95 1955.99,107.95 1959.60,107.95 1963.21,107.95 1966.83,107.95 1970.44,107.95 1974.05,107.95 1977.66,107.95 1981.28,107.95 1984.89,107.95 1988.50,107.95 1992.11,107.95 1995.72,107.95 1999.34,107.95 2002.95,107.95 2006.56,107.95 2010.17,107.95 2013.79,107.95 2017.40,107.95 2021.01,107.95 2024.62,107.95 2028.24,107.95 2031.85,107.95 2035.46,107.95 2039.08,107.95 2042.69,107.95 2046.30,107.95 2049.91,107.95 2053.53,107.95 2057.14,107.95 2060.75,107.95 2064.36,107.95 2067.97,107.95 2071.59,107.95 2075.20,107.95 2078.81,107.95 2082.43,107.95 2086.04,107.95 2089.65,107.95 2093.26,107.95 2096.88,107.95 2100.49,107.95 2104.10,107.95 2107.71,107.95 2111.32,107.95 2114.94,107.95 2118.55,107.95 2122.16,107.95 2125.78,107.95 2129.39,107.95 2133.00,107.95 2136.61,107.95 2140.22,107.95 2143.84,107.95 2147.45,107.95 2151.06,107.95 2154.68,107.95" fill="none" stroke="#d97706" stroke-width="1.2" stroke-opacity="0.28" stroke-linejoin="round"/>
<polyline points="113.61,432.91 117.22,432.91 120.84,411.58 124.45,377.70 128.06,333.56 131.68,256.11 135.29,256.11 138.90,256.11 142.51,221.19 146.12,221.19 149.74,198.12 153.35,198.12 156.96,198.12 160.57,198.12 164.19,198.12 167.80,198.12 171.41,198.12 175.03,198.12 178.64,195.04 182.25,195.04 185.86,181.99 189.47,181.99 193.09,181.99 196.70,181.99 200.31,181.99 203.93,181.99 207.54,181.99 211.15,181.99 214.76,181.99 218.38,181.99 221.99,181.99 225.60,181.99 229.21,181.99 232.82,181.99 236.44,161.98 240.05,152.68 243.66,151.76 247.28,147.43 250.89,147.43 254.50,147.43 258.11,132.97 261.73,132.97 265.34,132.97 268.95,132.97 272.56,132.97 276.18,132.97 279.79,132.97 283.40,132.97 287.01,132.97 290.62,132.97 294.24,132.97 297.85,132.97 301.46,132.50 305.07,132.50 308.69,132.50 312.30,132.50 315.91,132.50 319.52,132.50 323.14,131.09 326.75,131.09 330.36,131.09 333.98,131.09 337.59,131.09 341.20,131.09 344.81,131.09 348.43,131.09 352.04,131.09 355.65,131.09 359.26,131.09 362.88,131.09 366.49,131.09 370.10,131.09 373.71,129.58 377.32,122.20 380.94,122.20 384.55,122.20 388.16,122.20 391.77,122.20 395.39,122.20 399.00,122.20 402.61,122.20 406.23,122.20 409.84,120.69 413.45,120.69 417.06,119.32 420.68,118.67 424.29,118.67 427.90,118.67 431.51,118.67 435.12,118.67 438.74,118.67 442.35,118.67 445.96,118.67 449.57,118.67 453.19,118.67 456.80,118.67 460.41,118.67 464.02,118.67 467.64,118.57 471.25,114.32 474.86,114.32 478.48,113.39 482.09,113.39 485.70,112.62 489.31,112.62 492.93,112.62 496.54,112.62 500.15,112.62 503.76,112.62 507.38,112.62 510.99,112.62 514.60,112.62 518.21,112.62 521.83,112.62 525.44,112.62 529.05,112.62 532.66,112.62 536.27,111.62 539.89,111.60 543.50,111.60 547.11,111.60 550.73,111.60 554.34,111.60 557.95,111.60 561.56,111.26 565.17,111.26 568.79,111.26 572.40,110.86 576.01,110.85 579.62,110.85 583.24,110.85 586.85,110.85 590.46,110.85 594.08,110.85 597.69,110.85 601.30,110.85 604.91,110.85 608.52,110.85 612.14,110.76 615.75,110.76 619.36,110.76 622.98,110.76 626.59,110.76 630.20,110.53 633.81,110.53 637.42,110.53 641.04,110.53 644.65,110.53 648.26,110.53 651.88,110.53 655.49,110.53 659.10,110.42 662.71,110.42 666.33,110.42 669.94,110.42 673.55,110.42 677.16,110.42 680.77,110.42 684.39,110.42 688.00,110.42 691.61,110.42 695.23,110.42 698.84,110.42 702.45,110.42 706.06,110.42 709.67,109.93 713.29,109.93 716.90,109.80 720.51,109.80 724.12,109.70 727.74,109.70 731.35,109.65 734.96,109.35 738.58,109.35 742.19,109.35 745.80,109.20 749.41,109.20 753.02,109.20 756.64,109.20 760.25,109.20 763.86,109.20 767.48,109.20 771.09,109.20 774.70,109.20 778.31,109.20 781.92,109.20 785.54,109.20 789.15,109.20 792.76,109.20 796.38,109.16 799.99,109.02 803.60,109.02 807.21,109.02 810.83,109.02 814.44,108.92 818.05,108.92 821.66,108.92 825.27,108.92 828.89,108.73 832.50,108.73 836.11,108.73 839.73,108.73 843.34,108.73 846.95,108.60 850.56,108.60 854.17,108.60 857.79,108.60 861.40,108.60 865.01,108.60 868.62,108.60 872.24,108.60 875.85,108.60 879.46,108.60 883.08,108.60 886.69,108.60 890.30,108.60 893.91,108.60 897.52,108.59 901.14,108.59 904.75,108.54 908.36,108.35 911.98,108.35 915.59,108.35 919.20,108.35 922.81,108.35 926.42,108.35 930.04,108.35 933.65,108.35 937.26,108.35 940.88,108.35 944.49,108.35 948.10,108.35 951.71,108.35 955.33,108.35 958.94,108.32 962.55,108.24 966.16,108.24 969.77,108.24 973.39,108.24 977.00,108.24 980.61,108.24 984.23,108.24 987.84,108.24 991.45,108.24 995.06,108.21 998.67,108.21 1002.29,108.21 1005.90,108.21 1009.51,108.21 1013.12,108.16 1016.74,108.16 1020.35,108.16 1023.96,108.16 1027.58,108.16 1031.19,108.16 1034.80,108.16 1038.41,108.16 1042.03,108.16 1045.64,108.16 1049.25,108.16 1052.86,108.16 1056.47,108.16 1060.09,108.16 1063.70,108.16 1067.31,108.16 1070.92,108.12 1074.54,108.10 1078.15,108.10 1081.76,108.10 1085.38,108.09 1088.99,108.09 1092.60,108.07 1096.21,108.07 1099.83,108.07 1103.44,108.05 1107.05,108.05 1110.66,108.05 1114.28,108.05 1117.89,108.05 1121.50,108.05 1125.11,108.05 1128.72,108.05 1132.34,108.05 1135.95,108.05 1139.56,108.05 1143.17,108.05 1146.79,108.05 1150.40,108.05 1154.01,108.04 1157.62,108.03 1161.24,108.03 1164.85,108.03 1168.46,108.02 1172.08,108.02 1175.69,108.02 1179.30,108.02 1182.91,108.02 1186.53,108.02 1190.14,108.01 1193.75,108.01 1197.36,108.01 1200.97,108.01 1204.59,108.01 1208.20,108.01 1211.81,108.01 1215.42,108.01 1219.04,108.01 1222.65,108.01 1226.26,108.01 1229.88,108.01 1233.49,108.00 1237.10,108.00 1240.71,108.00 1244.33,108.00 1247.94,108.00 1251.55,108.00 1255.16,108.00 1258.78,108.00 1262.39,107.99 1266.00,107.99 1269.61,107.99 1273.22,107.99 1276.84,107.99 1280.45,107.99 1284.06,107.99 1287.67,107.99 1291.29,107.99 1294.90,107.99 1298.51,107.99 1302.12,107.99 1305.74,107.99 1309.35,107.99 1312.96,107.99 1316.58,107.99 1320.19,107.99 1323.80,107.99 1327.41,107.98 1331.03,107.98 1334.64,107.98 1338.25,107.98 1341.86,107.98 1345.47,107.98 1349.09,107.98 1352.70,107.98 1356.31,107.98 1359.92,107.98 1363.54,107.98 1367.15,107.98 1370.76,107.98 1374.38,107.98 1377.99,107.98 1381.60,107.98 1385.21,107.98 1388.83,107.98 1392.44,107.98 1396.05,107.98 1399.66,107.98 1403.28,107.98 1406.89,107.98 1410.50,107.98 1414.11,107.98 1417.72,107.98 1421.34,107.97 1424.95,107.97 1428.56,107.97 1432.17,107.97 1435.79,107.97 1439.40,107.97 1443.01,107.97 1446.62,107.97 1450.24,107.97 1453.85,107.97 1457.46,107.97 1461.08,107.97 1464.69,107.97 1468.30,107.97 1471.91,107.97 1475.53,107.97 1479.14,107.97 1482.75,107.96 1486.36,107.96 1489.97,107.96 1493.59,107.96 1497.20,107.96 1500.81,107.96 1504.42,107.96 1508.04,107.96 1511.65,107.96 1515.26,107.96 1518.88,107.96 1522.49,107.96 1526.10,107.96 1529.71,107.96 1533.33,107.96 1536.94,107.96 1540.55,107.96 1544.16,107.96 1547.78,107.96 1551.39,107.96 1555.00,107.96 1558.61,107.96 1562.22,107.96 1565.84,107.96 1569.45,107.96 1573.06,107.96 1576.67,107.96 1580.29,107.96 1583.90,107.96 1587.51,107.96 1591.12,107.96 1594.74,107.96 1598.35,107.96 1601.96,107.96 1605.58,107.96 1609.19,107.96 1612.80,107.96 1616.41,107.96 1620.03,107.96 1623.64,107.96 1627.25,107.96 1630.86,107.96 1634.47,107.96 1638.09,107.96 1641.70,107.96 1645.31,107.96 1648.92,107.96 1652.54,107.96 1656.15,107.96 1659.76,107.96 1663.38,107.96 1666.99,107.96 1670.60,107.96 1674.21,107.96 1677.83,107.96 1681.44,107.96 1685.05,107.96 1688.66,107.96 1692.28,107.96 1695.89,107.96 1699.50,107.96 1703.11,107.96 1706.72,107.96 1710.34,107.96 1713.95,107.96 1717.56,107.96 1721.17,107.96 1724.79,107.96 1728.40,107.96 1732.01,107.96 1735.62,107.96 1739.24,107.96 1742.85,107.96 1746.46,107.96 1750.08,107.96 1753.69,107.96 1757.30,107.96 1760.91,107.96 1764.53,107.96 1768.14,107.96 1771.75,107.96 1775.36,107.96 1778.97,107.96 1782.59,107.96 1786.20,107.96 1789.81,107.95 1793.42,107.95 1797.04,107.95 1800.65,107.95 1804.26,107.95 1807.88,107.95 1811.49,107.95 1815.10,107.95 1818.71,107.95 1822.33,107.95 1825.94,107.95 1829.55,107.95 1833.16,107.95 1836.78,107.95 1840.39,107.95 1844.00,107.95 1847.61,107.95 1851.22,107.95 1854.84,107.95 1858.45,107.95 1862.06,107.95 1865.67,107.95 1869.29,107.95 1872.90,107.95 1876.51,107.95 1880.12,107.95 1883.74,107.95 1887.35,107.95 1890.96,107.95 1894.58,107.95 1898.19,107.95 1901.80,107.95 1905.41,107.95 1909.03,107.95 1912.64,107.95 1916.25,107.95 1919.86,107.95 1923.47,107.95 1927.09,107.95 1930.70,107.95 1934.31,107.95 1937.92,107.95 1941.54,107.95 1945.15,107.95 1948.76,107.95 1952.38,107.95 1955.99,107.95 1959.60,107.95 1963.21,107.95 1966.83,107.95 1970.44,107.95 1974.05,107.95 1977.66,107.95 1981.28,107.95 1984.89,107.95 1988.50,107.95 1992.11,107.95 1995.72,107.95 1999.34,107.95 2002.95,107.95 2006.56,107.95 2010.17,107.95 2013.79,107.95 2017.40,107.95 2021.01,107.95 2024.62,107.95 2028.24,107.95 2031.85,107.95 2035.46,107.95 2039.08,107.95 2042.69,107.95 2046.30,107.95 2049.91,107.95 2053.53,107.95 2057.14,107.95 2060.75,107.95 2064.36,107.95 2067.97,107.95 2071.59,107.95 2075.20,107.95 2078.81,107.95 2082.43,107.95 2086.04,107.95 2089.65,107.95 2093.26,107.95 2096.88,107.95 2100.49,107.95 2104.10,107.95 2107.71,107.95 2111.32,107.95 2114.94,107.95 2118.55,107.95 2122.16,107.95 2125.78,107.95 2129.39,107.95 2133.00,107.95 2136.61,107.95 2140.22,107.95 2143.84,107.95 2147.45,107.95 2151.06,107.95 2154.68,107.95 7335.00,107.95" fill="none" stroke="#d97706" stroke-width="2.5" stroke-linejoin="round" stroke-linecap="round"/>
</g>
<g data-series="polyak-smoothed-dynamic">
<polyline points="113.61,432.91 117.22,586.07 120.84,449.25 124.45,323.46 128.06,325.06 131.68,316.55 135.29,282.72 138.90,266.52 142.51,261.32 146.12,215.14 149.74,227.84 153.35,204.00 156.96,206.77 160.57,228.98 164.19,220.42 167.80,235.18 171.41,213.27 175.03,193.08 178.64,246.01 182.25,226.72 185.86,247.02 189.47,212.23 193.09,249.25 196.70,271.41 200.31,237.37 203.93,228.39 207.54,232.18 211.15,238.11 214.76,234.21 218.38,210.86 221.99,242.97 225.60,194.49 229.21,182.50 232.82,157.86 236.44,151.35 240.05,148.13 243.66,160.39 247.28,156.38 250.89,156.88 254.50,150.81 258.11,164.69 261.73,158.03 265.34,157.00 268.95,147.26 272.56,151.51 276.18,146.44 279.79,159.30 283.40,150.99 287.01,149.16 290.62,144.81 294.24,152.36 297.85,143.31 301.46,148.92 305.07,146.48 308.69,142.95 312.30,152.98 315.91,145.80 319.52,150.85 323.14,136.60 326.75,150.04 330.36,126.95 333.98,149.32 337.59,151.78 341.20,158.16 344.81,145.97 348.43,144.26 352.04,144.75 355.65,155.22 359.26,150.80 362.88,138.70 366.49,146.94 370.10,147.75 373.71,146.22 377.32,143.57 380.94,135.85 384.55,129.04 388.16,129.24 391.77,123.37 395.39,133.38 399.00,127.17 402.61,129.42 406.23,122.45 409.84,124.76 413.45,122.71 417.06,128.76 420.68,127.37 424.29,122.04 427.90,126.06 431.51,123.02 435.12,128.55 438.74,118.29 442.35,128.22 445.96,126.19 449.57,124.51 453.19,119.56 456.80,124.54 460.41,125.14 464.02,118.23 467.64,141.75 471.25,125.38 474.86,129.16 478.48,122.67 482.09,129.24 485.70,126.21 489.31,121.50 492.93,126.89 496.54,123.44 500.15,117.07 503.76,136.74 507.38,124.47 510.99,123.48 514.60,122.55 518.21,122.94 521.83,125.62 525.44,120.31 529.05,123.61 532.66,126.04 536.27,120.49 539.89,123.95 543.50,120.49 547.11,125.72 550.73,121.26 554.34,116.56 557.95,116.00 561.56,117.06 565.17,115.95 568.79,116.98 572.40,116.54 576.01,116.06 579.62,117.24 583.24,113.35 586.85,115.87 590.46,113.89 594.08,116.26 597.69,114.21 601.30,114.24 604.91,115.29 608.52,113.27 612.14,113.16 615.75,116.96 619.36,115.00 622.98,114.01 626.59,116.93 630.20,114.89 633.81,116.13 637.42,113.66 641.04,113.22 644.65,117.20 648.26,113.95 651.88,113.60 655.49,115.86 659.10,115.82 662.71,112.83 666.33,111.49 669.94,114.39 673.55,111.44 677.16,112.05 680.77,113.91 684.39,111.40 688.00,111.30 691.61,111.50 695.23,110.80 698.84,113.88 702.45,111.33 706.06,112.30 709.67,111.05 713.29,112.87 716.90,110.56 720.51,111.82 724.12,111.28 727.74,111.32 731.35,113.94 734.96,111.75 738.58,112.18 742.19,111.72 745.80,110.49 749.41,113.71 753.02,110.99 756.64,113.04 760.25,111.35 763.86,112.68 767.48,111.28 771.09,111.57 774.70,110.77 778.31,111.99 781.92,111.05 785.54,110.84 789.15,111.93 792.76,111.55 796.38,110.54 799.99,109.95 803.60,109.68 807.21,110.21 810.83,109.83 814.44,109.64 818.05,109.67 821.66,109.62 825.27,109.79 828.89,109.35 832.50,110.33 836.11,109.66 839.73,109.57 843.34,110.29 846.95,109.89 850.56,109.60 854.17,110.34 857.79,109.76 861.40,110.36 865.01,110.09 868.62,109.52 872.24,110.14 875.85,109.89 879.46,109.32 883.08,109.58 886.69,109.40 890.30,109.36 893.91,109.32 897.52,109.33 901.14,109.12 904.75,110.10 908.36,109.39 911.98,109.74 915.59,109.22 919.20,109.08 922.81,109.18 926.42,108.81 930.04,109.71 933.65,109.05 937.26,108.89 940.88,108.93 944.49,108.80 948.10,109.06 951.71,108.83 955.33,108.78 958.94,109.20 962.55,108.95 966.16,109.16 969.77,109.07 973.39,108.80 977.00,109.15 980.61,108.88 984.23,109.21 987.84,108.97 991.45,108.85 995.06,108.79 998.67,109.38 1002.29,109.11 1005.90,108.75 1009.51,108.59 1013.12,108.57 1016.74,108.66 1020.35,108.47 1023.96,108.79 1027.58,108.38 1031.19,108.57 1034.80,108.53 1038.41,108.56 1042.03,108.54 1045.64,108.58 1049.25,108.46 1052.86,108.72 1056.47,108.60 1060.09,108.64 1063.70,108.57 1067.31,108.55 1070.92,108.66 1074.54,108.54 1078.15,108.40 1081.76,108.32 1085.38,108.31 1088.99,108.56 1092.60,108.47 1096.21,108.26 1099.83,108.34 1103.44,108.27 1107.05,108.38 1110.66,108.26 1114.28,108.48 1117.89,108.47 1121.50,108.27 1125.11,108.49 1128.72,108.40 1132.34,108.26 1135.95,108.25 1139.56,108.49 1143.17,108.43 1146.79,108.29 1150.40,108.33 1154.01,108.23 1157.62,108.42 1161.24,108.31 1164.85,108.32 1168.46,108.22 1172.08,108.30 1175.69,108.33 1179.30,108.27 1182.91,108.22 1186.53,108.32 1190.14,108.18 1193.75,108.43 1197.36,108.35 1200.97,108.23 1204.59,108.31 1208.20,108.20 1211.81,108.25 1215.42,108.16 1219.04,108.65 1222.65,108.45 1226.26,108.27 1229.88,108.20 1233.49,108.31 1237.10,108.26 1240.71,108.29 1244.33,108.23 1247.94,108.36 1251.55,108.37 1255.16,108.16 1258.78,108.22 1262.39,108.17 1266.00,108.19 1269.61,108.13 1273.22,108.16 1276.84,108.14 1280.45,108.11 1284.06,108.12 1287.67,108.13 1291.29,108.12 1294.90,108.14 1298.51,108.09 1302.12,108.15 1305.74,108.09 1309.35,108.13 1312.96,108.14 1316.58,108.06 1320.19,108.22 1323.80,108.12 1327.41,108.14 1331.03,108.08 1334.64,108.16 1338.25,108.12 1341.86,108.08 1345.47,108.15 1349.09,108.07 1352.70,108.15 1356.31,108.15 1359.92,108.09 1363.54,108.09 1367.15,108.06 1370.76,108.06 1374.38,108.05 1377.99,108.05 1381.60,108.04 1385.21,108.05 1388.83,108.05 1392.44,108.03 1396.05,108.06 1399.66,108.06 1403.28,108.05 1406.89,108.04 1410.50,108.08 1414.11,108.05 1417.72,108.06 1421.34,108.06 1424.95,108.06 1428.56,108.04 1432.17,108.03 1435.79,108.06 1439.40,108.03 1443.01,108.05 1446.62,108.02 1450.24,108.09 1453.85,108.07 1457.46,108.03 1461.08,108.05 1464.69,108.04 1468.30,108.04 1471.91,108.03 1475.53,108.03 1479.14,108.02 1482.75,108.02 1486.36,108.07 1489.97,108.04 1493.59,108.04 1497.20,108.04 1500.81,108.03 1504.42,108.04 1508.04,108.03 1511.65,108.03 1515.26,108.04 1518.88,108.04 1522.49,108.04 1526.10,108.01 1529.71,108.01 1533.33,108.00 1536.94,108.01 1540.55,108.00 1544.16,108.00 1547.78,108.00 1551.39,108.00 1555.00,108.00 1558.61,108.01 1562.22,108.01 1565.84,108.00 1569.45,108.00 1573.06,108.01 1576.67,108.00 1580.29,108.00 1583.90,108.01 1587.51,108.01 1591.12,108.00 1594.74,108.01 1598.35,108.00 1601.96,108.00 1605.58,108.00 1609.19,108.00 1612.80,108.00 1616.41,107.99 1620.03,107.99 1623.64,107.98 1627.25,107.99 1630.86,107.98 1634.47,107.98 1638.09,107.99 1641.70,107.98 1645.31,107.99 1648.92,107.98 1652.54,107.99 1656.15,107.98 1659.76,107.98 1663.38,107.98 1666.99,107.99 1670.60,107.98 1674.21,107.99 1677.83,107.99 1681.44,107.98 1685.05,107.99 1688.66,107.98 1692.28,107.98 1695.89,107.98 1699.50,107.99 1703.11,107.98 1706.72,107.98 1710.34,107.98 1713.95,107.99 1717.56,107.98 1721.17,107.98 1724.79,107.98 1728.40,107.98 1732.01,107.98 1735.62,107.97 1739.24,107.99 1742.85,107.98 1746.46,107.98 1750.08,107.98 1753.69,107.98 1757.30,107.98 1760.91,107.98 1764.53,107.98 1768.14,107.99 1771.75,107.98 1775.36,107.98 1778.97,107.98 1782.59,107.98 1786.20,107.98 1789.81,107.97 1793.42,107.98 1797.04,107.97 1800.65,107.97 1804.26,107.98 1807.88,107.98 1811.49,107.97 1815.10,107.97 1818.71,107.97 1822.33,107.97 1825.94,107.98 1829.55,107.97 1833.16,107.98 1836.78,107.97 1840.39,107.98 1844.00,107.97 1847.61,107.97 1851.22,107.97 1854.84,107.97 1858.45,107.97 1862.06,107.97 1865.67,107.97 1869.29,107.97 1872.90,107.97 1876.51,107.97 1880.12,107.97 1883.74,107.97 1887.35,107.97 1890.96,107.97 1894.58,107.97 1898.19,107.97 1901.80,107.97 1905.41,107.97 1909.03,107.97 1912.64,107.97 1916.25,107.97 1919.86,107.98 1923.47,107.97 1927.09,107.97 1930.70,107.97 1934.31,107.97 1937.92,107.97 1941.54,107.97 1945.15,107.97 1948.76,107.97 1952.38,107.97 1955.99,107.97 1959.60,107.97 1963.21,107.97 1966.83,107.97 1970.44,107.97 1974.05,107.97 1977.66,107.97 1981.28,107.97 1984.89,107.97 1988.50,107.97 1992.11,107.97 1995.72,107.97 1999.34,107.97 2002.95,107.97 2006.56,107.97 2010.17,107.97 2013.79,107.97 2017.40,107.97 2021.01,107.97 2024.62,107.97 2028.24,107.96 2031.85,107.97 2035.46,107.97 2039.08,107.97 2042.69,107.97 2046.30,107.97 2049.91,107.96 2053.53,107.97 2057.14,107.97 2060.75,107.97 2064.36,107.97 2067.97,107.97 2071.59,107.96 2075.20,107.97 2078.81,107.97 2082.43,107.97 2086.04,107.97 2089.65,107.97 2093.26,107.96 2096.88,107.97 2100.49,107.97 2104.10,107.96 2107.71,107.96 2111.32,107.96 2114.94,107.96 2118.55,107.96 2122.16,107.96 2125.78,107.96 2129.39,107.96 2133.00,107.96 2136.61,107.96 2140.22,107.96 2143.84,107.96 2147.45,107.96 2151.06,107.96 2154.68,107.96 2158.29,107.96 2161.90,107.96 2165.51,107.96 2169.12,107.96 2172.74,107.96 2176.35,107.96 2179.96,107.96 2183.57,107.96 2187.19,107.96 2190.80,107.96 2194.41,107.96 2198.03,107.96 2201.64,107.96 2205.25,107.96 2208.86,107.96 2212.47,107.96 2216.09,107.96 2219.70,107.96 2223.31,107.96 2226.93,107.96 2230.54,107.96 2234.15,107.96 2237.76,107.96 2241.38,107.96 2244.99,107.96 2248.60,107.96 2252.21,107.96 2255.82,107.96 2259.44,107.96 2263.05,107.96 2266.66,107.96 2270.28,107.96 2273.89,107.96 2277.50,107.96 2281.11,107.96 2284.72,107.96 2288.34,107.96 2291.95,107.96 2295.56,107.96 2299.18,107.96 2302.79,107.96" fill="none" stroke="#0891b2" stroke-width="1.2" stroke-opacity="0.28" stroke-linejoin="round"/>
<polyline points="113.61,432.91 117.22,432.91 120.84,432.91 124.45,323.46 128.06,323.46 131.68,316.55 135.29,282.72 138.90,266.52 142.51,261.32 146.12,215.14 149.74,215.14 153.35,204.00 156.96,204.00 160.57,204.00 164.19,204.00 167.80,204.00 171.41,204.00 175.03,193.08 178.64,193.08 182.25,193.08 185.86,193.08 189.47,193.08 193.09,193.08 196.70,193.08 200.31,193.08 203.93,193.08 207.54,193.08 211.15,193.08 214.76,193.08 218.38,193.08 221.99,193.08 225.60,193.08 229.21,182.50 232.82,157.86 236.44,151.35 240.05,148.13 243.66,148.13 247.28,148.13 250.89,148.13 254.50,148.13 258.11,148.13 261.73,148.13 265.34,148.13 268.95,147.26 272.56,147.26 276.18,146.44 279.79,146.44 283.40,146.44 287.01,146.44 290.62,144.81 294.24,144.81 297.85,143.31 301.46,143.31 305.07,143.31 308.69,142.95 312.30,142.95 315.91,142.95 319.52,142.95 323.14,136.60 326.75,136.60 330.36,126.95 333.98,126.95 337.59,126.95 341.20,126.95 344.81,126.95 348.43,126.95 352.04,126.95 355.65,126.95 359.26,126.95 362.88,126.95 366.49,126.95 370.10,126.95 373.71,126.95 377.32,126.95 380.94,126.95 384.55,126.95 388.16,126.95 391.77,123.37 395.39,123.37 399.00,123.37 402.61,123.37 406.23,122.45 409.84,122.45 413.45,122.45 417.06,122.45 420.68,122.45 424.29,122.04 427.90,122.04 431.51,122.04 435.12,122.04 438.74,118.29 442.35,118.29 445.96,118.29 449.57,118.29 453.19,118.29 456.80,118.29 460.41,118.29 464.02,118.23 467.64,118.23 471.25,118.23 474.86,118.23 478.48,118.23 482.09,118.23 485.70,118.23 489.31,118.23 492.93,118.23 496.54,118.23 500.15,117.07 503.76,117.07 507.38,117.07 510.99,117.07 514.60,117.07 518.21,117.07 521.83,117.07 525.44,117.07 529.05,117.07 532.66,117.07 536.27,117.07 539.89,117.07 543.50,117.07 547.11,117.07 550.73,117.07 554.34,116.56 557.95,116.00 561.56,116.00 565.17,115.95 568.79,115.95 572.40,115.95 576.01,115.95 579.62,115.95 583.24,113.35 586.85,113.35 590.46,113.35 594.08,113.35 597.69,113.35 601.30,113.35 604.91,113.35 608.52,113.27 612.14,113.16 615.75,113.16 619.36,113.16 622.98,113.16 626.59,113.16 630.20,113.16 633.81,113.16 637.42,113.16 641.04,113.16 644.65,113.16 648.26,113.16 651.88,113.16 655.49,113.16 659.10,113.16 662.71,112.83 666.33,111.49 669.94,111.49 673.55,111.44 677.16,111.44 680.77,111.44 684.39,111.40 688.00,111.30 691.61,111.30 695.23,110.80 698.84,110.80 702.45,110.80 706.06,110.80 709.67,110.80 713.29,110.80 716.90,110.56 720.51,110.56 724.12,110.56 727.74,110.56 731.35,110.56 734.96,110.56 738.58,110.56 742.19,110.56 745.80,110.49 749.41,110.49 753.02,110.49 756.64,110.49 760.25,110.49 763.86,110.49 767.48,110.49 771.09,110.49 774.70,110.49 778.31,110.49 781.92,110.49 785.54,110.49 789.15,110.49 792.76,110.49 796.38,110.49 799.99,109.95 803.60,109.68 807.21,109.68 810.83,109.68 814.44,109.64 818.05,109.64 821.66,109.62 825.27,109.62 828.89,109.35 832.50,109.35 836.11,109.35 839.73,109.35 843.34,109.35 846.95,109.35 850.56,109.35 854.17,109.35 857.79,109.35 861.40,109.35 865.01,109.35 868.62,109.35 872.24,109.35 875.85,109.35 879.46,109.32 883.08,109.32 886.69,109.32 890.30,109.32 893.91,109.32 897.52,109.32 901.14,109.12 904.75,109.12 908.36,109.12 911.98,109.12 915.59,109.12 919.20,109.08 922.81,109.08 926.42,108.81 930.04,108.81 933.65,108.81 937.26,108.81 940.88,108.81 944.49,108.80 948.10,108.80 951.71,108.80 955.33,108.78 958.94,108.78 962.55,108.78 966.16,108.78 969.77,108.78 973.39,108.78 977.00,108.78 980.61,108.78 984.23,108.78 987.84,108.78 991.45,108.78 995.06,108.78 998.67,108.78 1002.29,108.78 1005.90,108.75 1009.51,108.59 1013.12,108.57 1016.74,108.57 1020.35,108.47 1023.96,108.47 1027.58,108.38 1031.19,108.38 1034.80,108.38 1038.41,108.38 1042.03,108.38 1045.64,108.38 1049.25,108.38 1052.86,108.38 1056.47,108.38 1060.09,108.38 1063.70,108.38 1067.31,108.38 1070.92,108.38 1074.54,108.38 1078.15,108.38 1081.76,108.32 1085.38,108.31 1088.99,108.31 1092.60,108.31 1096.21,108.26 1099.83,108.26 1103.44,108.26 1107.05,108.26 1110.66,108.26 1114.28,108.26 1117.89,108.26 1121.50,108.26 1125.11,108.26 1128.72,108.26 1132.34,108.26 1135.95,108.25 1139.56,108.25 1143.17,108.25 1146.79,108.25 1150.40,108.25 1154.01,108.23 1157.62,108.23 1161.24,108.23 1164.85,108.23 1168.46,108.22 1172.08,108.22 1175.69,108.22 1179.30,108.22 1182.91,108.22 1186.53,108.22 1190.14,108.18 1193.75,108.18 1197.36,108.18 1200.97,108.18 1204.59,108.18 1208.20,108.18 1211.81,108.18 1215.42,108.16 1219.04,108.16 1222.65,108.16 1226.26,108.16 1229.88,108.16 1233.49,108.16 1237.10,108.16 1240.71,108.16 1244.33,108.16 1247.94,108.16 1251.55,108.16 1255.16,108.16 1258.78,108.16 1262.39,108.16 1266.00,108.16 1269.61,108.13 1273.22,108.13 1276.84,108.13 1280.45,108.11 1284.06,108.11 1287.67,108.11 1291.29,108.11 1294.90,108.11 1298.51,108.09 1302.12,108.09 1305.74,108.09 1309.35,108.09 1312.96,108.09 1316.58,108.06 1320.19,108.06 1323.80,108.06 1327.41,108.06 1331.03,108.06 1334.64,108.06 1338.25,108.06 1341.86,108.06 1345.47,108.06 1349.09,108.06 1352.70,108.06 1356.31,108.06 1359.92,108.06 1363.54,108.06 1367.15,108.06 1370.76,108.06 1374.38,108.05 1377.99,108.05 1381.60,108.04 1385.21,108.04 1388.83,108.04 1392.44,108.03 1396.05,108.03 1399.66,108.03 1403.28,108.03 1406.89,108.03 1410.50,108.03 1414.11,108.03 1417.72,108.03 1421.34,108.03 1424.95,108.03 1428.56,108.03 1432.17,108.03 1435.79,108.03 1439.40,108.03 1443.01,108.03 1446.62,108.02 1450.24,108.02 1453.85,108.02 1457.46,108.02 1461.08,108.02 1464.69,108.02 1468.30,108.02 1471.91,108.02 1475.53,108.02 1479.14,108.02 1482.75,108.02 1486.36,108.02 1489.97,108.02 1493.59,108.02 1497.20,108.02 1500.81,108.02 1504.42,108.02 1508.04,108.02 1511.65,108.02 1515.26,108.02 1518.88,108.02 1522.49,108.02 1526.10,108.01 1529.71,108.01 1533.33,108.00 1536.94,108.00 1540.55,108.00 1544.16,108.00 1547.78,108.00 1551.39,108.00 1555.00,108.00 1558.61,108.00 1562.22,108.00 1565.84,108.00 1569.45,108.00 1573.06,108.00 1576.67,108.00 1580.29,108.00 1583.90,108.00 1587.51,108.00 1591.12,108.00 1594.74,108.00 1598.35,108.00 1601.96,108.00 1605.58,108.00 1609.19,108.00 1612.80,108.00 1616.41,107.99 1620.03,107.99 1623.64,107.98 1627.25,107.98 1630.86,107.98 1634.47,107.98 1638.09,107.98 1641.70,107.98 1645.31,107.98 1648.92,107.98 1652.54,107.98 1656.15,107.98 1659.76,107.98 1663.38,107.98 1666.99,107.98 1670.60,107.98 1674.21,107.98 1677.83,107.98 1681.44,107.98 1685.05,107.98 1688.66,107.98 1692.28,107.98 1695.89,107.98 1699.50,107.98 1703.11,107.98 1706.72,107.98 1710.34,107.98 1713.95,107.98 1717.56,107.98 1721.17,107.98 1724.79,107.98 1728.40,107.98 1732.01,107.98 1735.62,107.97 1739.24,107.97 1742.85,107.97 1746.46,107.97 1750.08,107.97 1753.69,107.97 1757.30,107.97 1760.91,107.97 1764.53,107.97 1768.14,107.97 1771.75,107.97 1775.36,107.97 1778.97,107.97 1782.59,107.97 1786.20,107.97 1789.81,107.97 1793.42,107.97 1797.04,107.97 1800.65,107.97 1804.26,107.97 1807.88,107.97 1811.49,107.97 1815.10,107.97 1818.71,107.97 1822.33,107.97 1825.94,107.97 1829.55,107.97 1833.16,107.97 1836.78,107.97 1840.39,107.97 1844.00,107.97 1847.61,107.97 1851.22,107.97 1854.84,107.97 1858.45,107.97 1862.06,107.97 1865.67,107.97 1869.29,107.97 1872.90,107.97 1876.51,107.97 1880.12,107.97 1883.74,107.97 1887.35,107.97 1890.96,107.97 1894.58,107.97 1898.19,107.97 1901.80,107.97 1905.41,107.97 1909.03,107.97 1912.64,107.97 1916.25,107.97 1919.86,107.97 1923.47,107.97 1927.09,107.97 1930.70,107.97 1934.31,107.97 1937.92,107.97 1941.54,107.97 1945.15,107.97 1948.76,107.97 1952.38,107.97 1955.99,107.97 1959.60,107.97 1963.21,107.97 1966.83,107.97 1970.44,107.97 1974.05,107.97 1977.66,107.97 1981.28,107.97 1984.89,107.97 1988.50,107.97 1992.11,107.97 1995.72,107.97 1999.34,107.97 2002.95,107.97 2006.56,107.97 2010.17,107.97 2013.79,107.97 2017.40,107.97 2021.01,107.97 2024.62,107.97 2028.24,107.96 2031.85,107.96 2035.46,107.96 2039.08,107.96 2042.69,107.96 2046.30,107.96 2049.91,107.96 2053.53,107.96 2057.14,107.96 2060.75,107.96 2064.36,107.96 2067.97,107.96 2071.59,107.96 2075.20,107.96 2078.81,107.96 2082.43,107.96 2086.04,107.96 2089.65,107.96 2093.26,107.96 2096.88,107.96 2100.49,107.96 2104.10,107.96 2107.71,107.96 2111.32,107.96 2114.94,107.96 2118.55,107.96 2122.16,107.96 2125.78,107.96 2129.39,107.96 2133.00,107.96 2136.61,107.96 2140.22,107.96 2143.84,107.96 2147.45,107.96 2151.06,107.96 2154.68,107.96 2158.29,107.96 2161.90,107.96 2165.51,107.96 2169.12,107.96 2172.74,107.96 2176.35,107.96 2179.96,107.96 2183.57,107.96 2187.19,107.96 2190.80,107.96 2194.41,107.96 2198.03,107.96 2201.64,107.96 2205.25,107.96 2208.86,107.96 2212.47,107.96 2216.09,107.96 2219.70,107.96 2223.31,107.96 2226.93,107.96 2230.54,107.96 2234.15,107.96 2237.76,107.96 2241.38,107.96 2244.99,107.96 2248.60,107.96 2252.21,107.96 2255.82,107.96 2259.44,107.96 2263.05,107.96 2266.66,107.96 2270.28,107.96 2273.89,107.96 2277.50,107.96 2281.11,107.96 2284.72,107.96 2288.34,107.96 2291.95,107.96 2295.56,107.96 2299.18,107.96 2302.79,107.96 7335.00,107.96" fill="none" stroke="#0891b2" stroke-width="2.5" stroke-linejoin="round" stroke-linecap="round"/>
</g>
<rect x="6810.0" y="453.0" width="520" height="157" rx="6" fill="#ffffff" fill-opacity="0.9"/>
<g data-legend="polyak">
<line x1="6820.0" y1="470.0" x2="6850.0" y2="470.0" stroke="#2563eb" stroke-width="3"/>
<text class="legend" x="6859.0" y="475.0">Polyak (557 evals, best 7899.33)</text>
</g>
<g data-legend="helsgaun">
<line x1="6820.0" y1="495.0" x2="6850.0" y2="495.0" stroke="#dc2626" stroke-width="3"/>
<text class="legend" x="6859.0" y="500.0">Helsgaun (123 evals, best 7885.93)</text>
</g>
<g data-legend="hybrid">
<line x1="6820.0" y1="520.0" x2="6850.0" y2="520.0" stroke="#059669" stroke-width="3"/>
<text class="legend" x="6859.0" y="525.0">Hybrid P→H (654 evals, best 7899.33)</text>
</g>
<g data-legend="hybrid-reverse">
<line x1="6820.0" y1="545.0" x2="6850.0" y2="545.0" stroke="#7c3aed" stroke-width="3"/>
<text class="legend" x="6859.0" y="550.0">Hybrid H→P (595 evals, best 7899.19)</text>
</g>
<g data-legend="polyak-smoothed">
<line x1="6820.0" y1="570.0" x2="6850.0" y2="570.0" stroke="#d97706" stroke-width="3"/>
<text class="legend" x="6859.0" y="575.0">Polyak + H direction 0.7/0.3 (566 evals, best 7899.33)</text>
</g>
<g data-legend="polyak-smoothed-dynamic">
<line x1="6820.0" y1="595.0" x2="6850.0" y2="595.0" stroke="#0891b2" stroke-width="3"/>
<text class="legend" x="6859.0" y="600.0">Polyak + H direction dynamic (607 evals, best 7899.31)</text>
</g>
</svg>
