<?xml version="1.0" encoding="UTF-8"?>
<svg xmlns="http://www.w3.org/2000/svg" width="7380" height="720" viewBox="0 0 7380 720">
<title>pr107.tsp root potential ascent</title>
<desc>Polyak, Helsgaun, and Hybrid root lower-bound trajectories; the dashed line is the Concorde optimum.</desc>
<rect width="100%" height="100%" fill="#ffffff"/>
<style>text{font-family:-apple-system,BlinkMacSystemFont,"Segoe UI",Arial,sans-serif;fill:#172033}.tick{font-size:13px;fill:#596579}.axis{stroke:#334155;stroke-width:1.4}.grid{stroke:#dbe2ea;stroke-width:1}.legend{font-size:14px}.title{font-size:23px;font-weight:600}.subtitle{font-size:13px;fill:#64748b}</style>
<text class="title" x="800.0" y="33" text-anchor="middle">pr107.tsp — root potential ascent</text>
<text class="subtitle" x="800.0" y="55" text-anchor="middle">Per-phase cap: 2000; 400 iterations per 1600px; thin = raw bound, bold = best-so-far</text>
<line class="grid" x1="110.00" y1="75.0" x2="110.00" y2="615.0"/>
<text class="tick" x="110.00" y="640.0" text-anchor="middle">0</text>
<line class="grid" x1="1555.00" y1="75.0" x2="1555.00" y2="615.0"/>
<text class="tick" x="1555.00" y="640.0" text-anchor="middle">400</text>
<line class="grid" x1="3000.00" y1="75.0" x2="3000.00" y2="615.0"/>
<text class="tick" x="3000.00" y="640.0" text-anchor="middle">800</text>
<line class="grid" x1="4445.00" y1="75.0" x2="4445.00" y2="615.0"/>
<text class="tick" x="4445.00" y="640.0" text-anchor="middle">1200</text>
<line class="grid" x1="5890.00" y1="75.0" x2="5890.00" y2="615.0"/>
<text class="tick" x="5890.00" y="640.0" text-anchor="middle">1600</text>
<line class="grid" x1="7335.00" y1="75.0" x2="7335.00" y2="615.0"/>
<text class="tick" x="7335.00" y="640.0" text-anchor="middle">2000</text>
<line class="grid" x1="110.0" y1="615.00" x2="7335.0" y2="615.00"/>
<text class="tick" x="96.0" y="619.00" text-anchor="end">10977.7</text>
<line class="grid" x1="110.0" y1="507.00" x2="7335.0" y2="507.00"/>
<text class="tick" x="96.0" y="511.00" text-anchor="end">18020</text>
<line class="grid" x1="110.0" y1="399.00" x2="7335.0" y2="399.00"/>
<text class="tick" x="96.0" y="403.00" text-anchor="end">25062.4</text>
<line class="grid" x1="110.0" y1="291.00" x2="7335.0" y2="291.00"/>
<text class="tick" x="96.0" y="295.00" text-anchor="end">32104.7</text>
<line class="grid" x1="110.0" y1="183.00" x2="7335.0" y2="183.00"/>
<text class="tick" x="96.0" y="187.00" text-anchor="end">39147</text>
<line class="grid" x1="110.0" y1="75.00" x2="7335.0" y2="75.00"/>
<text class="tick" x="96.0" y="79.00" text-anchor="end">46189.3</text>
<line class="axis" x1="110.0" y1="615.0" x2="7335.0" y2="615.0"/>
<line class="axis" x1="110.0" y1="75.0" x2="110.0" y2="615.0"/>
<text x="3722.50" y="686" text-anchor="middle">Iteration</text>
<text x="27" y="345.00" text-anchor="middle" transform="rotate(-90 27 345.00)">Root lower bound</text>
<g data-series="concorde">
<line x1="110.0" y1="103.93" x2="7335.0" y2="103.93" stroke="#111827" stroke-width="1.8" stroke-dasharray="8 6"/>
<text class="tick" x="7331.0" y="95.93" text-anchor="end">Concorde optimum: 44303</text>
</g>
<g data-series="polyak">
<polyline points="113.61,245.98 117.22,379.23 120.84,425.98 124.45,398.69 128.06,415.60 131.68,486.91 135.29,483.91 138.90,523.70 142.51,497.76 146.12,517.80 149.74,501.47 153.35,507.28 156.96,547.03 160.57,586.07 164.19,421.58 167.80,337.54 171.41,310.53 175.03,257.42 178.64,266.80 182.25,245.26 185.86,269.27 189.47,252.25 193.09,268.55 196.70,246.15 200.31,261.00 203.93,249.34 207.54,251.83 211.15,253.03 214.76,252.73 218.38,247.58 221.99,245.91 225.60,253.70 229.21,252.63 232.82,216.03 236.44,229.27 240.05,208.88 243.66,221.64 247.28,208.15 250.89,219.39 254.50,212.76 258.11,217.56 261.73,210.92 265.34,214.92 268.95,210.59 272.56,216.09 276.18,208.78 279.79,217.36 283.40,209.96 287.01,213.91 290.62,211.51 294.24,214.27 297.85,201.29 301.46,201.79 305.07,198.22 308.69,199.77 312.30,198.29 315.91,197.49 319.52,198.19 323.14,200.13 326.75,197.14 330.36,199.00 333.98,198.87 337.59,198.02 341.20,198.71 344.81,199.17 348.43,197.55 352.04,198.28 355.65,198.08 359.26,199.27 362.88,197.69 366.49,197.50 370.10,197.27 373.71,198.53 377.32,192.82 380.94,193.62 384.55,192.16 388.16,193.07 391.77,192.02 395.39,193.00 399.00,192.41 402.61,191.99 406.23,193.30 409.84,191.49 413.45,193.89 417.06,190.73 420.68,193.59 424.29,190.34 427.90,193.62 431.51,191.09 435.12,192.91 438.74,190.84 442.35,193.17 445.96,191.43 449.57,192.74 453.19,190.44 456.80,192.12 460.41,191.37 464.02,191.26 467.64,191.91 471.25,190.88 474.86,189.42 478.48,188.96 482.09,190.61 485.70,188.80 489.31,190.28 492.93,188.32 496.54,191.00 500.15,189.00 503.76,189.14 507.38,189.25 510.99,188.94 514.60,188.92 518.21,189.30 521.83,188.76 525.44,188.85 529.05,189.41 532.66,188.46 536.27,189.04 539.89,189.06 543.50,187.62 547.11,188.29 550.73,187.86 554.34,187.91 557.95,188.09 561.56,187.74 565.17,187.96 568.79,187.65 572.40,188.11 576.01,187.42 579.62,187.81 583.24,187.44 586.85,188.15 590.46,187.23 594.08,187.94 597.69,187.73 601.30,187.57 604.91,187.75 608.52,187.51 612.14,187.80 615.75,187.49 619.36,187.73 622.98,187.67 626.59,187.67 630.20,187.82 633.81,187.37 637.42,188.16 641.04,187.29 644.65,187.23 648.26,187.03 651.88,187.24 655.49,187.03 659.10,187.47 662.71,186.96 666.33,187.35 669.94,186.84 673.55,187.54 677.16,187.06 680.77,186.95 684.39,187.14 688.00,187.00 691.61,187.21 695.23,186.89 698.84,187.01 702.45,187.13 706.06,186.86 709.67,187.02 713.29,186.92 716.90,187.02 720.51,186.68 724.12,186.75 727.74,186.66 731.35,186.79 734.96,186.55 738.58,186.83 742.19,186.54 745.80,186.85 749.41,186.53 753.02,186.80 756.64,186.58 760.25,186.60 763.86,186.63 767.48,186.58 771.09,186.66 774.70,186.59 778.31,186.63 781.92,186.60 785.54,186.52 789.15,186.56 792.76,186.50 796.38,186.70 799.99,186.45 803.60,186.76 807.21,186.40 810.83,186.79 814.44,186.54 818.05,186.59 821.66,186.46 825.27,186.54 828.89,186.57 832.50,186.47 836.11,186.59 839.73,186.52 843.34,186.42 846.95,186.65 850.56,186.40 854.17,186.59 857.79,186.36 861.40,186.42 865.01,186.33 868.62,186.35 872.24,186.37 875.85,186.35 879.46,186.30 883.08,186.34 886.69,186.35 890.30,186.31 893.91,186.30 897.52,186.32 901.14,186.37 904.75,186.23 908.36,186.34 911.98,186.23 915.59,186.37 919.20,186.29 922.81,186.28 926.42,186.31 930.04,186.25 933.65,186.37 937.26,186.24 940.88,186.29 944.49,186.27 948.10,186.25 951.71,186.36 955.33,186.21 958.94,186.34 962.55,186.21 966.16,186.28 969.77,186.21 973.39,186.37 977.00,186.21 980.61,186.30 984.23,186.22 987.84,186.26 991.45,186.22 995.06,186.30 998.67,186.21 1002.29,186.29 1005.90,186.19 1009.51,186.24 1013.12,186.22 1016.74,186.19 1020.35,186.29 1023.96,186.19 1027.58,186.26 1031.19,186.17 1034.80,186.29 1038.41,186.18 1042.03,186.23 1045.64,186.19 1049.25,186.25 1052.86,186.15 1056.47,186.26 1060.09,186.15 1063.70,186.20 1067.31,186.13 1070.92,186.27 1074.54,186.11 1078.15,186.30 1081.76,186.14 1085.38,186.24 1088.99,186.14 1092.60,186.21 1096.21,186.12 1099.83,186.25 1103.44,186.12 1107.05,186.18 1110.66,186.11 1114.28,186.18 1117.89,186.15 1121.50,186.18 1125.11,186.08 1128.72,186.11 1132.34,186.08 1135.95,186.12 1139.56,186.09 1143.17,186.06 1146.79,186.11 1150.40,186.05 1154.01,186.11 1157.62,186.04 1161.24,186.11 1164.85,186.04 1168.46,186.11 1172.08,186.04 1175.69,186.10 1179.30,186.03 1182.91,186.11 1186.53,186.02 1190.14,186.12 1193.75,186.06 1197.36,186.05 1200.97,186.05 1204.59,186.05 1208.20,186.04 1211.81,186.06 1215.42,186.05 1219.04,186.05 1222.65,186.03 1226.26,186.08 1229.88,186.03 1233.49,186.05 1237.10,186.00 1240.71,186.02 1244.33,186.00 1247.94,186.01 1251.55,186.00 1255.16,186.01 1258.78,185.99 1262.39,186.01 1266.00,185.98 1269.61,186.02 1273.22,185.98 1276.84,186.01 1280.45,185.98 1284.06,185.99 1287.67,185.98 1291.29,186.00 1294.90,185.98 1298.51,185.99 1302.12,185.98 1305.74,185.98 1309.35,185.99 1312.96,185.97 1316.58,186.00 1320.19,185.96 1323.80,185.99 1327.41,185.98 1331.03,185.99 1334.64,185.98 1338.25,185.97 1341.86,186.00 1345.47,185.97 1349.09,185.99 1352.70,185.97 1356.31,185.99 1359.92,185.97 1363.54,185.99 1367.15,185.96 1370.76,185.96 1374.38,185.96 1377.99,185.97 1381.60,185.95 1385.21,185.97 1388.83,185.95 1392.44,185.96 1396.05,185.95 1399.66,185.97 1403.28,185.95 1406.89,185.97 1410.50,185.94 1414.11,185.97 1417.72,185.95 1421.34,185.95 1424.95,185.96 1428.56,185.95 1432.17,185.96 1435.79,185.94 1439.40,185.96 1443.01,185.95 1446.62,185.96 1450.24,185.94 1453.85,185.96 1457.46,185.94 1461.08,185.96 1464.69,185.94 1468.30,185.95 1471.91,185.94 1475.53,185.96 1479.14,185.94 1482.75,185.95 1486.36,185.93 1489.97,185.96 1493.59,185.94 1497.20,185.95 1500.81,185.94 1504.42,185.96 1508.04,185.94 1511.65,185.95 1515.26,185.94 1518.88,185.96 1522.49,185.94 1526.10,185.94 1529.71,185.95 1533.33,185.94 1536.94,185.93 1540.55,185.93 1544.16,185.93 1547.78,185.93 1551.39,185.93 1555.00,185.93 1558.61,185.93 1562.22,185.93 1565.84,185.93 1569.45,185.93 1573.06,185.93 1576.67,185.93 1580.29,185.93 1583.90,185.93 1587.51,185.93 1591.12,185.93 1594.74,185.93 1598.35,185.93 1601.96,185.93 1605.58,185.93 1609.19,185.93 1612.80,185.93 1616.41,185.93 1620.03,185.92 1623.64,185.93 1627.25,185.93 1630.86,185.93 1634.47,185.93 1638.09,185.92 1641.70,185.93 1645.31,185.92 1648.92,185.93 1652.54,185.92 1656.15,185.93 1659.76,185.92 1663.38,185.93 1666.99,185.92 1670.60,185.93 1674.21,185.92 1677.83,185.93 1681.44,185.92 1685.05,185.93 1688.66,185.92 1692.28,185.93 1695.89,185.92 1699.50,185.93 1703.11,185.92 1706.72,185.93 1710.34,185.92 1713.95,185.93 1717.56,185.92 1721.17,185.93 1724.79,185.92 1728.40,185.92 1732.01,185.92 1735.62,185.92 1739.24,185.92 1742.85,185.93 1746.46,185.92 1750.08,185.92 1753.69,185.92 1757.30,185.92 1760.91,185.92 1764.53,185.92 1768.14,185.92 1771.75,185.92 1775.36,185.92 1778.97,185.92 1782.59,185.92 1786.20,185.92 1789.81,185.92 1793.42,185.92 1797.04,185.92 1800.65,185.92 1804.26,185.92 1807.88,185.92 1811.49,185.92 1815.10,185.92 1818.71,185.92 1822.33,185.91 1825.94,185.92 1829.55,185.91 1833.16,185.92 1836.78,185.92 1840.39,185.91 1844.00,185.92 1847.61,185.91 1851.22,185.92 1854.84,185.91 1858.45,185.92 1862.06,185.91 1865.67,185.92 1869.29,185.91 1872.90,185.92 1876.51,185.91 1880.12,185.91 1883.74,185.92 1887.35,185.91 1890.96,185.91 1894.58,185.91 1898.19,185.91 1901.80,185.91 1905.41,185.91 1909.03,185.91 1912.64,185.91 1916.25,185.91 1919.86,185.91 1923.47,185.91 1927.09,185.91 1930.70,185.91 1934.31,185.91 1937.92,185.91 1941.54,185.91 1945.15,185.91 1948.76,185.91 1952.38,185.91 1955.99,185.91 1959.60,185.91 1963.21,185.91 1966.83,185.91 1970.44,185.91 1974.05,185.91 1977.66,185.91 1981.28,185.91 1984.89,185.91 1988.50,185.91 1992.11,185.91 1995.72,185.91 1999.34,185.91 2002.95,185.91 2006.56,185.91 2010.17,185.91 2013.79,185.91 2017.40,185.91 2021.01,185.91 2024.62,185.91 2028.24,185.91 2031.85,185.91 2035.46,185.91 2039.08,185.91 2042.69,185.91 2046.30,185.91 2049.91,185.91 2053.53,185.91 2057.14,185.91 2060.75,185.91 2064.36,185.91 2067.97,185.91 2071.59,185.91 2075.20,185.91 2078.81,185.91 2082.43,185.91 2086.04,185.91 2089.65,185.91 2093.26,185.91 2096.88,185.91 2100.49,185.91 2104.10,185.91 2107.71,185.91 2111.32,185.91 2114.94,185.91 2118.55,185.91 2122.16,185.91 2125.78,185.91 2129.39,185.91 2133.00,185.91 2136.61,185.91 2140.22,185.91 2143.84,185.91 2147.45,185.91 2151.06,185.91 2154.68,185.91 2158.29,185.91 2161.90,185.91 2165.51,185.91 2169.12,185.91 2172.74,185.91 2176.35,185.91 2179.96,185.91 2183.57,185.91 2187.19,185.91 2190.80,185.91 2194.41,185.91 2198.03,185.91 2201.64,185.91 2205.25,185.91 2208.86,185.91 2212.47,185.91 2216.09,185.91 2219.70,185.91 2223.31,185.91 2226.93,185.91 2230.54,185.91 2234.15,185.91 2237.76,185.91 2241.38,185.91 2244.99,185.91 2248.60,185.91 2252.21,185.91 2255.82,185.91" fill="none" stroke="#2563eb" stroke-width="1.2" stroke-opacity="0.28" stroke-linejoin="round"/>
<polyline points="113.61,245.98 117.22,245.98 120.84,245.98 124.45,245.98 128.06,245.98 131.68,245.98 135.29,245.98 138.90,245.98 142.51,245.98 146.12,245.98 149.74,245.98 153.35,245.98 156.96,245.98 160.57,245.98 164.19,245.98 167.80,245.98 171.41,245.98 175.03,245.98 178.64,245.98 182.25,245.26 185.86,245.26 189.47,245.26 193.09,245.26 196.70,245.26 200.31,245.26 203.93,245.26 207.54,245.26 211.15,245.26 214.76,245.26 218.38,245.26 221.99,245.26 225.60,245.26 229.21,245.26 232.82,216.03 236.44,216.03 240.05,208.88 243.66,208.88 247.28,208.15 250.89,208.15 254.50,208.15 258.11,208.15 261.73,208.15 265.34,208.15 268.95,208.15 272.56,208.15 276.18,208.15 279.79,208.15 283.40,208.15 287.01,208.15 290.62,208.15 294.24,208.15 297.85,201.29 301.46,201.29 305.07,198.22 308.69,198.22 312.30,198.22 315.91,197.49 319.52,197.49 323.14,197.49 326.75,197.14 330.36,197.14 333.98,197.14 337.59,197.14 341.20,197.14 344.81,197.14 348.43,197.14 352.04,197.14 355.65,197.14 359.26,197.14 362.88,197.14 366.49,197.14 370.10,197.14 373.71,197.14 377.32,192.82 380.94,192.82 384.55,192.16 388.16,192.16 391.77,192.02 395.39,192.02 399.00,192.02 402.61,191.99 406.23,191.99 409.84,191.49 413.45,191.49 417.06,190.73 420.68,190.73 424.29,190.34 427.90,190.34 431.51,190.34 435.12,190.34 438.74,190.34 442.35,190.34 445.96,190.34 449.57,190.34 453.19,190.34 456.80,190.34 460.41,190.34 464.02,190.34 467.64,190.34 471.25,190.34 474.86,189.42 478.48,188.96 482.09,188.96 485.70,188.80 489.31,188.80 492.93,188.32 496.54,188.32 500.15,188.32 503.76,188.32 507.38,188.32 510.99,188.32 514.60,188.32 518.21,188.32 521.83,188.32 525.44,188.32 529.05,188.32 532.66,188.32 536.27,188.32 539.89,188.32 543.50,187.62 547.11,187.62 550.73,187.62 554.34,187.62 557.95,187.62 561.56,187.62 565.17,187.62 568.79,187.62 572.40,187.62 576.01,187.42 579.62,187.42 583.24,187.42 586.85,187.42 590.46,187.23 594.08,187.23 597.69,187.23 601.30,187.23 604.91,187.23 608.52,187.23 612.14,187.23 615.75,187.23 619.36,187.23 622.98,187.23 626.59,187.23 630.20,187.23 633.81,187.23 637.42,187.23 641.04,187.23 644.65,187.23 648.26,187.03 651.88,187.03 655.49,187.03 659.10,187.03 662.71,186.96 666.33,186.96 669.94,186.84 673.55,186.84 677.16,186.84 680.77,186.84 684.39,186.84 688.00,186.84 691.61,186.84 695.23,186.84 698.84,186.84 702.45,186.84 706.06,186.84 709.67,186.84 713.29,186.84 716.90,186.84 720.51,186.68 724.12,186.68 727.74,186.66 731.35,186.66 734.96,186.55 738.58,186.55 742.19,186.54 745.80,186.54 749.41,186.53 753.02,186.53 756.64,186.53 760.25,186.53 763.86,186.53 767.48,186.53 771.09,186.53 774.70,186.53 778.31,186.53 781.92,186.53 785.54,186.52 789.15,186.52 792.76,186.50 796.38,186.50 799.99,186.45 803.60,186.45 807.21,186.40 810.83,186.40 814.44,186.40 818.05,186.40 821.66,186.40 825.27,186.40 828.89,186.40 832.50,186.40 836.11,186.40 839.73,186.40 843.34,186.40 846.95,186.40 850.56,186.40 854.17,186.40 857.79,186.36 861.40,186.36 865.01,186.33 868.62,186.33 872.24,186.33 875.85,186.33 879.46,186.30 883.08,186.30 886.69,186.30 890.30,186.30 893.91,186.30 897.52,186.30 901.14,186.30 904.75,186.23 908.36,186.23 911.98,186.23 915.59,186.23 919.20,186.23 922.81,186.23 926.42,186.23 930.04,186.23 933.65,186.23 937.26,186.23 940.88,186.23 944.49,186.23 948.10,186.23 951.71,186.23 955.33,186.21 958.94,186.21 962.55,186.21 966.16,186.21 969.77,186.21 973.39,186.21 977.00,186.21 980.61,186.21 984.23,186.21 987.84,186.21 991.45,186.21 995.06,186.21 998.67,186.21 1002.29,186.21 1005.90,186.19 1009.51,186.19 1013.12,186.19 1016.74,186.19 1020.35,186.19 1023.96,186.19 1027.58,186.19 1031.19,186.17 1034.80,186.17 1038.41,186.17 1042.03,186.17 1045.64,186.17 1049.25,186.17 1052.86,186.15 1056.47,186.15 1060.09,186.15 1063.70,186.15 1067.31,186.13 1070.92,186.13 1074.54,186.11 1078.15,186.11 1081.76,186.11 1085.38,186.11 1088.99,186.11 1092.60,186.11 1096.21,186.11 1099.83,186.11 1103.44,186.11 1107.05,186.11 1110.66,186.11 1114.28,186.11 1117.89,186.11 1121.50,186.11 1125.11,186.08 1128.72,186.08 1132.34,186.08 1135.95,186.08 1139.56,186.08 1143.17,186.06 1146.79,186.06 1150.40,186.05 1154.01,186.05 1157.62,186.04 1161.24,186.04 1164.85,186.04 1168.46,186.04 1172.08,186.04 1175.69,186.04 1179.30,186.03 1182.91,186.03 1186.53,186.02 1190.14,186.02 1193.75,186.02 1197.36,186.02 1200.97,186.02 1204.59,186.02 1208.20,186.02 1211.81,186.02 1215.42,186.02 1219.04,186.02 1222.65,186.02 1226.26,186.02 1229.88,186.02 1233.49,186.02 1237.10,186.00 1240.71,186.00 1244.33,186.00 1247.94,186.00 1251.55,186.00 1255.16,186.00 1258.78,185.99 1262.39,185.99 1266.00,185.98 1269.61,185.98 1273.22,185.98 1276.84,185.98 1280.45,185.98 1284.06,185.98 1287.67,185.98 1291.29,185.98 1294.90,185.98 1298.51,185.98 1302.12,185.98 1305.74,185.98 1309.35,185.98 1312.96,185.97 1316.58,185.97 1320.19,185.96 1323.80,185.96 1327.41,185.96 1331.03,185.96 1334.64,185.96 1338.25,185.96 1341.86,185.96 1345.47,185.96 1349.09,185.96 1352.70,185.96 1356.31,185.96 1359.92,185.96 1363.54,185.96 1367.15,185.96 1370.76,185.96 1374.38,185.96 1377.99,185.96 1381.60,185.95 1385.21,185.95 1388.83,185.95 1392.44,185.95 1396.05,185.95 1399.66,185.95 1403.28,185.95 1406.89,185.95 1410.50,185.94 1414.11,185.94 1417.72,185.94 1421.34,185.94 1424.95,185.94 1428.56,185.94 1432.17,185.94 1435.79,185.94 1439.40,185.94 1443.01,185.94 1446.62,185.94 1450.24,185.94 1453.85,185.94 1457.46,185.94 1461.08,185.94 1464.69,185.94 1468.30,185.94 1471.91,185.94 1475.53,185.94 1479.14,185.94 1482.75,185.94 1486.36,185.93 1489.97,185.93 1493.59,185.93 1497.20,185.93 1500.81,185.93 1504.42,185.93 1508.04,185.93 1511.65,185.93 1515.26,185.93 1518.88,185.93 1522.49,185.93 1526.10,185.93 1529.71,185.93 1533.33,185.93 1536.94,185.93 1540.55,185.93 1544.16,185.93 1547.78,185.93 1551.39,185.93 1555.00,185.93 1558.61,185.93 1562.22,185.93 1565.84,185.93 1569.45,185.93 1573.06,185.93 1576.67,185.93 1580.29,185.93 1583.90,185.93 1587.51,185.93 1591.12,185.93 1594.74,185.93 1598.35,185.93 1601.96,185.93 1605.58,185.93 1609.19,185.93 1612.80,185.93 1616.41,185.93 1620.03,185.92 1623.64,185.92 1627.25,185.92 1630.86,185.92 1634.47,185.92 1638.09,185.92 1641.70,185.92 1645.31,185.92 1648.92,185.92 1652.54,185.92 1656.15,185.92 1659.76,185.92 1663.38,185.92 1666.99,185.92 1670.60,185.92 1674.21,185.92 1677.83,185.92 1681.44,185.92 1685.05,185.92 1688.66,185.92 1692.28,185.92 1695.89,185.92 1699.50,185.92 1703.11,185.92 1706.72,185.92 1710.34,185.92 1713.95,185.92 1717.56,185.92 1721.17,185.92 1724.79,185.92 1728.40,185.92 1732.01,185.92 1735.62,185.92 1739.24,185.92 1742.85,185.92 1746.46,185.92 1750.08,185.92 1753.69,185.92 1757.30,185.92 1760.91,185.92 1764.53,185.92 1768.14,185.92 1771.75,185.92 1775.36,185.92 1778.97,185.92 1782.59,185.92 1786.20,185.92 1789.81,185.92 1793.42,185.92 1797.04,185.92 1800.65,185.92 1804.26,185.92 1807.88,185.92 1811.49,185.92 1815.10,185.92 1818.71,185.92 1822.33,185.91 1825.94,185.91 1829.55,185.91 1833.16,185.91 1836.78,185.91 1840.39,185.91 1844.00,185.91 1847.61,185.91 1851.22,185.91 1854.84,185.91 1858.45,185.91 1862.06,185.91 1865.67,185.91 1869.29,185.91 1872.90,185.91 1876.51,185.91 1880.12,185.91 1883.74,185.91 1887.35,185.91 1890.96,185.91 1894.58,185.91 1898.19,185.91 1901.80,185.91 1905.41,185.91 1909.03,185.91 1912.64,185.91 1916.25,185.91 1919.86,185.91 1923.47,185.91 1927.09,185.91 1930.70,185.91 1934.31,185.91 1937.92,185.91 1941.54,185.91 1945.15,185.91 1948.76,185.91 1952.38,185.91 1955.99,185.91 1959.60,185.91 1963.21,185.91 1966.83,185.91 1970.44,185.91 1974.05,185.91 1977.66,185.91 1981.28,185.91 1984.89,185.91 1988.50,185.91 1992.11,185.91 1995.72,185.91 1999.34,185.91 2002.95,185.91 2006.56,185.91 2010.17,185.91 2013.79,185.91 2017.40,185.91 2021.01,185.91 2024.62,185.91 2028.24,185.91 2031.85,185.91 2035.46,185.91 2039.08,185.91 2042.69,185.91 2046.30,185.91 2049.91,185.91 2053.53,185.91 2057.14,185.91 2060.75,185.91 2064.36,185.91 2067.97,185.91 2071.59,185.91 2075.20,185.91 2078.81,185.91 2082.43,185.91 2086.04,185.91 2089.65,185.91 2093.26,185.91 2096.88,185.91 2100.49,185.91 2104.10,185.91 2107.71,185.91 2111.32,185.91 2114.94,185.91 2118.55,185.91 2122.16,185.91 2125.78,185.91 2129.39,185.91 2133.00,185.91 2136.61,185.91 2140.22,185.91 2143.84,185.91 2147.45,185.91 2151.06,185.91 2154.68,185.91 2158.29,185.91 2161.90,185.91 2165.51,185.91 2169.12,185.91 2172.74,185.91 2176.35,185.91 2179.96,185.91 2183.57,185.91 2187.19,185.91 2190.80,185.91 2194.41,185.91 2198.03,185.91 2201.64,185.91 2205.25,185.91 2208.86,185.91 2212.47,185.91 2216.09,185.91 2219.70,185.91 2223.31,185.91 2226.93,185.91 2230.54,185.91 2234.15,185.91 2237.76,185.91 2241.38,185.91 2244.99,185.91 2248.60,185.91 2252.21,185.91 2255.82,185.91 7335.00,185.91" fill="none" stroke="#2563eb" stroke-width="2.5" stroke-linejoin="round" stroke-linecap="round"/>
</g>
<g data-series="helsgaun">
<polyline points="113.61,245.98 117.22,244.93 120.84,242.63 124.45,238.17 128.06,230.35 131.68,222.09 135.29,219.10 138.90,237.15 142.51,224.87 146.12,230.32 149.74,230.39 153.35,229.58 156.96,227.83 160.57,228.98 164.19,229.27 167.80,232.05 171.41,225.77 175.03,224.23 178.64,226.46 182.25,224.65 185.86,222.24 189.47,221.19 193.09,222.51 196.70,225.21 200.31,224.28 203.93,229.87 207.54,224.82 211.15,227.56 214.76,222.00 218.38,219.40 221.99,222.45 225.60,222.23 229.21,224.16 232.82,219.74 236.44,221.28 240.05,220.72 243.66,219.39 247.28,223.56 250.89,217.50 254.50,221.97 258.11,221.32 261.73,221.52 265.34,222.35 268.95,221.94 272.56,221.63 276.18,221.61 279.79,226.90 283.40,218.97 287.01,215.45 290.62,217.63 294.24,215.87 297.85,217.48 301.46,221.27 305.07,220.14 308.69,211.46 312.30,204.73 315.91,204.84 319.52,203.38 323.14,204.31 326.75,205.19 330.36,205.38 333.98,203.91 337.59,207.74 341.20,202.82 344.81,206.23 348.43,201.28 352.04,206.08 355.65,203.51 359.26,205.85 362.88,203.02 366.49,201.89 370.10,205.99 373.71,202.85 377.32,203.79 380.94,201.81 384.55,202.98 388.16,201.88 391.77,201.89 395.39,203.30 399.00,201.56 402.61,200.62 406.23,197.25 409.84,196.96 413.45,196.47 417.06,196.00 420.68,197.75 424.29,196.25 427.90,197.19 431.51,197.14 435.12,197.67 438.74,196.74 442.35,196.40 445.96,196.94 449.57,195.58 453.19,194.90 456.80,194.37 460.41,194.59 464.02,194.64 467.64,194.58 471.25,193.92 474.86,193.87 478.48,193.89 482.09,193.70 485.70,193.67 489.31,193.59 492.93,193.59 496.54,193.56 500.15,193.53 503.76,193.53 507.38,193.52 510.99,193.51 514.60,193.51 518.21,193.51 521.83,193.51 525.44,193.51 529.05,193.51 532.66,193.51 536.27,193.50 539.89,193.50 543.50,193.50 547.11,193.50 550.73,193.50 554.34,193.50 557.95,193.50" fill="none" stroke="#dc2626" stroke-width="1.2" stroke-opacity="0.28" stroke-linejoin="round"/>
<polyline points="113.61,245.98 117.22,244.93 120.84,242.63 124.45,238.17 128.06,230.35 131.68,222.09 135.29,219.10 138.90,219.10 142.51,219.10 146.12,219.10 149.74,219.10 153.35,219.10 156.96,219.10 160.57,219.10 164.19,219.10 167.80,219.10 171.41,219.10 175.03,219.10 178.64,219.10 182.25,219.10 185.86,219.10 189.47,219.10 193.09,219.10 196.70,219.10 200.31,219.10 203.93,219.10 207.54,219.10 211.15,219.10 214.76,219.10 218.38,219.10 221.99,219.10 225.60,219.10 229.21,219.10 232.82,219.10 236.44,219.10 240.05,219.10 243.66,219.10 247.28,219.10 250.89,217.50 254.50,217.50 258.11,217.50 261.73,217.50 265.34,217.50 268.95,217.50 272.56,217.50 276.18,217.50 279.79,217.50 283.40,217.50 287.01,215.45 290.62,215.45 294.24,215.45 297.85,215.45 301.46,215.45 305.07,215.45 308.69,211.46 312.30,204.73 315.91,204.73 319.52,203.38 323.14,203.38 326.75,203.38 330.36,203.38 333.98,203.38 337.59,203.38 341.20,202.82 344.81,202.82 348.43,201.28 352.04,201.28 355.65,201.28 359.26,201.28 362.88,201.28 366.49,201.28 370.10,201.28 373.71,201.28 377.32,201.28 380.94,201.28 384.55,201.28 388.16,201.28 391.77,201.28 395.39,201.28 399.00,201.28 402.61,200.62 406.23,197.25 409.84,196.96 413.45,196.47 417.06,196.00 420.68,196.00 424.29,196.00 427.90,196.00 431.51,196.00 435.12,196.00 438.74,196.00 442.35,196.00 445.96,196.00 449.57,195.58 453.19,194.90 456.80,194.37 460.41,194.37 464.02,194.37 467.64,194.37 471.25,193.92 474.86,193.87 478.48,193.87 482.09,193.70 485.70,193.67 489.31,193.59 492.93,193.59 496.54,193.56 500.15,193.53 503.76,193.53 507.38,193.52 510.99,193.51 514.60,193.51 518.21,193.51 521.83,193.51 525.44,193.51 529.05,193.51 532.66,193.51 536.27,193.50 539.89,193.50 543.50,193.50 547.11,193.50 550.73,193.50 554.34,193.50 557.95,193.50 7335.00,193.50" fill="none" stroke="#dc2626" stroke-width="2.5" stroke-linejoin="round" stroke-linecap="round"/>
</g>
<g data-series="hybrid">
<polyline points="113.61,245.98 117.22,379.23 120.84,425.98 124.45,398.69 128.06,415.60 131.68,486.91 135.29,483.91 138.90,523.70 142.51,497.76 146.12,517.80 149.74,501.47 153.35,507.28 156.96,547.03 160.57,586.07 164.19,421.58 167.80,337.54 171.41,310.53 175.03,257.42 178.64,266.80 182.25,245.26 185.86,269.27 189.47,252.25 193.09,268.55 196.70,246.15 200.31,261.00 203.93,249.34 207.54,251.83 211.15,253.03 214.76,252.73 218.38,247.58 221.99,245.91 225.60,253.70 229.21,252.63 232.82,216.03 236.44,229.27 240.05,208.88 243.66,221.64 247.28,208.15 250.89,219.39 254.50,212.76 258.11,217.56 261.73,210.92 265.34,214.92 268.95,210.59 272.56,216.09 276.18,208.78 279.79,217.36 283.40,209.96 287.01,213.91 290.62,211.51 294.24,214.27 297.85,201.29 301.46,201.79 305.07,198.22 308.69,199.77 312.30,198.29 315.91,197.49 319.52,198.19 323.14,200.13 326.75,197.14 330.36,199.00 333.98,198.87 337.59,198.02 341.20,198.71 344.81,199.17 348.43,197.55 352.04,198.28 355.65,198.08 359.26,199.27 362.88,197.69 366.49,197.50 370.10,197.27 373.71,198.53 377.32,192.82 380.94,193.62 384.55,192.16 388.16,193.07 391.77,192.02 395.39,193.00 399.00,192.41 402.61,191.99 406.23,193.30 409.84,191.49 413.45,193.89 417.06,190.73 420.68,193.59 424.29,190.34 427.90,193.62 431.51,191.09 435.12,192.91 438.74,190.84 442.35,193.17 445.96,191.43 449.57,192.74 453.19,190.44 456.80,192.12 460.41,191.37 464.02,191.26 467.64,191.91 471.25,190.88 474.86,189.42 478.48,188.96 482.09,190.61 485.70,188.80 489.31,190.28 492.93,188.32 496.54,191.00 500.15,189.00 503.76,189.14 507.38,189.25 510.99,188.94 514.60,188.92 518.21,189.30 521.83,188.76 525.44,188.85 529.05,189.41 532.66,188.46 536.27,189.04 539.89,189.06 543.50,187.62 547.11,188.29 550.73,187.86 554.34,187.91 557.95,188.09 561.56,187.74 565.17,187.96 568.79,187.65 572.40,188.11 576.01,187.42 579.62,187.81 583.24,187.44 586.85,188.15 590.46,187.23 594.08,187.94 597.69,187.73 601.30,187.57 604.91,187.75 608.52,187.51 612.14,187.80 615.75,187.49 619.36,187.73 622.98,187.67 626.59,187.67 630.20,187.82 633.81,187.37 637.42,188.16 641.04,187.29 644.65,187.23 648.26,187.03 651.88,187.24 655.49,187.03 659.10,187.47 662.71,186.96 666.33,187.35 669.94,186.84 673.55,187.54 677.16,187.06 680.77,186.95 684.39,187.14 688.00,187.00 691.61,187.21 695.23,186.89 698.84,187.01 702.45,187.13 706.06,186.86 709.67,187.02 713.29,186.92 716.90,187.02 720.51,186.68 724.12,186.75 727.74,186.66 731.35,186.79 734.96,186.55 738.58,186.83 742.19,186.54 745.80,186.85 749.41,186.53 753.02,186.80 756.64,186.58 760.25,186.60 763.86,186.63 767.48,186.58 771.09,186.66 774.70,186.59 778.31,186.63 781.92,186.60 785.54,186.52 789.15,186.56 792.76,186.50 796.38,186.70 799.99,186.45 803.60,186.76 807.21,186.40 810.83,186.79 814.44,186.54 818.05,186.59 821.66,186.46 825.27,186.54 828.89,186.57 832.50,186.47 836.11,186.59 839.73,186.52 843.34,186.42 846.95,186.65 850.56,186.40 854.17,186.59 857.79,186.36 861.40,186.42 865.01,186.33 868.62,186.35 872.24,186.37 875.85,186.35 879.46,186.30 883.08,186.34 886.69,186.35 890.30,186.31 893.91,186.30 897.52,186.32 901.14,186.37 904.75,186.23 908.36,186.34 911.98,186.23 915.59,186.37 919.20,186.29 922.81,186.28 926.42,186.31 930.04,186.25 933.65,186.37 937.26,186.24 940.88,186.29 944.49,186.27 948.10,186.25 951.71,186.36 955.33,186.21 958.94,186.34 962.55,186.21 966.16,186.28 969.77,186.21 973.39,186.37 977.00,186.21 980.61,186.30 984.23,186.22 987.84,186.26 991.45,186.22 995.06,186.30 998.67,186.21 1002.29,186.29 1005.90,186.19 1009.51,186.24 1013.12,186.22 1016.74,186.19 1020.35,186.29 1023.96,186.19 1027.58,186.26 1031.19,186.17 1034.80,186.29 1038.41,186.18 1042.03,186.23 1045.64,186.19 1049.25,186.25 1052.86,186.15 1056.47,186.26 1060.09,186.15 1063.70,186.20 1067.31,186.13 1070.92,186.27 1074.54,186.11 1078.15,186.30 1081.76,186.14 1085.38,186.24 1088.99,186.14 1092.60,186.21 1096.21,186.12 1099.83,186.25 1103.44,186.12 1107.05,186.18 1110.66,186.11 1114.28,186.18 1117.89,186.15 1121.50,186.18 1125.11,186.08 1128.72,186.11 1132.34,186.08 1135.95,186.12 1139.56,186.09 1143.17,186.06 1146.79,186.11 1150.40,186.05 1154.01,186.11 1157.62,186.04 1161.24,186.11 1164.85,186.04 1168.46,186.11 1172.08,186.04 1175.69,186.10 1179.30,186.03 1182.91,186.11 1186.53,186.02 1190.14,186.12 1193.75,186.06 1197.36,186.05 1200.97,186.05 1204.59,186.05 1208.20,186.04 1211.81,186.06 1215.42,186.05 1219.04,186.05 1222.65,186.03 1226.26,186.08 1229.88,186.03 1233.49,186.05 1237.10,186.00 1240.71,186.02 1244.33,186.00 1247.94,186.01 1251.55,186.00 1255.16,186.01 1258.78,185.99 1262.39,186.01 1266.00,185.98 1269.61,186.02 1273.22,185.98 1276.84,186.01 1280.45,185.98 1284.06,185.99 1287.67,185.98 1291.29,186.00 1294.90,185.98 1298.51,185.99 1302.12,185.98 1305.74,185.98 1309.35,185.99 1312.96,185.97 1316.58,186.00 1320.19,185.96 1323.80,185.99 1327.41,185.98 1331.03,185.99 1334.64,185.98 1338.25,185.97 1341.86,186.00 1345.47,185.97 1349.09,185.99 1352.70,185.97 1356.31,185.99 1359.92,185.97 1363.54,185.99 1367.15,185.96 1370.76,185.96 1374.38,185.96 1377.99,185.97 1381.60,185.95 1385.21,185.97 1388.83,185.95 1392.44,185.96 1396.05,185.95 1399.66,185.97 1403.28,185.95 1406.89,185.97 1410.50,185.94 1414.11,185.97 1417.72,185.95 1421.34,185.95 1424.95,185.96 1428.56,185.95 1432.17,185.96 1435.79,185.94 1439.40,185.96 1443.01,185.95 1446.62,185.96 1450.24,185.94 1453.85,185.96 1457.46,185.94 1461.08,185.96 1464.69,185.94 1468.30,185.95 1471.91,185.94 1475.53,185.96 1479.14,185.94 1482.75,185.95 1486.36,185.93 1489.97,185.96 1493.59,185.94 1497.20,185.95 1500.81,185.94 1504.42,185.96 1508.04,185.94 1511.65,185.95 1515.26,185.94 1518.88,185.96 1522.49,185.94 1526.10,185.94 1529.71,185.95 1533.33,185.94 1536.94,185.93 1540.55,185.93 1544.16,185.93 1547.78,185.93 1551.39,185.93 1555.00,185.93 1558.61,185.93 1562.22,185.93 1565.84,185.93 1569.45,185.93 1573.06,185.93 1576.67,185.93 1580.29,185.93 1583.90,185.93 1587.51,185.93 1591.12,185.93 1594.74,185.93 1598.35,185.93 1601.96,185.93 1605.58,185.93 1609.19,185.93 1612.80,185.93 1616.41,185.93 1620.03,185.92 1623.64,185.93 1627.25,185.93 1630.86,185.93 1634.47,185.93 1638.09,185.92 1641.70,185.93 1645.31,185.92 1648.92,185.93 1652.54,185.92 1656.15,185.93 1659.76,185.92 1663.38,185.93 1666.99,185.92 1670.60,185.93 1674.21,185.92 1677.83,185.93 1681.44,185.92 1685.05,185.93 1688.66,185.92 1692.28,185.93 1695.89,185.92 1699.50,185.93 1703.11,185.92 1706.72,185.93 1710.34,185.92 1713.95,185.93 1717.56,185.92 1721.17,185.93 1724.79,185.92 1728.40,185.92 1732.01,185.92 1735.62,185.92 1739.24,185.92 1742.85,185.93 1746.46,185.92 1750.08,185.92 1753.69,185.92 1757.30,185.92 1760.91,185.92 1764.53,185.92 1768.14,185.92 1771.75,185.92 1775.36,185.92 1778.97,185.92 1782.59,185.92 1786.20,185.92 1789.81,185.92 1793.42,185.92 1797.04,185.92 1800.65,185.92 1804.26,185.92 1807.88,185.92 1811.49,185.92 1815.10,185.92 1818.71,185.92 1822.33,185.91 1825.94,185.92 1829.55,185.91 1833.16,185.92 1836.78,185.92 1840.39,185.91 1844.00,185.92 1847.61,185.91 1851.22,185.92 1854.84,185.91 1858.45,185.92 1862.06,185.91 1865.67,185.92 1869.29,185.91 1872.90,185.92 1876.51,185.91 1880.12,185.91 1883.74,185.92 1887.35,185.91 1890.96,185.91 1894.58,185.91 1898.19,185.91 1901.80,185.91 1905.41,185.91 1909.03,185.91 1912.64,185.91 1916.25,185.91 1919.86,185.91 1923.47,185.91 1927.09,185.91 1930.70,185.91 1934.31,185.91 1937.92,185.91 1941.54,185.91 1945.15,185.91 1948.76,185.91 1952.38,185.91 1955.99,185.91 1959.60,185.91 1963.21,185.91 1966.83,185.91 1970.44,185.91 1974.05,185.91 1977.66,185.91 1981.28,185.91 1984.89,185.91 1988.50,185.91 1992.11,185.91 1995.72,185.91 1999.34,185.91 2002.95,185.91 2006.56,185.91 2010.17,185.91 2013.79,185.91 2017.40,185.91 2021.01,185.91 2024.62,185.91 2028.24,185.91 2031.85,185.91 2035.46,185.91 2039.08,185.91 2042.69,185.91 2046.30,185.91 2049.91,185.91 2053.53,185.91 2057.14,185.91 2060.75,185.91 2064.36,185.91 2067.97,185.91 2071.59,185.91 2075.20,185.91 2078.81,185.91 2082.43,185.91 2086.04,185.91 2089.65,185.91 2093.26,185.91 2096.88,185.91 2100.49,185.91 2104.10,185.91 2107.71,185.91 2111.32,185.91 2114.94,185.91 2118.55,185.91 2122.16,185.91 2125.78,185.91 2129.39,185.91 2133.00,185.91 2136.61,185.91 2140.22,185.91 2143.84,185.91 2147.45,185.91 2151.06,185.91 2154.68,185.91 2158.29,185.91 2161.90,185.91 2165.51,185.91 2169.12,185.91 2172.74,185.91 2176.35,185.91 2179.96,185.91 2183.57,185.91 2187.19,185.91 2190.80,185.91 2194.41,185.91 2198.03,185.91 2201.64,185.91 2205.25,185.91 2208.86,185.91 2212.47,185.91 2216.09,185.91 2219.70,185.91 2223.31,185.91 2226.93,185.91 2230.54,185.91 2234.15,185.91 2237.76,185.91 2241.38,185.91 2244.99,185.91 2248.60,185.91 2252.21,185.91 2255.82,185.91 2259.44,185.91 2263.05,186.17 2266.66,186.07 2270.28,186.06 2273.89,186.02 2277.50,186.08 2281.11,186.06 2284.72,186.04 2288.34,185.95 2291.95,186.15 2295.56,185.98 2299.18,186.08 2302.79,186.01 2306.40,186.06 2310.01,185.98 2313.62,186.04 2317.24,185.98 2320.85,186.08 2324.46,186.00 2328.07,186.02 2331.69,185.99 2335.30,186.03 2338.91,186.03 2342.53,185.98 2346.14,186.01 2349.75,186.03 2353.36,185.97 2356.97,185.96 2360.59,185.96 2364.20,185.99 2367.81,185.98 2371.43,186.00 2375.04,185.97 2378.65,186.01 2382.26,186.04 2385.88,185.94 2389.49,185.93 2393.10,185.98 2396.71,185.97 2400.32,185.98 2403.94,185.95 2407.55,186.01 2411.16,185.99 2414.78,185.91 2418.39,185.97 2422.00,186.00 2425.61,186.03 2429.22,185.97 2432.84,185.91 2436.45,186.00 2440.06,185.97 2443.68,185.92 2447.29,185.93 2450.90,185.92 2454.51,185.92 2458.12,185.87 2461.74,185.87 2465.35,185.85 2468.96,185.89 2472.57,185.86 2476.19,185.86 2479.80,185.83 2483.41,185.86 2487.03,185.85 2490.64,185.87 2494.25,185.83 2497.86,185.87 2501.47,185.86 2505.09,185.86 2508.70,185.82 2512.31,185.86 2515.93,185.84 2519.54,185.85 2523.15,185.82 2526.76,185.85 2530.38,185.84 2533.99,185.86 2537.60,185.83 2541.21,185.86 2544.82,185.85 2548.44,185.82 2552.05,185.81 2555.66,185.81 2559.28,185.81 2562.89,185.80 2566.50,185.80 2570.11,185.80 2573.72,185.80 2577.34,185.80 2580.95,185.80 2584.56,185.80 2588.18,185.80 2591.79,185.79 2595.40,185.79 2599.01,185.78 2602.62,185.79 2606.24,185.78 2609.85,185.79 2613.46,185.78 2617.07,185.78 2620.69,185.78 2624.30,185.78 2627.91,185.78 2631.53,185.78 2635.14,185.78 2638.75,185.77 2642.36,185.77 2645.97,185.77 2649.59,185.77 2653.20,185.77 2656.81,185.77 2660.43,185.77 2664.04,185.77 2667.65,185.77 2671.26,185.77 2674.88,185.77 2678.49,185.77 2682.10,185.77 2685.71,185.77 2689.32,185.77 2692.94,185.77 2696.55,185.77 2700.16,185.77 2703.78,185.77 2707.39,185.77 2711.00,185.77 2714.61,185.76 2718.22,185.76 2721.84,185.76 2725.45,185.76 2729.06,185.76 2732.68,185.76 2736.29,185.76 2739.90,185.76 2743.51,185.76 2747.12,185.76 2750.74,185.76 2754.35,185.76 2757.96,185.76 2761.57,185.76 2765.19,185.76 2768.80,185.76 2772.41,185.76 2776.03,185.76 2779.64,185.76 2783.25,185.76 2786.86,185.76 2790.47,185.76" fill="none" stroke="#059669" stroke-width="1.2" stroke-opacity="0.28" stroke-linejoin="round"/>
<polyline points="113.61,245.98 117.22,245.98 120.84,245.98 124.45,245.98 128.06,245.98 131.68,245.98 135.29,245.98 138.90,245.98 142.51,245.98 146.12,245.98 149.74,245.98 153.35,245.98 156.96,245.98 160.57,245.98 164.19,245.98 167.80,245.98 171.41,245.98 175.03,245.98 178.64,245.98 182.25,245.26 185.86,245.26 189.47,245.26 193.09,245.26 196.70,245.26 200.31,245.26 203.93,245.26 207.54,245.26 211.15,245.26 214.76,245.26 218.38,245.26 221.99,245.26 225.60,245.26 229.21,245.26 232.82,216.03 236.44,216.03 240.05,208.88 243.66,208.88 247.28,208.15 250.89,208.15 254.50,208.15 258.11,208.15 261.73,208.15 265.34,208.15 268.95,208.15 272.56,208.15 276.18,208.15 279.79,208.15 283.40,208.15 287.01,208.15 290.62,208.15 294.24,208.15 297.85,201.29 301.46,201.29 305.07,198.22 308.69,198.22 312.30,198.22 315.91,197.49 319.52,197.49 323.14,197.49 326.75,197.14 330.36,197.14 333.98,197.14 337.59,197.14 341.20,197.14 344.81,197.14 348.43,197.14 352.04,197.14 355.65,197.14 359.26,197.14 362.88,197.14 366.49,197.14 370.10,197.14 373.71,197.14 377.32,192.82 380.94,192.82 384.55,192.16 388.16,192.16 391.77,192.02 395.39,192.02 399.00,192.02 402.61,191.99 406.23,191.99 409.84,191.49 413.45,191.49 417.06,190.73 420.68,190.73 424.29,190.34 427.90,190.34 431.51,190.34 435.12,190.34 438.74,190.34 442.35,190.34 445.96,190.34 449.57,190.34 453.19,190.34 456.80,190.34 460.41,190.34 464.02,190.34 467.64,190.34 471.25,190.34 474.86,189.42 478.48,188.96 482.09,188.96 485.70,188.80 489.31,188.80 492.93,188.32 496.54,188.32 500.15,188.32 503.76,188.32 507.38,188.32 510.99,188.32 514.60,188.32 518.21,188.32 521.83,188.32 525.44,188.32 529.05,188.32 532.66,188.32 536.27,188.32 539.89,188.32 543.50,187.62 547.11,187.62 550.73,187.62 554.34,187.62 557.95,187.62 561.56,187.62 565.17,187.62 568.79,187.62 572.40,187.62 576.01,187.42 579.62,187.42 583.24,187.42 586.85,187.42 590.46,187.23 594.08,187.23 597.69,187.23 601.30,187.23 604.91,187.23 608.52,187.23 612.14,187.23 615.75,187.23 619.36,187.23 622.98,187.23 626.59,187.23 630.20,187.23 633.81,187.23 637.42,187.23 641.04,187.23 644.65,187.23 648.26,187.03 651.88,187.03 655.49,187.03 659.10,187.03 662.71,186.96 666.33,186.96 669.94,186.84 673.55,186.84 677.16,186.84 680.77,186.84 684.39,186.84 688.00,186.84 691.61,186.84 695.23,186.84 698.84,186.84 702.45,186.84 706.06,186.84 709.67,186.84 713.29,186.84 716.90,186.84 720.51,186.68 724.12,186.68 727.74,186.66 731.35,186.66 734.96,186.55 738.58,186.55 742.19,186.54 745.80,186.54 749.41,186.53 753.02,186.53 756.64,186.53 760.25,186.53 763.86,186.53 767.48,186.53 771.09,186.53 774.70,186.53 778.31,186.53 781.92,186.53 785.54,186.52 789.15,186.52 792.76,186.50 796.38,186.50 799.99,186.45 803.60,186.45 807.21,186.40 810.83,186.40 814.44,186.40 818.05,186.40 821.66,186.40 825.27,186.40 828.89,186.40 832.50,186.40 836.11,186.40 839.73,186.40 843.34,186.40 846.95,186.40 850.56,186.40 854.17,186.40 857.79,186.36 861.40,186.36 865.01,186.33 868.62,186.33 872.24,186.33 875.85,186.33 879.46,186.30 883.08,186.30 886.69,186.30 890.30,186.30 893.91,186.30 897.52,186.30 901.14,186.30 904.75,186.23 908.36,186.23 911.98,186.23 915.59,186.23 919.20,186.23 922.81,186.23 926.42,186.23 930.04,186.23 933.65,186.23 937.26,186.23 940.88,186.23 944.49,186.23 948.10,186.23 951.71,186.23 955.33,186.21 958.94,186.21 962.55,186.21 966.16,186.21 969.77,186.21 973.39,186.21 977.00,186.21 980.61,186.21 984.23,186.21 987.84,186.21 991.45,186.21 995.06,186.21 998.67,186.21 1002.29,186.21 1005.90,186.19 1009.51,186.19 1013.12,186.19 1016.74,186.19 1020.35,186.19 1023.96,186.19 1027.58,186.19 1031.19,186.17 1034.80,186.17 1038.41,186.17 1042.03,186.17 1045.64,186.17 1049.25,186.17 1052.86,186.15 1056.47,186.15 1060.09,186.15 1063.70,186.15 1067.31,186.13 1070.92,186.13 1074.54,186.11 1078.15,186.11 1081.76,186.11 1085.38,186.11 1088.99,186.11 1092.60,186.11 1096.21,186.11 1099.83,186.11 1103.44,186.11 1107.05,186.11 1110.66,186.11 1114.28,186.11 1117.89,186.11 1121.50,186.11 1125.11,186.08 1128.72,186.08 1132.34,186.08 1135.95,186.08 1139.56,186.08 1143.17,186.06 1146.79,186.06 1150.40,186.05 1154.01,186.05 1157.62,186.04 1161.24,186.04 1164.85,186.04 1168.46,186.04 1172.08,186.04 1175.69,186.04 1179.30,186.03 1182.91,186.03 1186.53,186.02 1190.14,186.02 1193.75,186.02 1197.36,186.02 1200.97,186.02 1204.59,186.02 1208.20,186.02 1211.81,186.02 1215.42,186.02 1219.04,186.02 1222.65,186.02 1226.26,186.02 1229.88,186.02 1233.49,186.02 1237.10,186.00 1240.71,186.00 1244.33,186.00 1247.94,186.00 1251.55,186.00 1255.16,186.00 1258.78,185.99 1262.39,185.99 1266.00,185.98 1269.61,185.98 1273.22,185.98 1276.84,185.98 1280.45,185.98 1284.06,185.98 1287.67,185.98 1291.29,185.98 1294.90,185.98 1298.51,185.98 1302.12,185.98 1305.74,185.98 1309.35,185.98 1312.96,185.97 1316.58,185.97 1320.19,185.96 1323.80,185.96 1327.41,185.96 1331.03,185.96 1334.64,185.96 1338.25,185.96 1341.86,185.96 1345.47,185.96 1349.09,185.96 1352.70,185.96 1356.31,185.96 1359.92,185.96 1363.54,185.96 1367.15,185.96 1370.76,185.96 1374.38,185.96 1377.99,185.96 1381.60,185.95 1385.21,185.95 1388.83,185.95 1392.44,185.95 1396.05,185.95 1399.66,185.95 1403.28,185.95 1406.89,185.95 1410.50,185.94 1414.11,185.94 1417.72,185.94 1421.34,185.94 1424.95,185.94 1428.56,185.94 1432.17,185.94 1435.79,185.94 1439.40,185.94 1443.01,185.94 1446.62,185.94 1450.24,185.94 1453.85,185.94 1457.46,185.94 1461.08,185.94 1464.69,185.94 1468.30,185.94 1471.91,185.94 1475.53,185.94 1479.14,185.94 1482.75,185.94 1486.36,185.93 1489.97,185.93 1493.59,185.93 1497.20,185.93 1500.81,185.93 1504.42,185.93 1508.04,185.93 1511.65,185.93 1515.26,185.93 1518.88,185.93 1522.49,185.93 1526.10,185.93 1529.71,185.93 1533.33,185.93 1536.94,185.93 1540.55,185.93 1544.16,185.93 1547.78,185.93 1551.39,185.93 1555.00,185.93 1558.61,185.93 1562.22,185.93 1565.84,185.93 1569.45,185.93 1573.06,185.93 1576.67,185.93 1580.29,185.93 1583.90,185.93 1587.51,185.93 1591.12,185.93 1594.74,185.93 1598.35,185.93 1601.96,185.93 1605.58,185.93 1609.19,185.93 1612.80,185.93 1616.41,185.93 1620.03,185.92 1623.64,185.92 1627.25,185.92 1630.86,185.92 1634.47,185.92 1638.09,185.92 1641.70,185.92 1645.31,185.92 1648.92,185.92 1652.54,185.92 1656.15,185.92 1659.76,185.92 1663.38,185.92 1666.99,185.92 1670.60,185.92 1674.21,185.92 1677.83,185.92 1681.44,185.92 1685.05,185.92 1688.66,185.92 1692.28,185.92 1695.89,185.92 1699.50,185.92 1703.11,185.92 1706.72,185.92 1710.34,185.92 1713.95,185.92 1717.56,185.92 1721.17,185.92 1724.79,185.92 1728.40,185.92 1732.01,185.92 1735.62,185.92 1739.24,185.92 1742.85,185.92 1746.46,185.92 1750.08,185.92 1753.69,185.92 1757.30,185.92 1760.91,185.92 1764.53,185.92 1768.14,185.92 1771.75,185.92 1775.36,185.92 1778.97,185.92 1782.59,185.92 1786.20,185.92 1789.81,185.92 1793.42,185.92 1797.04,185.92 1800.65,185.92 1804.26,185.92 1807.88,185.92 1811.49,185.92 1815.10,185.92 1818.71,185.92 1822.33,185.91 1825.94,185.91 1829.55,185.91 1833.16,185.91 1836.78,185.91 1840.39,185.91 1844.00,185.91 1847.61,185.91 1851.22,185.91 1854.84,185.91 1858.45,185.91 1862.06,185.91 1865.67,185.91 1869.29,185.91 1872.90,185.91 1876.51,185.91 1880.12,185.91 1883.74,185.91 1887.35,185.91 1890.96,185.91 1894.58,185.91 1898.19,185.91 1901.80,185.91 1905.41,185.91 1909.03,185.91 1912.64,185.91 1916.25,185.91 1919.86,185.91 1923.47,185.91 1927.09,185.91 1930.70,185.91 1934.31,185.91 1937.92,185.91 1941.54,185.91 1945.15,185.91 1948.76,185.91 1952.38,185.91 1955.99,185.91 1959.60,185.91 1963.21,185.91 1966.83,185.91 1970.44,185.91 1974.05,185.91 1977.66,185.91 1981.28,185.91 1984.89,185.91 1988.50,185.91 1992.11,185.91 1995.72,185.91 1999.34,185.91 2002.95,185.91 2006.56,185.91 2010.17,185.91 2013.79,185.91 2017.40,185.91 2021.01,185.91 2024.62,185.91 2028.24,185.91 2031.85,185.91 2035.46,185.91 2039.08,185.91 2042.69,185.91 2046.30,185.91 2049.91,185.91 2053.53,185.91 2057.14,185.91 2060.75,185.91 2064.36,185.91 2067.97,185.91 2071.59,185.91 2075.20,185.91 2078.81,185.91 2082.43,185.91 2086.04,185.91 2089.65,185.91 2093.26,185.91 2096.88,185.91 2100.49,185.91 2104.10,185.91 2107.71,185.91 2111.32,185.91 2114.94,185.91 2118.55,185.91 2122.16,185.91 2125.78,185.91 2129.39,185.91 2133.00,185.91 2136.61,185.91 2140.22,185.91 2143.84,185.91 2147.45,185.91 2151.06,185.91 2154.68,185.91 2158.29,185.91 2161.90,185.91 2165.51,185.91 2169.12,185.91 2172.74,185.91 2176.35,185.91 2179.96,185.91 2183.57,185.91 2187.19,185.91 2190.80,185.91 2194.41,185.91 2198.03,185.91 2201.64,185.91 2205.25,185.91 2208.86,185.91 2212.47,185.91 2216.09,185.91 2219.70,185.91 2223.31,185.91 2226.93,185.91 2230.54,185.91 2234.15,185.91 2237.76,185.91 2241.38,185.91 2244.99,185.91 2248.60,185.91 2252.21,185.91 2255.82,185.91 2259.44,185.91 2263.05,185.91 2266.66,185.91 2270.28,185.91 2273.89,185.91 2277.50,185.91 2281.11,185.91 2284.72,185.91 2288.34,185.91 2291.95,185.91 2295.56,185.91 2299.18,185.91 2302.79,185.91 2306.40,185.91 2310.01,185.91 2313.62,185.91 2317.24,185.91 2320.85,185.91 2324.46,185.91 2328.07,185.91 2331.69,185.91 2335.30,185.91 2338.91,185.91 2342.53,185.91 2346.14,185.91 2349.75,185.91 2353.36,185.91 2356.97,185.91 2360.59,185.91 2364.20,185.91 2367.81,185.91 2371.43,185.91 2375.04,185.91 2378.65,185.91 2382.26,185.91 2385.88,185.91 2389.49,185.91 2393.10,185.91 2396.71,185.91 2400.32,185.91 2403.94,185.91 2407.55,185.91 2411.16,185.91 2414.78,185.91 2418.39,185.91 2422.00,185.91 2425.61,185.91 2429.22,185.91 2432.84,185.91 2436.45,185.91 2440.06,185.91 2443.68,185.91 2447.29,185.91 2450.90,185.91 2454.51,185.91 2458.12,185.87 2461.74,185.87 2465.35,185.85 2468.96,185.85 2472.57,185.85 2476.19,185.85 2479.80,185.83 2483.41,185.83 2487.03,185.83 2490.64,185.83 2494.25,185.83 2497.86,185.83 2501.47,185.83 2505.09,185.83 2508.70,185.82 2512.31,185.82 2515.93,185.82 2519.54,185.82 2523.15,185.82 2526.76,185.82 2530.38,185.82 2533.99,185.82 2537.60,185.82 2541.21,185.82 2544.82,185.82 2548.44,185.82 2552.05,185.81 2555.66,185.81 2559.28,185.81 2562.89,185.80 2566.50,185.80 2570.11,185.80 2573.72,185.80 2577.34,185.80 2580.95,185.80 2584.56,185.80 2588.18,185.80 2591.79,185.79 2595.40,185.79 2599.01,185.78 2602.62,185.78 2606.24,185.78 2609.85,185.78 2613.46,185.78 2617.07,185.78 2620.69,185.78 2624.30,185.78 2627.91,185.78 2631.53,185.78 2635.14,185.78 2638.75,185.77 2642.36,185.77 2645.97,185.77 2649.59,185.77 2653.20,185.77 2656.81,185.77 2660.43,185.77 2664.04,185.77 2667.65,185.77 2671.26,185.77 2674.88,185.77 2678.49,185.77 2682.10,185.77 2685.71,185.77 2689.32,185.77 2692.94,185.77 2696.55,185.77 2700.16,185.77 2703.78,185.77 2707.39,185.77 2711.00,185.77 2714.61,185.76 2718.22,185.76 2721.84,185.76 2725.45,185.76 2729.06,185.76 2732.68,185.76 2736.29,185.76 2739.90,185.76 2743.51,185.76 2747.12,185.76 2750.74,185.76 2754.35,185.76 2757.96,185.76 2761.57,185.76 2765.19,185.76 2768.80,185.76 2772.41,185.76 2776.03,185.76 2779.64,185.76 2783.25,185.76 2786.86,185.76 2790.47,185.76 7335.00,185.76" fill="none" stroke="#059669" stroke-width="2.5" stroke-linejoin="round" stroke-linecap="round"/>
</g>
<rect x="6920.0" y="528.0" width="410" height="82" rx="6" fill="#ffffff" fill-opacity="0.9"/>
<g data-legend="polyak">
<line x1="6930.0" y1="545.0" x2="6960.0" y2="545.0" stroke="#2563eb" stroke-width="3"/>
<text class="legend" x="6969.0" y="550.0">Polyak (594 evals, best 38957.4)</text>
</g>
<g data-legend="helsgaun">
<line x1="6930.0" y1="570.0" x2="6960.0" y2="570.0" stroke="#dc2626" stroke-width="3"/>
<text class="legend" x="6969.0" y="575.0">Helsgaun (124 evals, best 38462.1)</text>
</g>
<g data-legend="hybrid">
<line x1="6930.0" y1="595.0" x2="6960.0" y2="595.0" stroke="#059669" stroke-width="3"/>
<text class="legend" x="6969.0" y="600.0">Hybrid (742 evals, best 38966.7)</text>
</g>
</svg>
