<?xml version="1.0" encoding="UTF-8"?>
<svg xmlns="http://www.w3.org/2000/svg" width="7380" height="720" viewBox="0 0 7380 720">
<title>bayg29.tsp root potential ascent</title>
<desc>Polyak, Helsgaun, and Hybrid root lower-bound trajectories; the dashed line is the Concorde optimum.</desc>
<rect width="100%" height="100%" fill="#ffffff"/>
<style>text{font-family:-apple-system,BlinkMacSystemFont,"Segoe UI",Arial,sans-serif;fill:#172033}.tick{font-size:13px;fill:#596579}.axis{stroke:#334155;stroke-width:1.4}.grid{stroke:#dbe2ea;stroke-width:1}.legend{font-size:14px}.title{font-size:23px;font-weight:600}.subtitle{font-size:13px;fill:#64748b}</style>
<text class="title" x="800.0" y="33" text-anchor="middle">bayg29.tsp — root potential ascent</text>
<text class="subtitle" x="800.0" y="55" text-anchor="middle">Per-phase cap: 2000; 400 iterations per 1600px; thin = raw bound, bold = best-so-far</text>
<line class="grid" x1="110.00" y1="75.0" x2="110.00" y2="615.0"/>
<text class="tick" x="110.00" y="640.0" text-anchor="middle">0</text>
<line class="grid" x1="1555.00" y1="75.0" x2="1555.00" y2="615.0"/>
<text class="tick" x="1555.00" y="640.0" text-anchor="middle">400</text>
<line class="grid" x1="3000.00" y1="75.0" x2="3000.00" y2="615.0"/>
<text class="tick" x="3000.00" y="640.0" text-anchor="middle">800</text>
<line class="grid" x1="4445.00" y1="75.0" x2="4445.00" y2="615.0"/>
<text class="tick" x="4445.00" y="640.0" text-anchor="middle">1200</text>
<line class="grid" x1="5890.00" y1="75.0" x2="5890.00" y2="615.0"/>
<text class="tick" x="5890.00" y="640.0" text-anchor="middle">1600</text>
<line class="grid" x1="7335.00" y1="75.0" x2="7335.00" y2="615.0"/>
<text class="tick" x="7335.00" y="640.0" text-anchor="middle">2000</text>
<line class="grid" x1="110.0" y1="615.00" x2="7335.0" y2="615.00"/>
<text class="tick" x="96.0" y="619.00" text-anchor="end">1296.53</text>
<line class="grid" x1="110.0" y1="507.00" x2="7335.0" y2="507.00"/>
<text class="tick" x="96.0" y="511.00" text-anchor="end">1362.77</text>
<line class="grid" x1="110.0" y1="399.00" x2="7335.0" y2="399.00"/>
<text class="tick" x="96.0" y="403.00" text-anchor="end">1429.01</text>
<line class="grid" x1="110.0" y1="291.00" x2="7335.0" y2="291.00"/>
<text class="tick" x="96.0" y="295.00" text-anchor="end">1495.26</text>
<line class="grid" x1="110.0" y1="183.00" x2="7335.0" y2="183.00"/>
<text class="tick" x="96.0" y="187.00" text-anchor="end">1561.5</text>
<line class="grid" x1="110.0" y1="75.00" x2="7335.0" y2="75.00"/>
<text class="tick" x="96.0" y="79.00" text-anchor="end">1627.74</text>
<line class="axis" x1="110.0" y1="615.0" x2="7335.0" y2="615.0"/>
<line class="axis" x1="110.0" y1="75.0" x2="110.0" y2="615.0"/>
<text x="3722.50" y="686" text-anchor="middle">Iteration</text>
<text x="27" y="345.00" text-anchor="middle" transform="rotate(-90 27 345.00)">Root lower bound</text>
<g data-series="concorde">
<line x1="110.0" y1="103.93" x2="7335.0" y2="103.93" stroke="#111827" stroke-width="1.8" stroke-dasharray="8 6"/>
<text class="tick" x="7331.0" y="95.93" text-anchor="end">Concorde optimum: 1610</text>
</g>
<g data-series="polyak">
<polyline points="113.61,487.06 117.22,586.07 120.84,414.31 124.45,374.14 128.06,406.82 131.68,312.12 135.29,318.73 138.90,242.70 142.51,228.40 146.12,183.88 149.74,148.98 153.35,138.42 156.96,133.50 160.57,125.89 164.19,122.71 167.80,116.16 171.41,120.04 175.03,119.00 178.64,125.52 182.25,132.04 185.86,141.26 189.47,120.31 193.09,114.89 196.70,130.65 200.31,125.72 203.93,115.09 207.54,118.61 211.15,126.65 214.76,117.65 218.38,127.33 221.99,120.76 225.60,128.52 229.21,124.15 232.82,135.49 236.44,127.05 240.05,129.18 243.66,119.23 247.28,113.57 250.89,112.96 254.50,110.83 258.11,109.92 261.73,113.13 265.34,110.45 268.95,110.45 272.56,110.45 276.18,110.45 279.79,110.45 283.40,110.45 287.01,110.45 290.62,110.45 294.24,110.45 297.85,110.45 301.46,110.45 305.07,110.45 308.69,107.56 312.30,108.63 315.91,108.10 319.52,108.37 323.14,108.23 326.75,108.30 330.36,108.27 333.98,108.28 337.59,108.27 341.20,108.28 344.81,108.28 348.43,108.28 352.04,108.28 355.65,108.28 359.26,107.42 362.88,107.94 366.49,107.50 370.10,107.77 373.71,107.57 377.32,107.72 380.94,107.61 384.55,107.69 388.16,107.63 391.77,107.68 395.39,107.64 399.00,107.67 402.61,107.65 406.23,107.66 409.84,107.30 413.45,107.50 417.06,107.33 420.68,107.48 424.29,107.35 427.90,107.46 431.51,107.36 435.12,107.45 438.74,107.37 442.35,107.44 445.96,107.38 449.57,107.43 453.19,107.39 456.80,107.42 460.41,107.29 464.02,107.30 467.64,107.29 471.25,107.30" fill="none" stroke="#2563eb" stroke-width="1.2" stroke-opacity="0.28" stroke-linejoin="round"/>
<polyline points="113.61,487.06 117.22,487.06 120.84,414.31 124.45,374.14 128.06,374.14 131.68,312.12 135.29,312.12 138.90,242.70 142.51,228.40 146.12,183.88 149.74,148.98 153.35,138.42 156.96,133.50 160.57,125.89 164.19,122.71 167.80,116.16 171.41,116.16 175.03,116.16 178.64,116.16 182.25,116.16 185.86,116.16 189.47,116.16 193.09,114.89 196.70,114.89 200.31,114.89 203.93,114.89 207.54,114.89 211.15,114.89 214.76,114.89 218.38,114.89 221.99,114.89 225.60,114.89 229.21,114.89 232.82,114.89 236.44,114.89 240.05,114.89 243.66,114.89 247.28,113.57 250.89,112.96 254.50,110.83 258.11,109.92 261.73,109.92 265.34,109.92 268.95,109.92 272.56,109.92 276.18,109.92 279.79,109.92 283.40,109.92 287.01,109.92 290.62,109.92 294.24,109.92 297.85,109.92 301.46,109.92 305.07,109.92 308.69,107.56 312.30,107.56 315.91,107.56 319.52,107.56 323.14,107.56 326.75,107.56 330.36,107.56 333.98,107.56 337.59,107.56 341.20,107.56 344.81,107.56 348.43,107.56 352.04,107.56 355.65,107.56 359.26,107.42 362.88,107.42 366.49,107.42 370.10,107.42 373.71,107.42 377.32,107.42 380.94,107.42 384.55,107.42 388.16,107.42 391.77,107.42 395.39,107.42 399.00,107.42 402.61,107.42 406.23,107.42 409.84,107.30 413.45,107.30 417.06,107.30 420.68,107.30 424.29,107.30 427.90,107.30 431.51,107.30 435.12,107.30 438.74,107.30 442.35,107.30 445.96,107.30 449.57,107.30 453.19,107.30 456.80,107.30 460.41,107.29 464.02,107.29 467.64,107.29 471.25,107.29 7335.00,107.29" fill="none" stroke="#2563eb" stroke-width="2.5" stroke-linejoin="round" stroke-linecap="round"/>
</g>
<g data-series="helsgaun">
<polyline points="113.61,487.06 117.22,452.83 120.84,402.29 124.45,347.83 128.06,278.70 131.68,279.03 135.29,304.79 138.90,230.77 142.51,294.35 146.12,280.01 149.74,309.03 153.35,305.77 156.96,238.60 160.57,277.73 164.19,229.47 167.80,193.60 171.41,148.60 175.03,138.49 178.64,138.49 182.25,137.19 185.86,134.25 189.47,128.38 193.09,120.56 196.70,123.17 200.31,118.28 203.93,118.93 207.54,114.04 211.15,116.32 214.76,110.78 218.38,109.15 221.99,111.75 225.60,112.41 229.21,109.47 232.82,111.10 236.44,108.00 240.05,110.29 243.66,110.12" fill="none" stroke="#dc2626" stroke-width="1.2" stroke-opacity="0.28" stroke-linejoin="round"/>
<polyline points="113.61,487.06 117.22,452.83 120.84,402.29 124.45,347.83 128.06,278.70 131.68,278.70 135.29,278.70 138.90,230.77 142.51,230.77 146.12,230.77 149.74,230.77 153.35,230.77 156.96,230.77 160.57,230.77 164.19,229.47 167.80,193.60 171.41,148.60 175.03,138.49 178.64,138.49 182.25,137.19 185.86,134.25 189.47,128.38 193.09,120.56 196.70,120.56 200.31,118.28 203.93,118.28 207.54,114.04 211.15,114.04 214.76,110.78 218.38,109.15 221.99,109.15 225.60,109.15 229.21,109.15 232.82,109.15 236.44,108.00 240.05,108.00 243.66,108.00 7335.00,108.00" fill="none" stroke="#dc2626" stroke-width="2.5" stroke-linejoin="round" stroke-linecap="round"/>
</g>
<g data-series="hybrid">
<polyline points="113.61,487.06 117.22,586.07 120.84,414.31 124.45,374.14 128.06,406.82 131.68,312.12 135.29,318.73 138.90,242.70 142.51,228.40 146.12,183.88 149.74,148.98 153.35,138.42 156.96,133.50 160.57,125.89 164.19,122.71 167.80,116.16 171.41,120.04 175.03,119.00 178.64,125.52 182.25,132.04 185.86,141.26 189.47,120.31 193.09,114.89 196.70,130.65 200.31,125.72 203.93,115.09 207.54,118.61 211.15,126.65 214.76,117.65 218.38,127.33 221.99,120.76 225.60,128.52 229.21,124.15 232.82,135.49 236.44,127.05 240.05,129.18 243.66,119.23 247.28,113.57 250.89,112.96 254.50,110.83 258.11,109.92 261.73,113.13 265.34,110.45 268.95,110.45 272.56,110.45 276.18,110.45 279.79,110.45 283.40,110.45 287.01,110.45 290.62,110.45 294.24,110.45 297.85,110.45 301.46,110.45 305.07,110.45 308.69,107.56 312.30,108.63 315.91,108.10 319.52,108.37 323.14,108.23 326.75,108.30 330.36,108.27 333.98,108.28 337.59,108.27 341.20,108.28 344.81,108.28 348.43,108.28 352.04,108.28 355.65,108.28 359.26,107.42 362.88,107.94 366.49,107.50 370.10,107.77 373.71,107.57 377.32,107.72 380.94,107.61 384.55,107.69 388.16,107.63 391.77,107.68 395.39,107.64 399.00,107.67 402.61,107.65 406.23,107.66 409.84,107.30 413.45,107.50 417.06,107.33 420.68,107.48 424.29,107.35 427.90,107.46 431.51,107.36 435.12,107.45 438.74,107.37 442.35,107.44 445.96,107.38 449.57,107.43 453.19,107.39 456.80,107.42 460.41,107.29 464.02,107.30 467.64,107.29 471.25,107.30 474.86,107.29 478.48,113.78 482.09,109.86 485.70,111.53 489.31,108.92 492.93,111.98 496.54,109.37 500.15,111.53 503.76,108.92 507.38,111.98 510.99,109.37 514.60,111.53 518.21,108.92 521.83,111.98 525.44,109.37 529.05,108.84 532.66,109.28 536.27,108.68 539.89,108.23 543.50,108.02 547.11,108.46 550.73,107.86 554.34,107.78 557.95,107.29 561.56,107.79" fill="none" stroke="#059669" stroke-width="1.2" stroke-opacity="0.28" stroke-linejoin="round"/>
<polyline points="113.61,487.06 117.22,487.06 120.84,414.31 124.45,374.14 128.06,374.14 131.68,312.12 135.29,312.12 138.90,242.70 142.51,228.40 146.12,183.88 149.74,148.98 153.35,138.42 156.96,133.50 160.57,125.89 164.19,122.71 167.80,116.16 171.41,116.16 175.03,116.16 178.64,116.16 182.25,116.16 185.86,116.16 189.47,116.16 193.09,114.89 196.70,114.89 200.31,114.89 203.93,114.89 207.54,114.89 211.15,114.89 214.76,114.89 218.38,114.89 221.99,114.89 225.60,114.89 229.21,114.89 232.82,114.89 236.44,114.89 240.05,114.89 243.66,114.89 247.28,113.57 250.89,112.96 254.50,110.83 258.11,109.92 261.73,109.92 265.34,109.92 268.95,109.92 272.56,109.92 276.18,109.92 279.79,109.92 283.40,109.92 287.01,109.92 290.62,109.92 294.24,109.92 297.85,109.92 301.46,109.92 305.07,109.92 308.69,107.56 312.30,107.56 315.91,107.56 319.52,107.56 323.14,107.56 326.75,107.56 330.36,107.56 333.98,107.56 337.59,107.56 341.20,107.56 344.81,107.56 348.43,107.56 352.04,107.56 355.65,107.56 359.26,107.42 362.88,107.42 366.49,107.42 370.10,107.42 373.71,107.42 377.32,107.42 380.94,107.42 384.55,107.42 388.16,107.42 391.77,107.42 395.39,107.42 399.00,107.42 402.61,107.42 406.23,107.42 409.84,107.30 413.45,107.30 417.06,107.30 420.68,107.30 424.29,107.30 427.90,107.30 431.51,107.30 435.12,107.30 438.74,107.30 442.35,107.30 445.96,107.30 449.57,107.30 453.19,107.30 456.80,107.30 460.41,107.29 464.02,107.29 467.64,107.29 471.25,107.29 474.86,107.29 478.48,107.29 482.09,107.29 485.70,107.29 489.31,107.29 492.93,107.29 496.54,107.29 500.15,107.29 503.76,107.29 507.38,107.29 510.99,107.29 514.60,107.29 518.21,107.29 521.83,107.29 525.44,107.29 529.05,107.29 532.66,107.29 536.27,107.29 539.89,107.29 543.50,107.29 547.11,107.29 550.73,107.29 554.34,107.29 557.95,107.29 561.56,107.29 7335.00,107.29" fill="none" stroke="#059669" stroke-width="2.5" stroke-linejoin="round" stroke-linecap="round"/>
</g>
<rect x="6920.0" y="528.0" width="410" height="82" rx="6" fill="#ffffff" fill-opacity="0.9"/>
<g data-legend="polyak">
<line x1="6930.0" y1="545.0" x2="6960.0" y2="545.0" stroke="#2563eb" stroke-width="3"/>
<text class="legend" x="6969.0" y="550.0">Polyak (100 evals, best 1607.94)</text>
</g>
<g data-legend="helsgaun">
<line x1="6930.0" y1="570.0" x2="6960.0" y2="570.0" stroke="#dc2626" stroke-width="3"/>
<text class="legend" x="6969.0" y="575.0">Helsgaun (37 evals, best 1607.5)</text>
</g>
<g data-legend="hybrid">
<line x1="6930.0" y1="595.0" x2="6960.0" y2="595.0" stroke="#059669" stroke-width="3"/>
<text class="legend" x="6969.0" y="600.0">Hybrid (125 evals, best 1607.94)</text>
</g>
</svg>
